CinzelDecorative-Regular.ufo
<glyph name="numbersign" format="2">
  <advance width="536"/>
  <unicode hex="0023"/>
  <outline>
    <contour>
      <point x="212.474" y="700" type="line"/>
      <point x="89.046" y="0" type="line"/>
      <point x="121.046" y="0" type="line"/>
      <point x="244.474" y="700" type="line"/>
    </contour>
    <contour>
      <point x="412.474" y="700" type="line"/>
      <point x="289.046" y="0" type="line"/>
      <point x="321.046" y="0" type="line"/>
      <point x="444.474" y="700" type="line"/>
    </contour>
    <contour>
      <point x="516" y="496.877" type="line"/>
      <point x="64" y="496.877" type="line"/>
      <point x="64" y="466.877" type="line"/>
      <point x="516" y="466.877" type="line"/>
    </contour>
    <contour>
      <point x="472" y="246.877" type="line"/>
      <point x="20" y="246.877" type="line"/>
      <point x="20" y="216.877" type="line"/>
      <point x="472" y="216.877" type="line"/>
    </contour>
  </outline>
</glyph>
<glyph name="dollar" format="2">
  <advance width="469"/>
  <unicode hex="0024"/>
  <outline>
    <contour>
      <point x="236.543" y="714" type="curve" smooth="yes"/>
      <point x="146.806" y="714"/>
      <point x="72.489" y="636.407"/>
      <point x="72.489" y="545.679" type="curve" smooth="yes"/>
      <point x="72.489" y="505.418"/>
      <point x="85.291" y="459.312"/>
      <point x="126.453" y="421.085" type="curve" smooth="yes"/>
      <point x="318.007" y="243.189" type="line" smooth="yes"/>
      <point x="345.741" y="217.432"/>
      <point x="357.189" y="185.018"/>
      <point x="357.189" y="148.9" type="curve" smooth="yes"/>
      <point x="357.189" y="72.794"/>
      <point x="297.495" y="18.814"/>
      <point x="222.956" y="16.451" type="curve" smooth="yes"/>
      <point x="129.461" y="13.486"/>
      <point x="70.18" y="75.537"/>
      <point x="79.053" y="180.047" type="curve"/>
      <point x="70.261" y="180.047" type="line"/>
      <point x="55.028" y="135.21"/>
      <point x="51.248" y="71.51"/>
      <point x="58.7" y="40.639" type="curve"/>
      <point x="95.766" y="2.76"/>
      <point x="168.576" y="-14"/>
      <point x="232.819" y="-14" type="curve" smooth="yes"/>
      <point x="342.085" y="-13"/>
      <point x="414.928" y="62.097"/>
      <point x="414.928" y="173.728" type="curve" smooth="yes"/>
      <point x="414.928" y="215.787"/>
      <point x="403.515" y="259.272"/>
      <point x="365.021" y="294.906" type="curve" smooth="yes"/>
      <point x="168.514" y="476.809" type="line" smooth="yes"/>
      <point x="138.587" y="504.511"/>
      <point x="127.959" y="540.187"/>
      <point x="127.959" y="570.006" type="curve" smooth="yes"/>
      <point x="127.959" y="630.141"/>
      <point x="181.098" y="683.606"/>
      <point x="246.712" y="683.606" type="curve" smooth="yes"/>
      <point x="316.717" y="683.606"/>
      <point x="363.76" y="645.312"/>
      <point x="363.76" y="581.034" type="curve"/>
      <point x="373.389" y="581.034" type="line"/>
      <point x="373.389" y="691.869" type="line"/>
      <point x="349.435" y="702.028"/>
      <point x="300.061" y="714"/>
    </contour>
    <contour>
      <point x="373.378" y="703.741" type="line"/>
      <point x="296.884" y="703.741" type="line"/>
      <point x="296.884" y="683.478" type="line"/>
      <point x="373.378" y="683.478" type="line"/>
    </contour>
    <contour>
      <point x="248.871" y="787.988" type="line"/>
      <point x="181.08" y="-99" type="line"/>
      <point x="211.05" y="-102" type="line"/>
      <point x="279.395" y="786.94" type="line"/>
    </contour>
  </outline>
</glyph>
<glyph name="ampersand" format="2">
  <advance width="818"/>
  <unicode hex="0026"/>
  <outline>
    <contour>
      <point x="328.701" y="713.947" type="curve" smooth="yes"/>
      <point x="203.282" y="715"/>
      <point x="131.901" y="640"/>
      <point x="135.682" y="534.975" type="curve" smooth="yes"/>
      <point x="139.022" y="436"/>
      <point x="206.745" y="358"/>
      <point x="327.411" y="253" type="curve" smooth="yes"/>
      <point x="388.261" y="200"/>
      <point x="614.964" y="8"/>
      <point x="679.674" y="-41" type="curve" smooth="yes"/>
      <point x="804.991" y="-136"/>
      <point x="988.365" y="-204"/>
      <point x="1143.75" y="-70" type="curve"/>
      <point x="1139.44" y="-61" type="line"/>
      <point x="962.375" y="-147"/>
      <point x="810.408" y="-62"/>
      <point x="687.986" y="36" type="curve" smooth="yes"/>
      <point x="612.892" y="96"/>
      <point x="400.538" y="278"/>
      <point x="371.665" y="303" type="curve" smooth="yes"/>
      <point x="266.489" y="394"/>
      <point x="207.254" y="458"/>
      <point x="204.432" y="542.133" type="curve" smooth="yes"/>
      <point x="201.424" y="625"/>
      <point x="253.365" y="684"/>
      <point x="334.648" y="684.449" type="curve" smooth="yes"/>
      <point x="415.365" y="684"/>
      <point x="475.389" y="626"/>
      <point x="479.121" y="529.951" type="curve"/>
      <point x="489.121" y="529.951" type="line"/>
      <point x="502.519" y="643.151" type="line"/>
      <point x="467.399" y="683"/>
      <point x="407.352" y="713"/>
    </contour>
    <contour>
      <point x="496.766" y="789.21" type="curve"/>
      <point x="491.976" y="783.21" type="line"/>
      <point x="926.798" y="557"/>
      <point x="713.038" y="50"/>
      <point x="416.545" y="20" type="curve" smooth="yes"/>
      <point x="267.969" y="4.967"/>
      <point x="140.578" y="105"/>
      <point x="136.319" y="227" type="curve" smooth="yes"/>
      <point x="134.364" y="283"/>
      <point x="150.094" y="348"/>
      <point x="204.204" y="393.108" type="curve"/>
      <point x="189.561" y="414.841" type="line"/>
      <point x="119.907" y="382"/>
      <point x="60.177" y="317"/>
      <point x="63.842" y="212" type="curve" smooth="yes"/>
      <point x="69.358" y="54"/>
      <point x="251.233" y="-30"/>
      <point x="417.592" y="-10" type="curve" smooth="yes"/>
      <point x="776.056" y="34"/>
      <point x="943.227" y="607"/>
    </contour>
  </outline>
</glyph>
<glyph name="quotesingle" format="2">
  <advance width="170"/>
  <unicode hex="0027"/>
  <outline>
    <contour>
      <point x="51" y="700" type="line"/>
      <point x="56" y="627"/>
      <point x="54" y="593"/>
      <point x="35" y="505" type="curve"/>
      <point x="44" y="500" type="line"/>
      <point x="107" y="535"/>
      <point x="122" y="662"/>
      <point x="121" y="714" type="curve"/>
    </contour>
  </outline>
</glyph>
<glyph name="parenleft" format="2">
  <advance width="338"/>
  <unicode hex="0028"/>
  <outline>
    <contour>
      <point x="309" y="724" type="curve"/>
      <point x="303" y="732" type="line"/>
      <point x="187" y="692"/>
      <point x="88" y="526"/>
      <point x="90" y="334" type="curve" smooth="yes"/>
      <point x="92" y="139"/>
      <point x="190" y="-42"/>
      <point x="301" y="-100" type="curve"/>
      <point x="307" y="-91" type="line"/>
      <point x="232" y="-39"/>
      <point x="163" y="139"/>
      <point x="160" y="336" type="curve" smooth="yes"/>
      <point x="157" y="524"/>
      <point x="228" y="685"/>
    </contour>
  </outline>
</glyph>
<glyph name="asterisk" format="2">
  <advance width="386"/>
  <unicode hex="002A"/>
  <outline>
    <contour>
      <point x="291.193" y="473.962" type="line"/>
      <point x="309.662" y="504.685" type="line"/>
      <point x="239.265" y="578.785" type="line"/>
      <point x="200.399" y="605.378" type="line"/>
      <point x="193.712" y="600.52" type="line"/>
      <point x="206.904" y="555.273" type="line"/>
      <point x="256.267" y="465.891" type="line"/>
    </contour>
    <contour>
      <point x="96.766" y="473.581" type="line"/>
      <point x="131.693" y="465.51" type="line"/>
      <point x="180.412" y="555.36" type="line"/>
      <point x="193.693" y="600.541" type="line"/>
      <point x="187.007" y="605.4" type="line"/>
      <point x="148.051" y="578.871" type="line"/>
      <point x="78.297" y="504.304" type="line"/>
    </contour>
    <contour>
      <point x="36.334" y="658.326" type="line"/>
      <point x="39.451" y="622.615" type="line"/>
      <point x="139.958" y="604.045" type="line"/>
      <point x="187.032" y="605.376" type="line"/>
      <point x="189.587" y="613.236" type="line"/>
      <point x="152.319" y="642.088" type="line"/>
      <point x="59.846" y="685.384" type="line"/>
    </contour>
    <contour>
      <point x="193.503" y="772.831" type="line"/>
      <point x="160.503" y="758.831" type="line"/>
      <point x="173.901" y="657.505" type="line"/>
      <point x="189.713" y="613.145" type="line"/>
      <point x="197.978" y="613.145" type="line"/>
      <point x="213.901" y="657.505" type="line"/>
      <point x="226.503" y="758.831" type="line"/>
    </contour>
    <contour>
      <point x="350.948" y="658.921" type="line"/>
      <point x="327.436" y="685.98" type="line"/>
      <point x="235.209" y="641.926" type="line"/>
      <point x="197.907" y="613.18" type="line"/>
      <point x="200.461" y="605.319" type="line"/>
      <point x="247.57" y="603.884" type="line"/>
      <point x="347.831" y="623.21" type="line"/>
    </contour>
    <contour>
      <point x="197.482" y="613.733" type="line"/>
      <point x="191.287" y="613.613" type="line"/>
      <point x="188.23" y="612.929" type="line"/>
      <point x="186.782" y="607.458" type="line"/>
      <point x="187.184" y="604.562" type="line"/>
      <point x="191.609" y="600.7" type="line"/>
      <point x="191.649" y="600.7"/>
      <point x="193.728" y="600.539"/>
      <point x="194.787" y="600.458" type="curve"/>
      <point x="199.614" y="603.878" type="line"/>
      <point x="200.861" y="606.332" type="line"/>
      <point x="199.896" y="611.36" type="line"/>
    </contour>
  </outline>
</glyph>
<glyph name="plus" format="2">
  <advance width="481"/>
  <unicode hex="002B"/>
  <outline>
    <contour>
      <point x="40" y="332.253" type="line"/>
      <point x="40" y="287.253" type="line"/>
      <point x="441.723" y="287.253" type="line"/>
      <point x="441.723" y="332.253" type="line"/>
    </contour>
    <contour>
      <point x="218.362" y="108.891" type="line"/>
      <point x="263.362" y="108.891" type="line"/>
      <point x="263.362" y="510.614" type="line"/>
      <point x="218.362" y="510.614" type="line"/>
    </contour>
  </outline>
</glyph>
<glyph name="hyphen" format="2">
  <advance width="380"/>
  <unicode hex="002D"/>
  <outline>
    <contour>
      <point x="40" y="314" type="line"/>
      <point x="34" y="292" type="line"/>
      <point x="40" y="269" type="line"/>
      <point x="340" y="269" type="line"/>
      <point x="346" y="292" type="line"/>
      <point x="340" y="314" type="line"/>
    </contour>
  </outline>
</glyph>
<glyph name="period" format="2">
  <advance width="179"/>
  <unicode hex="002E"/>
  <outline>
    <contour>
      <point x="90" y="-4" type="curve" smooth="yes"/>
      <point x="114.853" y="-4"/>
      <point x="135" y="16.147"/>
      <point x="135" y="41" type="curve" smooth="yes"/>
      <point x="135" y="65.853"/>
      <point x="114.853" y="86"/>
      <point x="90" y="86" type="curve" smooth="yes"/>
      <point x="65.147" y="86"/>
      <point x="45" y="65.853"/>
      <point x="45" y="41" type="curve" smooth="yes"/>
      <point x="45" y="16.147"/>
      <point x="65.147" y="-4"/>
    </contour>
  </outline>
</glyph>
<glyph name="slash" format="2">
  <advance width="406"/>
  <unicode hex="002F"/>
  <unicode hex="2215"/>
  <outline>
    <contour>
      <point x="367.434" y="714" type="line"/>
      <point x="6.92" y="5.083" type="line"/>
      <point x="37.576" y="-14" type="line"/>
      <point x="398.514" y="696.502" type="line"/>
    </contour>
  </outline>
</glyph>
<glyph name="zero" format="2">
  <advance width="670"/>
  <unicode hex="0030"/>
  <outline>
    <contour>
      <point x="335" y="614" type="curve" smooth="yes"/>
      <point x="164" y="614"/>
      <point x="50" y="488"/>
      <point x="50" y="300" type="curve" smooth="yes"/>
      <point x="50" y="112"/>
      <point x="164" y="-14"/>
      <point x="335" y="-14" type="curve" smooth="yes"/>
      <point x="506" y="-14"/>
      <point x="620" y="112"/>
      <point x="620" y="300" type="curve" smooth="yes"/>
      <point x="620" y="488"/>
      <point x="506" y="614"/>
    </contour>
    <contour>
      <point x="335" y="584" type="curve" smooth="yes"/>
      <point x="464" y="584"/>
      <point x="550" y="470"/>
      <point x="550" y="300" type="curve" smooth="yes"/>
      <point x="550" y="130"/>
      <point x="464" y="16"/>
      <point x="335" y="16" type="curve"/>
      <point x="206" y="16"/>
      <point x="120" y="130"/>
      <point x="120" y="300" type="curve" smooth="yes"/>
      <point x="120" y="470"/>
      <point x="206" y="584"/>
    </contour>
  </outline>
</glyph>
<glyph name="one" format="2">
  <advance width="344"/>
  <unicode hex="0031"/>
  <outline>
    <contour>
      <point x="208" y="596" type="line"/>
      <point x="143" y="596" type="line"/>
      <point x="143" y="64" type="line"/>
      <point x="143" y="34"/>
      <point x="119" y="10"/>
      <point x="89" y="10" type="curve" smooth="yes"/>
      <point x="68" y="10" type="line"/>
      <point x="67" y="0" type="line"/>
      <point x="284" y="0" type="line"/>
      <point x="284" y="10" type="line"/>
      <point x="263" y="10" type="line" smooth="yes"/>
      <point x="233" y="10"/>
      <point x="208" y="34"/>
      <point x="208" y="63" type="curve" smooth="yes"/>
    </contour>
    <contour>
      <point x="283" y="600" type="line"/>
      <point x="67" y="600" type="line"/>
      <point x="67" y="590" type="line"/>
      <point x="88" y="590" type="line" smooth="yes"/>
      <point x="118" y="590"/>
      <point x="143" y="566"/>
      <point x="143" y="537" type="curve"/>
      <point x="208" y="536" type="line"/>
      <point x="208" y="566"/>
      <point x="232" y="590"/>
      <point x="262" y="590" type="curve" smooth="yes"/>
      <point x="283" y="590" type="line"/>
    </contour>
  </outline>
</glyph>
<glyph name="two" format="2">
  <advance width="553"/>
  <unicode hex="0032"/>
  <outline>
    <contour>
      <point x="89.781" y="455.3" type="line"/>
      <point x="99.907" y="455.3" type="line"/>
      <point x="97.874" y="540.016"/>
      <point x="158.803" y="585.167"/>
      <point x="253" y="587" type="curve" smooth="yes"/>
      <point x="343.431" y="588.76"/>
      <point x="398.972" y="533.211"/>
      <point x="398.972" y="441.412" type="curve" smooth="yes"/>
      <point x="398.972" y="298.217"/>
      <point x="176.026" y="105.714"/>
      <point x="57.981" y="8.599" type="curve"/>
      <point x="57.981" y="0" type="line"/>
      <point x="473.032" y="0" type="line"/>
      <point x="521.234" y="130.47" type="line"/>
      <point x="511.107" y="130.47" type="line"/>
      <point x="475.481" y="75.369"/>
      <point x="452.806" y="56.264"/>
      <point x="392.623" y="56.264" type="curve"/>
      <point x="159.333" y="56.264" type="line"/>
      <point x="259.388" y="134.037"/>
      <point x="474.098" y="286.793"/>
      <point x="474.098" y="443.226" type="curve" smooth="yes"/>
      <point x="474.098" y="549.229"/>
      <point x="386.933" y="614"/>
      <point x="252.787" y="614" type="curve" smooth="yes"/>
      <point x="188.347" y="614"/>
      <point x="110.956" y="590.549"/>
      <point x="72.506" y="557.002" type="curve"/>
    </contour>
  </outline>
</glyph>
<glyph name="three" format="2">
  <advance width="503"/>
  <unicode hex="0033"/>
  <outline>
    <contour>
      <point x="217" y="612" type="curve" smooth="yes"/>
      <point x="138" y="608"/>
      <point x="93" y="577"/>
      <point x="61.089" y="540.966" type="curve"/>
      <point x="78.438" y="447.766" type="line"/>
      <point x="88.438" y="447.766" type="line"/>
      <point x="84" y="527"/>
      <point x="132" y="582"/>
      <point x="214.754" y="582.264" type="curve" smooth="yes"/>
      <point x="299" y="582"/>
      <point x="335" y="524"/>
      <point x="338" y="465" type="curve" smooth="yes"/>
      <point x="344" y="356"/>
      <point x="244" y="294"/>
      <point x="154.782" y="294.366" type="curve"/>
      <point x="152.959" y="284.366" type="line"/>
      <point x="272" y="284"/>
      <point x="358" y="232"/>
      <point x="358.359" y="118.601" type="curve" smooth="yes"/>
      <point x="358" y="-25"/>
      <point x="221" y="-126"/>
      <point x="62" y="-122" type="curve"/>
      <point x="60" y="-132" type="line"/>
      <point x="261" y="-167"/>
      <point x="433" y="-40"/>
      <point x="433.359" y="116.168" type="curve" smooth="yes"/>
      <point x="433" y="236"/>
      <point x="333" y="300"/>
      <point x="244.981" y="299.238" type="curve"/>
      <point x="318" y="279"/>
      <point x="414" y="366"/>
      <point x="414" y="463" type="curve" smooth="yes"/>
      <point x="414" y="550"/>
      <point x="338" y="618"/>
    </contour>
  </outline>
</glyph>
<glyph name="four" format="2">
  <advance width="583"/>
  <unicode hex="0034"/>
  <outline>
    <contour>
      <point x="350.646" y="514" type="line"/>
      <point x="350.646" y="-99" type="line"/>
      <point x="415.646" y="-99" type="line"/>
      <point x="415.646" y="614" type="line"/>
      <point x="406.281" y="614" type="line"/>
    </contour>
    <contour>
      <point x="406.281" y="614" type="line"/>
      <point x="40" y="158.763" type="line"/>
      <point x="40" y="148.763" type="line"/>
      <point x="502.797" y="148.763" type="line"/>
      <point x="523.797" y="223.763" type="line"/>
      <point x="513.797" y="223.763" type="line"/>
      <point x="501.797" y="209.867"/>
      <point x="495.992" y="203.763"/>
      <point x="459.154" y="203.763" type="curve"/>
      <point x="114.943" y="203.763" type="line"/>
      <point x="415.657" y="577" type="line"/>
    </contour>
    <contour>
      <point x="415.642" y="-36" type="curve"/>
      <point x="350.686" y="-36" type="line"/>
      <point x="350.686" y="-67"/>
      <point x="325.613" y="-90"/>
      <point x="295.469" y="-90" type="curve" smooth="yes"/>
      <point x="284.564" y="-90" type="line"/>
      <point x="284.425" y="-100" type="line"/>
      <point x="481.886" y="-100" type="line"/>
      <point x="481.747" y="-90" type="line"/>
      <point x="470.842" y="-90" type="line" smooth="yes"/>
      <point x="440.917" y="-90"/>
      <point x="415.642" y="-66"/>
    </contour>
  </outline>
</glyph>
<glyph name="five" format="2">
  <advance width="498"/>
  <unicode hex="0035"/>
  <outline>
    <contour>
      <point x="388.907" y="524" type="line"/>
      <point x="422.315" y="629" type="line"/>
      <point x="412.315" y="629" type="line"/>
      <point x="396.98" y="599.101"/>
      <point x="374.621" y="579"/>
      <point x="332.919" y="579" type="curve"/>
      <point x="135.427" y="564" type="line"/>
      <point x="56.981" y="292.7" type="line"/>
      <point x="65.981" y="288.7" type="line"/>
      <point x="229.879" y="344.08"/>
      <point x="357.303" y="280.769"/>
      <point x="347.827" y="146.198" type="curve" smooth="yes"/>
      <point x="334.925" y="-37"/>
      <point x="136.364" y="-123"/>
      <point x="52" y="-121" type="curve"/>
      <point x="50" y="-131" type="line"/>
      <point x="133.185" y="-146"/>
      <point x="412.827" y="-89"/>
      <point x="422.827" y="153.749" type="curve" smooth="yes"/>
      <point x="429.979" y="327.34"/>
      <point x="275.009" y="393.397"/>
      <point x="108.095" y="350.931" type="curve"/>
      <point x="154.14" y="509" type="line"/>
    </contour>
  </outline>
</glyph>
<glyph name="seven" format="2">
  <advance width="502"/>
  <unicode hex="0037"/>
  <outline>
    <contour>
      <point x="35" y="485" type="line"/>
      <point x="63" y="598" type="line"/>
      <point x="463" y="600" type="line"/>
      <point x="355" y="310" type="line" smooth="yes"/>
      <point x="330" y="244"/>
      <point x="247" y="10"/>
      <point x="221" y="-100" type="curve"/>
      <point x="151" y="-100" type="line"/>
      <point x="191" y="2"/>
      <point x="272" y="204"/>
      <point x="314" y="314" type="curve" smooth="yes"/>
      <point x="402" y="545" type="line"/>
      <point x="120" y="545" type="line"/>
      <point x="80" y="545"/>
      <point x="60" y="525"/>
      <point x="45" y="485" type="curve"/>
    </contour>
  </outline>
</glyph>
<glyph name="eight" format="2">
  <advance width="552"/>
  <unicode hex="0038"/>
  <outline>
    <contour>
      <point x="95.954" y="546.601" type="curve" smooth="yes"/>
      <point x="96" y="447"/>
      <point x="171" y="378"/>
      <point x="271" y="326" type="curve" smooth="yes"/>
      <point x="334" y="293"/>
      <point x="417" y="264"/>
      <point x="417.035" y="161.393" type="curve" smooth="yes"/>
      <point x="417" y="88"/>
      <point x="374" y="16"/>
      <point x="277" y="16" type="curve" smooth="yes"/>
      <point x="188" y="16"/>
      <point x="134" y="76"/>
      <point x="135" y="171" type="curve" smooth="yes"/>
      <point x="136" y="261"/>
      <point x="187" y="319"/>
      <point x="248.162" y="355.924" type="curve"/>
      <point x="224.162" y="374.946" type="line"/>
      <point x="119" y="331"/>
      <point x="64" y="271"/>
      <point x="60" y="181" type="curve" smooth="yes"/>
      <point x="55" y="64"/>
      <point x="144" y="-14"/>
      <point x="276" y="-14" type="curve" smooth="yes"/>
      <point x="407" y="-14"/>
      <point x="492" y="63"/>
      <point x="492.035" y="175.02" type="curve" smooth="yes"/>
      <point x="492" y="321"/>
      <point x="348" y="360"/>
      <point x="274" y="403" type="curve" smooth="yes"/>
      <point x="208" y="441"/>
      <point x="171" y="493"/>
      <point x="170.954" y="559.626" type="curve" smooth="yes"/>
      <point x="171" y="627"/>
      <point x="209" y="684"/>
      <point x="277" y="684" type="curve" smooth="yes"/>
      <point x="341" y="684"/>
      <point x="381" y="633"/>
      <point x="380.682" y="553.053" type="curve" smooth="yes"/>
      <point x="381" y="491"/>
      <point x="356" y="429"/>
      <point x="280.952" y="380.142" type="curve"/>
      <point x="307.707" y="364.923" type="line"/>
      <point x="403" y="389"/>
      <point x="456" y="457"/>
      <point x="455.682" y="545.197" type="curve" smooth="yes"/>
      <point x="456" y="653"/>
      <point x="379" y="716"/>
      <point x="276" y="714" type="curve" smooth="yes"/>
      <point x="164" y="712"/>
      <point x="96" y="641"/>
    </contour>
  </outline>
</glyph>
<glyph name="less" format="2">
  <advance width="481"/>
  <unicode hex="003C"/>
  <outline>
    <contour>
      <point x="442" y="475" type="line"/>
      <point x="442" y="523" type="line"/>
      <point x="40" y="332" type="line"/>
      <point x="40" y="287" type="line"/>
      <point x="442" y="96" type="line"/>
      <point x="442" y="144" type="line"/>
      <point x="56" y="331" type="line"/>
      <point x="55" y="288" type="line"/>
    </contour>
  </outline>
</glyph>
<glyph name="at" format="2">
  <advance width="977"/>
  <unicode hex="0040"/>
  <guideline x="546.814" y="82.733" angle="180"/>
  <outline>
    <contour>
      <point x="616.854" y="687.531" type="curve" smooth="yes"/>
      <point x="376.821" y="718.747"/>
      <point x="175.826" y="596.818"/>
      <point x="90.803" y="394.938" type="curve" smooth="yes"/>
      <point x="16.136" y="217.647"/>
      <point x="82.373" y="72.008"/>
      <point x="191.3" y="72.83" type="curve" smooth="yes"/>
      <point x="272.818" y="73.446"/>
      <point x="331.761" y="156.828"/>
      <point x="421.232" y="284.345" type="curve" smooth="yes"/>
      <point x="565.122" y="489.421" type="line"/>
      <point x="578.798" y="540.909" type="line"/>
      <point x="572.078" y="540.909" type="line"/>
      <point x="563.701" y="521.388"/>
      <point x="517.343" y="464.049"/>
      <point x="517.343" y="464.049" type="curve"/>
      <point x="390.285" y="291.002" type="line" smooth="yes"/>
      <point x="338.903" y="221.022"/>
      <point x="266.257" y="101.822"/>
      <point x="191.3" y="102.83" type="curve" smooth="yes"/>
      <point x="105.987" y="103.978"/>
      <point x="90.952" y="244.661"/>
      <point x="155.803" y="390.319" type="curve" smooth="yes"/>
      <point x="240.941" y="581.539"/>
      <point x="416.24" y="683.854"/>
      <point x="616.854" y="657.531" type="curve" smooth="yes"/>
      <point x="779.048" y="636.249"/>
      <point x="872.531" y="498.826"/>
      <point x="849.705" y="309.049" type="curve" smooth="yes"/>
      <point x="813.174" y="5.331"/>
      <point x="542.943" y="-191"/>
      <point x="190.337" y="-53" type="curve"/>
      <point x="194.337" y="-63" type="line"/>
      <point x="625.761" y="-246"/>
      <point x="882.401" y="23.133"/>
      <point x="914.705" y="309.049" type="curve" smooth="yes"/>
      <point x="936.562" y="502.5"/>
      <point x="818.379" y="661.323"/>
    </contour>
    <contour>
      <point x="561.44" y="256.601" type="line"/>
      <point x="373.229" y="256.601" type="line"/>
      <point x="365.334" y="234.215" type="line"/>
      <point x="553.545" y="234.215" type="line"/>
    </contour>
    <contour>
      <point x="619.995" y="137.216" type="curve"/>
      <point x="555.227" y="136.959" type="line"/>
      <point x="555.885" y="107.098"/>
      <point x="530.436" y="90.128"/>
      <point x="513.829" y="90.128" type="curve" smooth="yes"/>
      <point x="506.869" y="90.128" type="line"/>
      <point x="505.565" y="82.733" type="line"/>
      <point x="663.737" y="82.733" type="line"/>
      <point x="665.052" y="90.195" type="line"/>
      <point x="665.052" y="90.195"/>
      <point x="658.623" y="90.195"/>
      <point x="659.939" y="90.195" type="curve" smooth="yes"/>
      <point x="640.224" y="90.195"/>
      <point x="622.767" y="103.973"/>
    </contour>
    <contour>
      <point x="578.798" y="540.909" type="line"/>
      <point x="536.994" y="470.296" type="line"/>
      <point x="557.847" y="87.281" type="line"/>
      <point x="625.242" y="87.281" type="line"/>
    </contour>
  </outline>
</glyph>
<glyph name="A" format="2">
  <advance width="712"/>
  <unicode hex="0041"/>
  <guideline x="744.412" y="-14" angle="0"/>
  <guideline x="734.412" y="714" angle="0"/>
  <anchor x="570.72" y="10" name="ogonek"/>
  <anchor x="366.664" y="774" name="top"/>
  <outline>
    <contour>
      <point x="144.486" y="72.681" type="curve"/>
      <point x="86.66" y="73.013" type="line"/>
      <point x="66.448" y="28.464"/>
      <point x="29.438" y="10"/>
      <point x="-1" y="10" type="curve" smooth="yes"/>
      <point x="-1" y="10"/>
      <point x="-10" y="10"/>
      <point x="-10" y="10" type="curve"/>
      <point x="-10" y="0" type="line"/>
      <point x="191.278" y="0" type="line"/>
      <point x="191.278" y="9.908" type="line"/>
      <point x="182.486" y="9.908" type="line" smooth="yes"/>
      <point x="156.669" y="9.908"/>
      <point x="129.884" y="32.663"/>
    </contour>
    <contour>
      <point x="371.05" y="655.019" type="line"/>
      <point x="339.969" y="682.013" type="line"/>
      <point x="57.19" y="3.095" type="line"/>
      <point x="117.233" y="3.095" type="line"/>
    </contour>
    <contour>
      <point x="519.513" y="281" type="line"/>
      <point x="187.293" y="281" type="line"/>
      <point x="187.293" y="251" type="line"/>
      <point x="519.513" y="251" type="line"/>
    </contour>
    <contour>
      <point x="118.292" y="733.835" type="curve"/>
      <point x="121.116" y="723.731" type="line"/>
      <point x="295.958" y="786.991"/>
      <point x="356.968" y="638.08"/>
      <point x="398.898" y="514.257" type="curve" smooth="yes"/>
      <point x="526.795" y="136.563" type="line" smooth="yes"/>
      <point x="628.301" y="-163"/>
      <point x="787.584" y="-259"/>
      <point x="945.159" y="-201" type="curve"/>
      <point x="944.334" y="-191" type="line"/>
      <point x="762.577" y="-230"/>
      <point x="650.906" y="-5"/>
      <point x="594.487" y="155.212" type="curve" smooth="yes"/>
      <point x="472.472" y="500.821" type="line" smooth="yes"/>
      <point x="422.78" y="641.574"/>
      <point x="352.599" y="833.043"/>
    </contour>
  </outline>
</glyph>
<glyph name="B" format="2">
  <advance width="594"/>
  <unicode hex="0042"/>
  <outline>
    <contour>
      <point x="149.944" y="700" type="line" smooth="yes"/>
      <point x="149.944" y="700"/>
      <point x="159.996" y="669.483"/>
      <point x="159.996" y="667.949" type="curve"/>
      <point x="212.509" y="667.818" type="line"/>
      <point x="305.333" y="668"/>
      <point x="358.333" y="629"/>
      <point x="358.333" y="536" type="curve" smooth="yes"/>
      <point x="358.333" y="434"/>
      <point x="293.333" y="399"/>
      <point x="233.349" y="399.222" type="curve"/>
      <point x="233.577" y="389.81" type="line"/>
      <point x="330.333" y="390"/>
      <point x="479.333" y="362"/>
      <point x="479.333" y="208" type="curve" smooth="yes"/>
      <point x="479.333" y="102"/>
      <point x="408.333" y="22"/>
      <point x="274.518" y="22.47" type="curve" smooth="yes"/>
      <point x="138.68" y="22.47"/>
      <point x="34.617" y="61.851"/>
      <point x="11.148" y="238.469" type="curve"/>
      <point x="0.148" y="236.469" type="line"/>
      <point x="-5" y="68"/>
      <point x="108.333" y="-14"/>
      <point x="271.333" y="-14" type="curve" smooth="yes"/>
      <point x="440.333" y="-14"/>
      <point x="554.333" y="73"/>
      <point x="554.333" y="203" type="curve" smooth="yes"/>
      <point x="554.333" y="306"/>
      <point x="488.333" y="388"/>
      <point x="353.637" y="408.237" type="curve"/>
      <point x="401.333" y="426"/>
      <point x="433.333" y="475"/>
      <point x="433.333" y="538" type="curve" smooth="yes"/>
      <point x="433.333" y="640"/>
      <point x="349.333" y="700"/>
      <point x="226.128" y="700" type="curve" smooth="yes"/>
    </contour>
    <contour>
      <point x="199.647" y="700" type="line"/>
      <point x="134.53" y="700" type="line"/>
      <point x="134.53" y="25" type="line"/>
      <point x="199.647" y="25" type="line"/>
    </contour>
    <contour>
      <point x="137.459" y="627.195" type="line"/>
      <point x="137.459" y="700.06" type="line"/>
      <point x="57.685" y="700.06" type="line"/>
      <point x="57.846" y="690.06" type="line"/>
      <point x="60.333" y="690"/>
      <point x="68.333" y="690"/>
      <point x="70.333" y="690" type="curve" smooth="yes"/>
      <point x="103.333" y="690"/>
      <point x="133.333" y="665"/>
      <point x="134.55" y="627.195" type="curve"/>
    </contour>
  </outline>
</glyph>
<glyph name="C" format="2">
  <advance width="821"/>
  <unicode hex="0043"/>
  <anchor x="443.068" y="-9.388" name="bottom"/>
  <anchor x="442.19" y="764" name="top"/>
  <outline>
    <contour>
      <point x="796.167" y="374.886" type="curve"/>
      <point x="786.167" y="374.85" type="line"/>
      <point x="786" y="149"/>
      <point x="646" y="16"/>
      <point x="448" y="16" type="curve" smooth="yes"/>
      <point x="251" y="16"/>
      <point x="120" y="164"/>
      <point x="120" y="353" type="curve" smooth="yes"/>
      <point x="120" y="542"/>
      <point x="252" y="684"/>
      <point x="430" y="684" type="curve" smooth="yes"/>
      <point x="547" y="684"/>
      <point x="666" y="622"/>
      <point x="696.378" y="505.264" type="curve"/>
      <point x="704.701" y="505.232" type="line"/>
      <point x="684.525" y="646.468" type="line"/>
      <point x="623" y="687"/>
      <point x="520" y="714"/>
      <point x="429" y="714" type="curve" smooth="yes"/>
      <point x="209" y="714"/>
      <point x="45" y="558"/>
      <point x="45" y="351" type="curve" smooth="yes"/>
      <point x="45" y="144"/>
      <point x="210" y="-14"/>
      <point x="443" y="-14" type="curve" smooth="yes"/>
      <point x="663" y="-14"/>
      <point x="805" y="116"/>
    </contour>
  </outline>
</glyph>
<glyph name="D" format="2">
  <advance width="838"/>
  <unicode hex="0044"/>
  <anchor x="436.243" y="350" name="center"/>
  <anchor x="420.243" y="764" name="top"/>
  <outline>
    <contour>
      <point x="222.983" y="699.975" type="line"/>
      <point x="157.862" y="699.975" type="line"/>
      <point x="157.862" y="0.057" type="line"/>
      <point x="222.983" y="0.057" type="line"/>
    </contour>
    <contour>
      <point x="161.126" y="0.057" type="line"/>
      <point x="161.126" y="72.921" type="line"/>
      <point x="158.217" y="72.921" type="line"/>
      <point x="157.561" y="38.087"/>
      <point x="129.164" y="10.037"/>
      <point x="94.163" y="10.037" type="curve" smooth="yes"/>
      <point x="94.011" y="10.037"/>
      <point x="81.67" y="10.057"/>
      <point x="81.513" y="10.057" type="curve"/>
      <point x="81.351" y="0.057" type="line"/>
    </contour>
    <contour>
      <point x="419.536" y="0" type="line" smooth="yes"/>
      <point x="633.129" y="0"/>
      <point x="778.678" y="139.879"/>
      <point x="778.678" y="350.054" type="curve" smooth="yes"/>
      <point x="778.678" y="559.811"/>
      <point x="633.08" y="695.112"/>
      <point x="419.536" y="699.706" type="curve" smooth="yes"/>
      <point x="331.459" y="701.601"/>
      <point x="257.026" y="703.773"/>
      <point x="194.213" y="702.682" type="curve" smooth="yes"/>
      <point x="24.994" y="699.742"/>
      <point x="-60" y="673.117"/>
      <point x="-100" y="553.583" type="curve"/>
      <point x="-89" y="549.583" type="line"/>
      <point x="-53" y="616.789"/>
      <point x="-9" y="674.618"/>
      <point x="205.016" y="670.35" type="curve" smooth="yes"/>
      <point x="230.092" y="669.85"/>
      <point x="419.536" y="669.323"/>
      <point x="419.536" y="669.323" type="curve" smooth="yes"/>
      <point x="590.94" y="669.323"/>
      <point x="703.678" y="541.615"/>
      <point x="703.678" y="350.054" type="curve" smooth="yes"/>
      <point x="703.678" y="157.913"/>
      <point x="589.94" y="29.819"/>
      <point x="419.536" y="29.819" type="curve"/>
      <point x="419.536" y="29.819"/>
      <point x="195.531" y="29.832"/>
      <point x="195.125" y="29.832" type="curve"/>
      <point x="195.125" y="0" type="line"/>
    </contour>
  </outline>
</glyph>
<glyph name="E" format="2">
  <advance width="607"/>
  <unicode hex="0045"/>
  <anchor x="288.313" y="0" name="bottom"/>
  <anchor x="490.935" y="3" name="ogonek"/>
  <anchor x="248.313" y="764" name="top"/>
  <outline>
    <contour>
      <point x="201.901" y="700" type="line"/>
      <point x="136.869" y="700" type="line"/>
      <point x="136.869" y="0" type="line"/>
      <point x="201.901" y="0" type="line"/>
    </contour>
    <contour>
      <point x="541.857" y="30.59" type="line"/>
      <point x="199.082" y="30.59" type="line"/>
      <point x="199.082" y="0" type="line"/>
      <point x="541.857" y="0" type="line"/>
    </contour>
    <contour>
      <point x="450.032" y="360.218" type="line"/>
      <point x="199.082" y="360.218" type="line"/>
      <point x="199.082" y="330.218" type="line"/>
      <point x="450.032" y="330.218" type="line"/>
    </contour>
    <contour>
      <point x="381.797" y="700" type="line"/>
      <point x="199.082" y="700" type="line"/>
      <point x="199.082" y="669.409" type="line" smooth="yes"/>
      <point x="381.797" y="669.409" type="line"/>
    </contour>
    <contour>
      <point x="602.845" y="161.543" type="line"/>
      <point x="592.845" y="161.543" type="line"/>
      <point x="561.976" y="85.405"/>
      <point x="521.283" y="30.592"/>
      <point x="415.32" y="30.592" type="curve"/>
      <point x="379.016" y="0" type="line"/>
      <point x="544.557" y="0" type="line"/>
    </contour>
    <contour>
      <point x="450.032" y="332.487" type="line"/>
      <point x="391.904" y="332.487" type="line"/>
      <point x="391.904" y="330.249" type="line"/>
      <point x="418.698" y="329.745"/>
      <point x="440.275" y="307.901"/>
      <point x="440.275" y="280.977" type="curve" smooth="yes"/>
      <point x="440.259" y="266.243" type="line"/>
      <point x="450.032" y="266.119" type="line"/>
    </contour>
    <contour>
      <point x="450.032" y="424.375" type="line"/>
      <point x="440.259" y="424.25" type="line"/>
      <point x="440.276" y="409.516" type="line" smooth="yes"/>
      <point x="440.276" y="382.593"/>
      <point x="418.698" y="360.753"/>
      <point x="391.904" y="360.248" type="curve"/>
      <point x="391.904" y="358.012" type="line"/>
      <point x="450.032" y="358.012" type="line"/>
    </contour>
    <contour>
      <point x="381.846" y="672.218" type="line"/>
      <point x="313.236" y="672.218" type="line"/>
      <point x="313.236" y="669.51" type="line"/>
      <point x="345.66" y="668.9"/>
      <point x="371.765" y="642.468"/>
      <point x="371.765" y="609.891" type="curve" smooth="yes"/>
      <point x="371.746" y="592.067" type="line"/>
      <point x="381.846" y="591.917" type="line"/>
    </contour>
    <contour>
      <point x="381.811" y="718.187" type="line"/>
      <point x="362.862" y="710.201"/>
      <point x="303.24" y="699.987"/>
      <point x="259.88" y="699.987" type="curve"/>
      <point x="381.811" y="688.909" type="line"/>
    </contour>
    <contour>
      <point x="139.775" y="72.864" type="line"/>
      <point x="136.865" y="72.864" type="line"/>
      <point x="136.21" y="38.029"/>
      <point x="107.813" y="9.979"/>
      <point x="72.811" y="9.979" type="curve" smooth="yes"/>
      <point x="72.659" y="9.979"/>
      <point x="60.318" y="10"/>
      <point x="60.161" y="10" type="curve"/>
      <point x="60" y="0" type="line"/>
      <point x="139.775" y="0" type="line"/>
    </contour>
    <contour>
      <point x="140.126" y="627.196" type="line"/>
      <point x="140.126" y="700.06" type="line"/>
      <point x="60.351" y="700.06" type="line"/>
      <point x="60.513" y="690.06" type="line"/>
      <point x="60.67" y="690.06"/>
      <point x="73.011" y="690.08"/>
      <point x="73.163" y="690.08" type="curve" smooth="yes"/>
      <point x="108.164" y="690.08"/>
      <point x="136.561" y="662.03"/>
      <point x="137.217" y="627.196" type="curve"/>
    </contour>
  </outline>
</glyph>
<glyph name="F" format="2">
  <advance width="579"/>
  <unicode hex="0046"/>
  <outline>
    <contour>
      <point x="201.901" y="700" type="line"/>
      <point x="136.869" y="700" type="line" smooth="yes"/>
      <point x="136.869" y="0" type="line"/>
      <point x="201.901" y="0" type="line"/>
    </contour>
    <contour>
      <point x="579.032" y="360.218" type="line"/>
      <point x="169.082" y="360.218" type="line"/>
      <point x="169.082" y="330.218" type="line"/>
      <point x="579.032" y="330.218" type="line"/>
    </contour>
    <contour>
      <point x="471.797" y="700" type="line"/>
      <point x="199.082" y="700" type="line"/>
      <point x="199.082" y="669.409" type="line" smooth="yes"/>
      <point x="471.797" y="669.409" type="line"/>
    </contour>
    <contour>
      <point x="579.032" y="332.487" type="line"/>
      <point x="520.904" y="332.487" type="line"/>
      <point x="520.904" y="330.249" type="line"/>
      <point x="547.698" y="329.745"/>
      <point x="569.275" y="307.901"/>
      <point x="569.275" y="280.977" type="curve" smooth="yes"/>
      <point x="569.259" y="266.243" type="line"/>
      <point x="579.032" y="266.119" type="line"/>
    </contour>
    <contour>
      <point x="579.032" y="424.375" type="line"/>
      <point x="569.259" y="424.25" type="line"/>
      <point x="569.276" y="409.516" type="line" smooth="yes"/>
      <point x="569.276" y="382.593"/>
      <point x="547.698" y="360.753"/>
      <point x="520.904" y="360.248" type="curve"/>
      <point x="520.904" y="358.012" type="line"/>
      <point x="579.032" y="358.012" type="line"/>
    </contour>
    <contour>
      <point x="471.811" y="671.625" type="line"/>
      <point x="413.456" y="671.625" type="line"/>
      <point x="413.456" y="669.387" type="line"/>
      <point x="440.253" y="668.883"/>
      <point x="461.827" y="647.038"/>
      <point x="461.827" y="620.115" type="curve" smooth="yes"/>
      <point x="461.811" y="605.384" type="line"/>
      <point x="471.811" y="605.26" type="line"/>
    </contour>
    <contour>
      <point x="471.811" y="718.187" type="line"/>
      <point x="452.862" y="710.201"/>
      <point x="393.24" y="699.987"/>
      <point x="349.88" y="699.987" type="curve"/>
      <point x="471.811" y="688.909" type="line"/>
    </contour>
    <contour>
      <point x="139.775" y="72.864" type="line"/>
      <point x="136.865" y="72.864" type="line"/>
      <point x="136.21" y="38.029"/>
      <point x="107.813" y="9.979"/>
      <point x="72.811" y="9.979" type="curve" smooth="yes"/>
      <point x="72.659" y="9.979"/>
      <point x="60.318" y="10"/>
      <point x="60.161" y="10" type="curve"/>
      <point x="60" y="0" type="line"/>
      <point x="139.775" y="0" type="line"/>
    </contour>
    <contour>
      <point x="140.126" y="627.196" type="line"/>
      <point x="140.126" y="700.06" type="line"/>
      <point x="60.351" y="700.06" type="line"/>
      <point x="60.513" y="690.06" type="line"/>
      <point x="60.67" y="690.06"/>
      <point x="73.011" y="690.08"/>
      <point x="73.163" y="690.08" type="curve" smooth="yes"/>
      <point x="108.164" y="690.08"/>
      <point x="136.561" y="662.03"/>
      <point x="137.217" y="627.196" type="curve"/>
    </contour>
    <contour>
      <point x="199.007" y="72.864" type="line"/>
      <point x="199.007" y="0" type="line"/>
      <point x="278.782" y="0" type="line"/>
      <point x="278.621" y="10" type="line"/>
      <point x="278.464" y="10"/>
      <point x="266.123" y="9.979"/>
      <point x="265.971" y="9.979" type="curve" smooth="yes"/>
      <point x="230.969" y="9.979"/>
      <point x="202.572" y="38.029"/>
      <point x="201.917" y="72.864" type="curve"/>
    </contour>
  </outline>
</glyph>
<glyph name="G" format="2">
  <advance width="846"/>
  <unicode hex="0047"/>
  <anchor x="449" y="-64" name="bottom"/>
  <anchor x="449" y="764" name="top"/>
  <outline>
    <contour>
      <point x="449" y="714" type="curve" smooth="yes"/>
      <point x="227" y="714"/>
      <point x="60" y="563"/>
      <point x="60" y="350.002" type="curve" smooth="yes"/>
      <point x="60" y="142"/>
      <point x="227" y="-13"/>
      <point x="449" y="-14" type="curve" smooth="yes"/>
      <point x="600" y="-14"/>
      <point x="693" y="54"/>
      <point x="739" y="115" type="curve"/>
      <point x="739" y="280" type="line"/>
      <point x="738" y="309"/>
      <point x="756" y="325"/>
      <point x="789" y="325" type="curve" smooth="yes"/>
      <point x="804" y="325" type="line"/>
      <point x="804" y="335" type="line"/>
      <point x="608" y="335" type="line"/>
      <point x="608" y="325" type="line"/>
      <point x="624" y="325" type="line" smooth="yes"/>
      <point x="656" y="325"/>
      <point x="674" y="309"/>
      <point x="674" y="280" type="curve"/>
      <point x="674" y="103" type="line"/>
      <point x="618" y="49"/>
      <point x="536" y="16"/>
      <point x="449" y="16" type="curve" smooth="yes"/>
      <point x="270" y="17"/>
      <point x="135" y="159"/>
      <point x="135" y="350" type="curve" smooth="yes"/>
      <point x="135" y="546"/>
      <point x="270" y="684"/>
      <point x="449" y="684" type="curve" smooth="yes"/>
      <point x="581" y="684"/>
      <point x="673" y="620"/>
      <point x="703" y="505" type="curve"/>
      <point x="712" y="505" type="line"/>
      <point x="692" y="646" type="line"/>
      <point x="633" y="684"/>
      <point x="559" y="714"/>
    </contour>
    <contour>
      <point x="739" y="126" type="curve"/>
      <point x="674" y="123" type="line"/>
      <point x="682" y="-97"/>
      <point x="863" y="-234"/>
      <point x="1117" y="-149" type="curve"/>
      <point x="1116" y="-139" type="line"/>
      <point x="880.992" y="-177"/>
      <point x="748" y="-86"/>
    </contour>
  </outline>
</glyph>
<glyph name="H" format="2">
  <advance width="813"/>
  <unicode hex="0048"/>
  <anchor x="418" y="350" name="center"/>
  <anchor x="418" y="700" name="top"/>
  <outline>
    <contour>
      <point x="151" y="627" type="line"/>
      <point x="151" y="700" type="line"/>
      <point x="72" y="700" type="line"/>
      <point x="72" y="690" type="line"/>
      <point x="72" y="690"/>
      <point x="84" y="690"/>
      <point x="84" y="690" type="curve" smooth="yes"/>
      <point x="119" y="690"/>
      <point x="148" y="662"/>
      <point x="148" y="627" type="curve"/>
    </contour>
    <contour>
      <point x="213" y="700" type="line"/>
      <point x="148" y="700" type="line"/>
      <point x="148" y="70" type="line" smooth="yes"/>
      <point x="148" y="-50"/>
      <point x="119" y="-111"/>
      <point x="60" y="-142" type="curve"/>
      <point x="65" y="-151" type="line"/>
      <point x="156" y="-130"/>
      <point x="213" y="-82"/>
      <point x="213" y="70" type="curve" smooth="yes"/>
    </contour>
    <contour>
      <point x="210" y="627" type="line"/>
      <point x="213" y="627" type="line"/>
      <point x="214" y="662"/>
      <point x="242" y="690"/>
      <point x="277" y="690" type="curve" smooth="yes"/>
      <point x="278" y="690"/>
      <point x="290" y="690"/>
      <point x="290" y="690" type="curve"/>
      <point x="290" y="700" type="line"/>
      <point x="210" y="700" type="line"/>
    </contour>
    <contour>
      <point x="632" y="361" type="line"/>
      <point x="203" y="361" type="line"/>
      <point x="203" y="331" type="line"/>
      <point x="632" y="331" type="line"/>
    </contour>
    <contour>
      <point x="602" y="73" type="line"/>
      <point x="600" y="73" type="line"/>
      <point x="599" y="38"/>
      <point x="571" y="10"/>
      <point x="536" y="10" type="curve" smooth="yes"/>
      <point x="535" y="10"/>
      <point x="523" y="10"/>
      <point x="523" y="10" type="curve"/>
      <point x="523" y="0" type="line"/>
      <point x="602" y="0" type="line"/>
    </contour>
    <contour>
      <point x="599" y="0" type="line"/>
      <point x="664" y="0" type="line"/>
      <point x="665" y="610" type="line" smooth="yes"/>
      <point x="666" y="730"/>
      <point x="695" y="791"/>
      <point x="754" y="822" type="curve"/>
      <point x="749" y="831" type="line"/>
      <point x="657" y="810"/>
      <point x="601" y="762"/>
      <point x="600" y="610" type="curve" smooth="yes"/>
    </contour>
    <contour>
      <point x="662" y="73" type="line"/>
      <point x="662" y="0" type="line"/>
      <point x="741" y="0" type="line"/>
      <point x="741" y="10" type="line"/>
      <point x="741" y="10"/>
      <point x="729" y="10"/>
      <point x="729" y="10" type="curve" smooth="yes"/>
      <point x="694" y="10"/>
      <point x="665" y="38"/>
      <point x="665" y="73" type="curve"/>
    </contour>
  </outline>
</glyph>
<glyph name="I" format="2">
  <advance width="393"/>
  <unicode hex="0049"/>
  <anchor x="193.11" y="3" name="ogonek"/>
  <anchor x="224.368" y="764" name="top"/>
  <outline>
    <contour>
      <point x="256.982" y="700" type="line"/>
      <point x="191.935" y="700" type="line"/>
      <point x="191.935" y="0" type="line"/>
      <point x="256.982" y="0" type="line"/>
    </contour>
    <contour>
      <point x="194.837" y="72.864" type="line"/>
      <point x="191.927" y="72.864" type="line"/>
      <point x="191.272" y="38.029"/>
      <point x="162.875" y="9.979"/>
      <point x="127.873" y="9.979" type="curve" smooth="yes"/>
      <point x="127.721" y="9.979"/>
      <point x="115.38" y="10"/>
      <point x="115.223" y="10" type="curve"/>
      <point x="115.062" y="0" type="line"/>
      <point x="194.837" y="0" type="line"/>
    </contour>
    <contour>
      <point x="254.074" y="72.864" type="line"/>
      <point x="254.074" y="0" type="line"/>
      <point x="333.849" y="0" type="line"/>
      <point x="333.688" y="10" type="line"/>
      <point x="333.531" y="10"/>
      <point x="321.19" y="9.979"/>
      <point x="321.038" y="9.979" type="curve" smooth="yes"/>
      <point x="286.036" y="9.979"/>
      <point x="257.639" y="38.029"/>
      <point x="256.984" y="72.864" type="curve"/>
    </contour>
    <contour>
      <point x="333.833" y="720.06" type="line"/>
      <point x="239.062" y="702"/>
      <point x="136.041" y="702.193"/>
      <point x="79.061" y="696" type="curve" smooth="yes"/>
      <point x="-13" y="686"/>
      <point x="-48" y="648"/>
      <point x="-50" y="601" type="curve" smooth="yes"/>
      <point x="-52" y="546.966"/>
      <point x="-5" y="505"/>
      <point x="56.686" y="521.398" type="curve"/>
      <point x="56.603" y="527.205" type="line"/>
      <point x="4.062" y="529"/>
      <point x="-19" y="560.782"/>
      <point x="-16" y="601" type="curve" smooth="yes"/>
      <point x="-13" y="645"/>
      <point x="25.061" y="663.325"/>
      <point x="84.923" y="666.865" type="curve" smooth="yes"/>
      <point x="254.058" y="676.865" type="line"/>
      <point x="254.058" y="617.196" type="line"/>
      <point x="256.967" y="617.196" type="line"/>
      <point x="256.967" y="668.867"/>
      <point x="274.714" y="700.42"/>
      <point x="335.671" y="710.06" type="curve"/>
    </contour>
  </outline>
</glyph>
<glyph name="J" format="2">
  <advance width="339"/>
  <unicode hex="004A"/>
  <anchor x="171" y="700" name="top"/>
  <outline>
    <contour>
      <point x="202" y="700" type="line"/>
      <point x="137" y="700" type="line"/>
      <point x="137" y="83" type="line" smooth="yes"/>
      <point x="137" y="-142"/>
      <point x="-6" y="-160"/>
      <point x="-80" y="-135" type="curve"/>
      <point x="-84" y="-146" type="line"/>
      <point x="7" y="-188"/>
      <point x="202" y="-160"/>
      <point x="202" y="80" type="curve" smooth="yes"/>
    </contour>
    <contour>
      <point x="140" y="627" type="line"/>
      <point x="140" y="700" type="line"/>
      <point x="60" y="700" type="line"/>
      <point x="60" y="690" type="line"/>
      <point x="60" y="690"/>
      <point x="73" y="690"/>
      <point x="73" y="690" type="curve" smooth="yes"/>
      <point x="108" y="690"/>
      <point x="136" y="662"/>
      <point x="137" y="627" type="curve"/>
    </contour>
    <contour>
      <point x="199" y="627" type="line"/>
      <point x="202" y="627" type="line"/>
      <point x="203" y="662"/>
      <point x="231" y="690"/>
      <point x="266" y="690" type="curve" smooth="yes"/>
      <point x="266" y="690"/>
      <point x="279" y="690"/>
      <point x="279" y="690" type="curve"/>
      <point x="279" y="700" type="line"/>
      <point x="199" y="700" type="line"/>
    </contour>
  </outline>
</glyph>
<glyph name="K" format="2">
  <advance width="669"/>
  <unicode hex="004B"/>
  <anchor x="391.306" y="-64" name="bottom"/>
  <anchor x="361.306" y="750" name="top"/>
  <outline>
    <contour>
      <point x="288.648" y="389.286" type="line"/>
      <point x="234.077" y="348.182" type="line"/>
      <point x="565.417" y="-5" type="line" smooth="yes"/>
      <point x="743.015" y="-194"/>
      <point x="892.915" y="-175"/>
      <point x="959.141" y="-160" type="curve"/>
      <point x="959.141" y="-150" type="line"/>
      <point x="836.159" y="-150"/>
      <point x="722.016" y="-74"/>
      <point x="642.143" y="11.619" type="curve" smooth="yes"/>
    </contour>
    <contour>
      <point x="577.581" y="692.968" type="line"/>
      <point x="509.047" y="692.968" type="line"/>
      <point x="234.077" y="348.182" type="line"/>
      <point x="278.81" y="348.182" type="line"/>
    </contour>
    <contour>
      <point x="647.413" y="700" type="line"/>
      <point x="643.033" y="700" type="line"/>
      <point x="436.186" y="700" type="line"/>
      <point x="436.186" y="691.157" type="line"/>
      <point x="445.85" y="691.164" type="line"/>
      <point x="473.477" y="691.164"/>
      <point x="487.087" y="665.949"/>
      <point x="469.644" y="643.547" type="curve"/>
      <point x="533.086" y="641.63" type="line"/>
      <point x="558.857" y="672.062"/>
      <point x="598.886" y="690.881"/>
      <point x="643.033" y="690.98" type="curve" smooth="yes"/>
      <point x="647.413" y="690.98" type="line"/>
    </contour>
    <contour>
      <point x="201.92" y="700" type="line"/>
      <point x="136.873" y="700" type="line"/>
      <point x="136.873" y="0" type="line"/>
      <point x="201.92" y="0" type="line"/>
    </contour>
    <contour>
      <point x="139.775" y="72.864" type="line"/>
      <point x="136.865" y="72.864" type="line"/>
      <point x="136.21" y="38.029"/>
      <point x="107.813" y="9.979"/>
      <point x="72.811" y="9.979" type="curve" smooth="yes"/>
      <point x="72.659" y="9.979"/>
      <point x="60.318" y="10"/>
      <point x="60.161" y="10" type="curve"/>
      <point x="60" y="0" type="line"/>
      <point x="139.775" y="0" type="line"/>
    </contour>
    <contour>
      <point x="139.791" y="627.196" type="line"/>
      <point x="139.791" y="700.06" type="line"/>
      <point x="60.016" y="700.06" type="line"/>
      <point x="60.178" y="690.06" type="line"/>
      <point x="60.335" y="690.06"/>
      <point x="72.676" y="690.08"/>
      <point x="72.828" y="690.08" type="curve" smooth="yes"/>
      <point x="107.829" y="690.08"/>
      <point x="136.226" y="662.03"/>
      <point x="136.882" y="627.196" type="curve"/>
    </contour>
    <contour>
      <point x="199.012" y="72.864" type="line"/>
      <point x="199.012" y="0" type="line"/>
      <point x="278.787" y="0" type="line"/>
      <point x="278.626" y="10" type="line"/>
      <point x="278.469" y="10"/>
      <point x="266.128" y="9.979"/>
      <point x="265.976" y="9.979" type="curve" smooth="yes"/>
      <point x="230.974" y="9.979"/>
      <point x="202.577" y="38.029"/>
      <point x="201.922" y="72.864" type="curve"/>
    </contour>
    <contour>
      <point x="198.996" y="627.196" type="line"/>
      <point x="201.905" y="627.196" type="line"/>
      <point x="202.561" y="662.03"/>
      <point x="230.958" y="690.08"/>
      <point x="265.959" y="690.08" type="curve" smooth="yes"/>
      <point x="266.111" y="690.08"/>
      <point x="278.452" y="690.06"/>
      <point x="278.609" y="690.06" type="curve"/>
      <point x="278.771" y="700.06" type="line"/>
      <point x="198.996" y="700.06" type="line"/>
    </contour>
  </outline>
</glyph>
<glyph name="L" format="2">
  <advance width="401"/>
  <unicode hex="004C"/>
  <anchor x="237.331" y="-110" name="bottom"/>
  <anchor x="169.562" y="764" name="top"/>
  <outline>
    <contour>
      <point x="139.775" y="627.077" type="line"/>
      <point x="139.775" y="699.941" type="line"/>
      <point x="60" y="699.941" type="line"/>
      <point x="60.162" y="689.941" type="line"/>
      <point x="60.319" y="689.941"/>
      <point x="72.66" y="689.961"/>
      <point x="72.812" y="689.961" type="curve" smooth="yes"/>
      <point x="107.813" y="689.961"/>
      <point x="136.21" y="661.911"/>
      <point x="136.866" y="627.077" type="curve"/>
    </contour>
    <contour>
      <point x="199.006" y="627.077" type="line"/>
      <point x="201.915" y="627.077" type="line"/>
      <point x="202.571" y="661.911"/>
      <point x="230.968" y="689.961"/>
      <point x="265.969" y="689.961" type="curve" smooth="yes"/>
      <point x="266.121" y="689.961"/>
      <point x="278.462" y="689.941"/>
      <point x="278.619" y="689.941" type="curve"/>
      <point x="278.781" y="699.941" type="line"/>
      <point x="199.006" y="699.941" type="line"/>
    </contour>
    <contour>
      <point x="926.212" y="-119" type="curve"/>
      <point x="921.213" y="-111" type="line"/>
      <point x="756" y="-174"/>
      <point x="658.335" y="-161"/>
      <point x="250" y="-19" type="curve" smooth="yes"/>
      <point x="202.807" y="-3"/>
      <point x="202" y="22"/>
      <point x="201.915" y="49.663" type="curve" smooth="yes"/>
      <point x="201.915" y="700" type="line"/>
      <point x="136.885" y="700" type="line"/>
      <point x="136.885" y="72.864" type="line" smooth="yes"/>
      <point x="136" y="37"/>
      <point x="107" y="10"/>
      <point x="73" y="10" type="curve" smooth="yes"/>
      <point x="71" y="10"/>
      <point x="62" y="10"/>
      <point x="60.176" y="10" type="curve"/>
      <point x="60.015" y="0" type="line"/>
      <point x="117.318" y="-1"/>
      <point x="175.847" y="-22"/>
      <point x="236.311" y="-49" type="curve" smooth="yes"/>
      <point x="436.484" y="-138"/>
      <point x="657.871" y="-304"/>
    </contour>
  </outline>
</glyph>
<glyph name="M" format="2">
  <advance width="931"/>
  <unicode hex="004D"/>
  <outline>
    <contour>
      <point x="741" y="714" type="line"/>
      <point x="444" y="49" type="line"/>
      <point x="458" y="-14" type="line"/>
      <point x="468" y="-14" type="line"/>
      <point x="474" y="27"/>
      <point x="502" y="88"/>
      <point x="502" y="88" type="curve"/>
      <point x="749" y="647" type="line"/>
    </contour>
    <contour>
      <point x="126" y="73" type="line"/>
      <point x="104" y="73" type="line"/>
      <point x="99" y="33"/>
      <point x="67" y="10"/>
      <point x="31" y="10" type="curve" smooth="yes"/>
      <point x="29" y="10"/>
      <point x="17" y="10"/>
      <point x="15" y="10" type="curve"/>
      <point x="15" y="0" type="line"/>
      <point x="126" y="0" type="line"/>
    </contour>
    <contour>
      <point x="155" y="57" type="curve"/>
      <point x="148" y="57" type="line"/>
      <point x="148" y="0" type="line"/>
      <point x="209" y="0" type="line"/>
      <point x="209" y="9" type="line"/>
      <point x="194" y="9" type="line" smooth="yes"/>
      <point x="175" y="9"/>
      <point x="155" y="28"/>
      <point x="155" y="52" type="curve" smooth="yes"/>
      <point x="155" y="56"/>
      <point x="154" y="53"/>
    </contour>
    <contour>
      <point x="172" y="658" type="line"/>
      <point x="96" y="0" type="line"/>
      <point x="150" y="0" type="line"/>
      <point x="209" y="655" type="line"/>
    </contour>
    <contour>
      <point x="-67" y="798" type="curve"/>
      <point x="-67" y="788" type="line"/>
      <point x="76" y="806"/>
      <point x="149" y="658"/>
      <point x="187" y="575" type="curve" smooth="yes"/>
      <point x="458" y="-14" type="line"/>
      <point x="481" y="91" type="line"/>
      <point x="231" y="633" type="line" smooth="yes"/>
      <point x="199" y="701"/>
      <point x="104" y="836"/>
    </contour>
    <contour>
      <point x="750" y="714" type="line"/>
      <point x="741" y="714" type="line"/>
      <point x="703" y="606" type="line"/>
      <point x="771" y="113" type="line" smooth="yes"/>
      <point x="794" y="-58"/>
      <point x="908" y="-202"/>
      <point x="1112" y="-172" type="curve"/>
      <point x="1112" y="-162" type="line"/>
      <point x="973" y="-168"/>
      <point x="872" y="-65"/>
      <point x="843" y="122" type="curve" smooth="yes"/>
    </contour>
  </outline>
</glyph>
<glyph name="N" format="2">
  <advance width="841"/>
  <unicode hex="004E"/>
  <anchor x="425.897" y="-64" name="bottom"/>
  <anchor x="425.897" y="764" name="top"/>
  <outline>
    <contour>
      <point x="-188" y="814.045" type="curve"/>
      <point x="-184" y="803.977" type="line"/>
      <point x="-23" y="850.774"/>
      <point x="81.727" y="667.682"/>
      <point x="137.716" y="605.781" type="curve" smooth="yes"/>
      <point x="698.082" y="-14" type="line" smooth="yes"/>
      <point x="788.058" y="-113"/>
      <point x="892.904" y="-203"/>
      <point x="1053.82" y="-152" type="curve"/>
      <point x="1050" y="-142" type="line"/>
      <point x="888.436" y="-173"/>
      <point x="783.502" y="-10"/>
      <point x="727.69" y="52.447" type="curve" smooth="yes"/>
      <point x="167.217" y="675.668" type="line" smooth="yes"/>
      <point x="77.392" y="775.549"/>
      <point x="-28" y="881.263"/>
    </contour>
    <contour>
      <point x="128.152" y="70.59" type="line"/>
      <point x="125.346" y="70.59" type="line"/>
      <point x="124.715" y="37.017"/>
      <point x="97.347" y="9.981"/>
      <point x="63.613" y="9.981" type="curve"/>
      <point x="45.155" y="10" type="line"/>
      <point x="45" y="0" type="line"/>
      <point x="128.152" y="0" type="line"/>
    </contour>
    <contour>
      <point x="170.637" y="70.59" type="curve"/>
      <point x="167.835" y="70.59" type="line"/>
      <point x="167.835" y="0" type="line"/>
      <point x="250.987" y="0" type="line"/>
      <point x="250.833" y="10" type="line"/>
      <point x="232.372" y="9.981" type="line"/>
      <point x="198.64" y="9.981"/>
      <point x="171.273" y="37.017"/>
    </contour>
    <contour>
      <point x="170.02" y="658.772" type="line"/>
      <point x="125.345" y="700.069" type="line"/>
      <point x="125.345" y="0" type="line"/>
      <point x="170.732" y="0" type="line"/>
    </contour>
    <contour>
      <point x="715.983" y="700.019" type="line"/>
      <point x="670.596" y="700.019" type="line"/>
      <point x="670.641" y="39.152" type="line"/>
      <point x="715.983" y="-11" type="line"/>
    </contour>
    <contour>
      <point x="673.379" y="700.019" type="line"/>
      <point x="590.233" y="700.019" type="line"/>
      <point x="590.387" y="690.019" type="line"/>
      <point x="608.841" y="690.038" type="line"/>
      <point x="642.579" y="690.042"/>
      <point x="669.944" y="663.005"/>
      <point x="670.575" y="629.431" type="curve"/>
      <point x="673.385" y="629.431" type="line"/>
    </contour>
    <contour>
      <point x="796.306" y="700.019" type="line"/>
      <point x="713.158" y="700.019" type="line"/>
      <point x="713.154" y="629.432" type="line"/>
      <point x="715.962" y="629.432" type="line"/>
      <point x="716.593" y="663.007"/>
      <point x="743.96" y="690.043"/>
      <point x="777.696" y="690.039" type="curve"/>
      <point x="796.152" y="690.02" type="line"/>
    </contour>
  </outline>
</glyph>
<glyph name="O" format="2">
  <advance width="929"/>
  <unicode hex="004F"/>
  <anchor x="469" y="764" name="top"/>
  <outline>
    <contour>
      <point x="276.834" y="467.041" type="curve"/>
      <point x="286.834" y="469.041" type="line"/>
      <point x="272" y="560"/>
      <point x="349" y="684"/>
      <point x="515" y="684" type="curve" smooth="yes"/>
      <point x="700" y="684"/>
      <point x="792" y="531"/>
      <point x="792" y="363" type="curve" smooth="yes"/>
      <point x="792" y="154"/>
      <point x="656" y="16"/>
      <point x="464" y="16" type="curve" smooth="yes"/>
      <point x="280" y="16"/>
      <point x="137" y="143"/>
      <point x="137" y="375" type="curve" smooth="yes"/>
      <point x="137" y="479"/>
      <point x="165" y="609"/>
      <point x="258.903" y="670.769" type="curve"/>
      <point x="252.903" y="679.769" type="line"/>
      <point x="129" y="617"/>
      <point x="60" y="502"/>
      <point x="60" y="360" type="curve" smooth="yes"/>
      <point x="60" y="136"/>
      <point x="236" y="-14"/>
      <point x="466" y="-14" type="curve" smooth="yes"/>
      <point x="698" y="-14"/>
      <point x="869" y="138"/>
      <point x="869" y="361" type="curve" smooth="yes"/>
      <point x="869" y="558"/>
      <point x="731" y="714"/>
      <point x="523" y="714" type="curve" smooth="yes"/>
      <point x="314" y="714"/>
      <point x="259" y="558"/>
    </contour>
  </outline>
</glyph>
<glyph name="P" format="2">
  <advance width="620"/>
  <unicode hex="0050"/>
  <outline>
    <contour>
      <point x="202.029" y="687" type="line"/>
      <point x="137.013" y="677" type="line"/>
      <point x="137.013" y="0" type="line"/>
      <point x="202.029" y="0" type="line"/>
    </contour>
    <contour>
      <point x="139.775" y="72.864" type="line"/>
      <point x="137.013" y="72.864" type="line"/>
      <point x="136" y="36"/>
      <point x="106" y="10"/>
      <point x="73" y="10" type="curve"/>
      <point x="60.161" y="10" type="line"/>
      <point x="60" y="0" type="line"/>
      <point x="139.775" y="0" type="line"/>
    </contour>
    <contour>
      <point x="199.122" y="72.864" type="line"/>
      <point x="199.122" y="0" type="line"/>
      <point x="278.897" y="0" type="line"/>
      <point x="278.736" y="10" type="line"/>
      <point x="266" y="10" type="line"/>
      <point x="233" y="10"/>
      <point x="203" y="36"/>
      <point x="202.032" y="72.864" type="curve"/>
    </contour>
    <contour>
      <point x="301" y="713" type="curve" smooth="yes"/>
      <point x="252" y="707"/>
      <point x="149" y="686"/>
      <point x="59.489" y="676.542" type="curve"/>
      <point x="60.868" y="666.636" type="line"/>
      <point x="63" y="667"/>
      <point x="68" y="668"/>
      <point x="73" y="668" type="curve" smooth="yes"/>
      <point x="116" y="671"/>
      <point x="137" y="647"/>
      <point x="137.014" y="613.943" type="curve"/>
      <point x="147.549" y="613.943" type="line"/>
      <point x="142.242" y="657.167" type="line"/>
      <point x="198" y="663"/>
      <point x="255" y="677"/>
      <point x="297" y="682" type="curve" smooth="yes"/>
      <point x="415" y="695"/>
      <point x="495.319" y="639.012"/>
      <point x="500" y="510" type="curve" smooth="yes"/>
      <point x="503.412" y="415.975"/>
      <point x="464" y="338"/>
      <point x="388" y="324" type="curve" smooth="yes"/>
      <point x="338" y="315"/>
      <point x="271" y="332"/>
      <point x="255.049" y="393.941" type="curve"/>
      <point x="246.049" y="390.941" type="line"/>
      <point x="256" y="310"/>
      <point x="327" y="283"/>
      <point x="395" y="287" type="curve" smooth="yes"/>
      <point x="509" y="294"/>
      <point x="578.96" y="385.999"/>
      <point x="575" y="510" type="curve" smooth="yes"/>
      <point x="570.242" y="659.008"/>
      <point x="461" y="733"/>
    </contour>
  </outline>
</glyph>
<glyph name="Q" format="2">
  <advance width="919"/>
  <unicode hex="0051"/>
  <outline>
    <contour>
      <point x="445.017" y="-14" type="line"/>
      <point x="582" y="-38"/>
      <point x="828" y="-152"/>
      <point x="955" y="-194" type="curve" smooth="yes"/>
      <point x="1255.32" y="-293"/>
      <point x="1504.77" y="-170"/>
      <point x="1554.75" y="-89" type="curve"/>
      <point x="1550.93" y="-84" type="line"/>
      <point x="1434.78" y="-198"/>
      <point x="1155.51" y="-186"/>
      <point x="963" y="-133" type="curve" smooth="yes"/>
      <point x="835" y="-98"/>
      <point x="566" y="-4"/>
      <point x="445.017" y="-4" type="curve"/>
    </contour>
    <contour>
      <point x="527.166" y="186.933" type="curve"/>
      <point x="518.152" y="189.933" type="line"/>
      <point x="489" y="98"/>
      <point x="388" y="64"/>
      <point x="307" y="82" type="curve" smooth="yes"/>
      <point x="203" y="105"/>
      <point x="127" y="214"/>
      <point x="127" y="351" type="curve" smooth="yes"/>
      <point x="127" y="549.195"/>
      <point x="271" y="694.053"/>
      <point x="463" y="689" type="curve" smooth="yes"/>
      <point x="648.752" y="684.918"/>
      <point x="785.466" y="529.775"/>
      <point x="782" y="327" type="curve" smooth="yes"/>
      <point x="778" y="93"/>
      <point x="618" y="-9"/>
      <point x="445.017" y="-4" type="curve"/>
      <point x="445.017" y="-14" type="line"/>
      <point x="596" y="-44"/>
      <point x="856" y="66"/>
      <point x="859" y="342" type="curve" smooth="yes"/>
      <point x="861.831" y="552.466"/>
      <point x="691.26" y="714.037"/>
      <point x="461" y="719" type="curve" smooth="yes"/>
      <point x="226.143" y="724.173"/>
      <point x="50" y="565.602"/>
      <point x="50" y="349" type="curve" smooth="yes"/>
      <point x="50" y="202"/>
      <point x="137" y="73"/>
      <point x="299" y="50" type="curve" smooth="yes"/>
      <point x="427" y="32"/>
      <point x="503" y="97"/>
    </contour>
  </outline>
</glyph>
<glyph name="R" format="2">
  <advance width="652"/>
  <unicode hex="0052"/>
  <anchor x="377.58" y="-50" name="bottom"/>
  <anchor x="323.58" y="764" name="top"/>
  <outline>
    <contour>
      <point x="139.816" y="72.864" type="line"/>
      <point x="136.906" y="72.864" type="line"/>
      <point x="136" y="36"/>
      <point x="106" y="10"/>
      <point x="73" y="10" type="curve"/>
      <point x="60.202" y="10" type="line"/>
      <point x="60.041" y="0" type="line"/>
      <point x="139.816" y="0" type="line"/>
    </contour>
    <contour>
      <point x="201.612" y="690" type="line"/>
      <point x="136.895" y="690" type="line"/>
      <point x="136.895" y="0" type="line"/>
      <point x="201.612" y="0" type="line"/>
    </contour>
    <contour>
      <point x="198.723" y="72.864" type="line"/>
      <point x="198.723" y="0" type="line"/>
      <point x="278.498" y="0" type="line"/>
      <point x="278.337" y="10" type="line"/>
      <point x="266" y="10" type="line"/>
      <point x="229" y="10"/>
      <point x="202" y="40"/>
      <point x="201.633" y="72.864" type="curve"/>
    </contour>
    <contour>
      <point x="139.775" y="627.196" type="line"/>
      <point x="139.775" y="700.245" type="line"/>
      <point x="60" y="700.245" type="line"/>
      <point x="60.162" y="690.06" type="line"/>
      <point x="72.812" y="690.08" type="line"/>
      <point x="107.813" y="690.08"/>
      <point x="136.21" y="662.03"/>
      <point x="136.866" y="627.196" type="curve"/>
    </contour>
    <contour>
      <point x="330" y="700.245" type="curve"/>
      <point x="139.279" y="700.245" type="line"/>
      <point x="139.283" y="668.898" type="line"/>
      <point x="326" y="668" type="line"/>
      <point x="408" y="668"/>
      <point x="447" y="601"/>
      <point x="450" y="516" type="curve" smooth="yes"/>
      <point x="451" y="486"/>
      <point x="447" y="467"/>
      <point x="444" y="456" type="curve" smooth="yes"/>
      <point x="419" y="364"/>
      <point x="330.91" y="355.42"/>
      <point x="288" y="352" type="curve" smooth="yes"/>
      <point x="262.903" y="350"/>
      <point x="239.95" y="351.594"/>
      <point x="234.9" y="351.594" type="curve"/>
      <point x="234.9" y="342.34" type="line"/>
      <point x="252" y="340"/>
      <point x="270.533" y="321.484"/>
      <point x="295" y="294" type="curve" smooth="yes"/>
      <point x="360.362" y="220.58"/>
      <point x="515.956" y="49.779"/>
      <point x="564" y="-5" type="curve" smooth="yes"/>
      <point x="671" y="-127"/>
      <point x="786" y="-213"/>
      <point x="947.817" y="-170" type="curve"/>
      <point x="947.817" y="-160" type="line"/>
      <point x="821" y="-176"/>
      <point x="720" y="-73"/>
      <point x="617" y="36" type="curve" smooth="yes"/>
      <point x="504" y="155"/>
      <point x="441" y="230"/>
      <point x="355.306" y="321.392" type="curve"/>
      <point x="452" y="321"/>
      <point x="525" y="412"/>
      <point x="525" y="519" type="curve" smooth="yes"/>
      <point x="525" y="628"/>
      <point x="448" y="700.245"/>
    </contour>
  </outline>
</glyph>
<glyph name="S" format="2">
  <advance width="549"/>
  <unicode hex="0053"/>
  <anchor x="275" y="-93.432" name="bottom"/>
  <anchor x="282.427" y="764" name="top"/>
  <outline>
    <contour>
      <point x="418.605" y="703.801" type="line"/>
      <point x="342.111" y="703.801" type="line"/>
      <point x="342.465" y="683.538" type="line"/>
      <point x="418.959" y="683.538" type="line"/>
    </contour>
    <contour>
      <point x="403.239" y="330.968" type="curve" smooth="yes"/>
      <point x="217.702" y="476.869" type="line" smooth="yes"/>
      <point x="185" y="503"/>
      <point x="174" y="536"/>
      <point x="174" y="567" type="curve" smooth="yes"/>
      <point x="174" y="633"/>
      <point x="223" y="684"/>
      <point x="295" y="684" type="curve" smooth="yes"/>
      <point x="356" y="684"/>
      <point x="410" y="648"/>
      <point x="411.129" y="581.094" type="curve"/>
      <point x="420.758" y="581.094" type="line"/>
      <point x="418.824" y="691.929" type="line"/>
      <point x="392" y="704"/>
      <point x="331" y="714"/>
      <point x="292" y="714" type="curve" smooth="yes"/>
      <point x="179" y="714"/>
      <point x="118" y="629"/>
      <point x="118" y="547" type="curve" smooth="yes"/>
      <point x="118" y="511"/>
      <point x="130" y="458"/>
      <point x="176.614" y="421.145" type="curve" smooth="yes"/>
      <point x="357.128" y="279.251" type="line" smooth="yes"/>
      <point x="515" y="154"/>
      <point x="442" y="-58"/>
      <point x="255.003" y="-58" type="curve" smooth="yes"/>
      <point x="82" y="-58"/>
      <point x="9" y="122"/>
      <point x="118.999" y="265.56" type="curve"/>
      <point x="109.999" y="272.56" type="line"/>
      <point x="-27" y="126"/>
      <point x="52" y="-94"/>
      <point x="272.409" y="-94" type="curve" smooth="yes"/>
      <point x="516" y="-94"/>
      <point x="603" y="173"/>
    </contour>
  </outline>
</glyph>
<glyph name="T" format="2">
  <advance width="618"/>
  <unicode hex="0054"/>
  <anchor x="309" y="0" name="bottom"/>
  <anchor x="309" y="350" name="center"/>
  <anchor x="309" y="700" name="top"/>
  <outline>
    <contour>
      <point x="341.99" y="696.716" type="line"/>
      <point x="276.731" y="696.716" type="line"/>
      <point x="276.731" y="0" type="line"/>
      <point x="341.99" y="0" type="line"/>
    </contour>
    <contour>
      <point x="598.605" y="701" type="line"/>
      <point x="68.033" y="701" type="line"/>
      <point x="-65" y="701"/>
      <point x="-134" y="592.429"/>
      <point x="-59" y="501" type="curve"/>
      <point x="-51" y="506" type="line"/>
      <point x="-96" y="590.981"/>
      <point x="-39" y="671.02"/>
      <point x="68.033" y="671.02" type="curve"/>
      <point x="598.605" y="671.02" type="line"/>
    </contour>
    <contour>
      <point x="598.605" y="673.775" type="line"/>
      <point x="530.03" y="673.775" type="line"/>
      <point x="530.03" y="671.067" type="line"/>
      <point x="562.454" y="670.457"/>
      <point x="588.559" y="644.025"/>
      <point x="588.559" y="611.448" type="curve" smooth="yes"/>
      <point x="588.54" y="593.624" type="line"/>
      <point x="598.605" y="593.474" type="line"/>
    </contour>
    <contour>
      <point x="598.605" y="719.196" type="line"/>
      <point x="579.656" y="711.21"/>
      <point x="520.034" y="700.996"/>
      <point x="476.674" y="700.996" type="curve"/>
      <point x="598.605" y="689.918" type="line"/>
    </contour>
    <contour>
      <point x="279.692" y="72.864" type="line"/>
      <point x="276.782" y="72.864" type="line"/>
      <point x="276.127" y="38.029"/>
      <point x="247.73" y="9.979"/>
      <point x="212.728" y="9.979" type="curve" smooth="yes"/>
      <point x="212.576" y="9.979"/>
      <point x="200.235" y="10"/>
      <point x="200.078" y="10" type="curve"/>
      <point x="199.917" y="0" type="line"/>
      <point x="279.692" y="0" type="line"/>
    </contour>
    <contour>
      <point x="339.06" y="72.864" type="line"/>
      <point x="339.06" y="0" type="line"/>
      <point x="418.835" y="0" type="line"/>
      <point x="418.674" y="10" type="line"/>
      <point x="418.517" y="10"/>
      <point x="406.176" y="9.979"/>
      <point x="406.024" y="9.979" type="curve" smooth="yes"/>
      <point x="371.022" y="9.979"/>
      <point x="342.625" y="38.029"/>
      <point x="341.97" y="72.864" type="curve"/>
    </contour>
  </outline>
</glyph>
<glyph name="U" format="2">
  <advance width="783"/>
  <unicode hex="0055"/>
  <anchor x="396.423" y="-7" name="ogonek"/>
  <anchor x="421.641" y="764" name="top"/>
  <outline>
    <contour>
      <point x="183.985" y="700" type="line" smooth="yes"/>
      <point x="119.191" y="700" type="line"/>
      <point x="119.097" y="245.596" type="line" smooth="yes"/>
      <point x="119.097" y="89.838"/>
      <point x="230.028" y="-14"/>
      <point x="396.423" y="-14" type="curve" smooth="yes"/>
      <point x="558.153" y="-14"/>
      <point x="665.959" y="90.536"/>
      <point x="665.973" y="247.34" type="curve" smooth="yes"/>
      <point x="666.002" y="580.014" type="line" smooth="yes"/>
      <point x="666.018" y="766.989"/>
      <point x="761.205" y="861.639"/>
      <point x="903.969" y="861.639" type="curve"/>
      <point x="903.969" y="871.639" type="line"/>
      <point x="733.243" y="878.613"/>
      <point x="619.377" y="779.438"/>
      <point x="619.31" y="578.702" type="curve" smooth="yes"/>
      <point x="619.198" y="247.399" type="line" smooth="yes"/>
      <point x="619.152" y="109.457"/>
      <point x="530.011" y="17.495"/>
      <point x="396.423" y="17.495" type="curve" smooth="yes"/>
      <point x="269.022" y="17.495"/>
      <point x="184.088" y="114.614"/>
      <point x="184.088" y="260.292" type="curve"/>
    </contour>
    <contour>
      <point x="121.564" y="700" type="line"/>
      <point x="50" y="700" type="line"/>
      <point x="50" y="690" type="line"/>
      <point x="50.129" y="690"/>
      <point x="66.167" y="690.017"/>
      <point x="66.294" y="690.017" type="curve" smooth="yes"/>
      <point x="95.183" y="690.017"/>
      <point x="118.619" y="669.255"/>
      <point x="119.161" y="640.499" type="curve"/>
      <point x="121.564" y="640.499" type="line"/>
    </contour>
    <contour>
      <point x="253.11" y="700" type="line"/>
      <point x="181.547" y="700" type="line"/>
      <point x="181.547" y="640.499" type="line"/>
      <point x="183.949" y="640.499" type="line"/>
      <point x="184.491" y="669.255"/>
      <point x="207.928" y="690.017"/>
      <point x="236.814" y="690.017" type="curve" smooth="yes"/>
      <point x="236.943" y="690.017"/>
      <point x="252.982" y="690"/>
      <point x="253.11" y="690" type="curve"/>
    </contour>
  </outline>
</glyph>
<glyph name="V" format="2">
  <advance width="718"/>
  <unicode hex="0056"/>
  <outline>
    <contour>
      <point x="367.266" y="-14" type="line"/>
      <point x="387.28" y="81" type="line"/>
      <point x="142.107" y="694" type="line"/>
      <point x="57.047" y="694" type="line"/>
    </contour>
    <contour>
      <point x="367.266" y="-14" type="line"/>
      <point x="376.272" y="-14" type="line"/>
      <point x="376.272" y="7.987"/>
      <point x="413.298" y="89"/>
      <point x="413.298" y="89" type="curve"/>
      <point x="691.49" y="697" type="line" smooth="yes"/>
      <point x="738.372" y="799.463"/>
      <point x="802.302" y="927.797"/>
      <point x="968.299" y="934.573" type="curve"/>
      <point x="968.299" y="944.573" type="line"/>
      <point x="763.304" y="952.352"/>
      <point x="676.22" y="815.964"/>
      <point x="626.447" y="697" type="curve" smooth="yes"/>
      <point x="358.26" y="56" type="line"/>
    </contour>
    <contour>
      <point x="168.628" y="627.683" type="line"/>
      <point x="154.026" y="667.7"/>
      <point x="180.572" y="690.154"/>
      <point x="206.388" y="690.154" type="curve" smooth="yes"/>
      <point x="215.18" y="690.154" type="line"/>
      <point x="215.18" y="700.154" type="line"/>
      <point x="-10" y="700.059" type="line"/>
      <point x="-10" y="690.059" type="line"/>
      <point x="-10" y="690.059"/>
      <point x="-2" y="690.059"/>
      <point x="-2" y="690.059" type="curve" smooth="yes"/>
      <point x="29.01" y="690.059"/>
      <point x="66.02" y="671.9"/>
      <point x="86.232" y="627.351" type="curve"/>
    </contour>
  </outline>
</glyph>
<glyph name="W" format="2">
  <advance width="954"/>
  <unicode hex="0057"/>
  <anchor x="506.871" y="764" name="top"/>
  <outline>
    <contour>
      <point x="164.74" y="627.51" type="line"/>
      <point x="152.138" y="667.528"/>
      <point x="177.626" y="690.086"/>
      <point x="203.442" y="690.086" type="curve" smooth="yes"/>
      <point x="212.234" y="690.086" type="line"/>
      <point x="212.234" y="700" type="line"/>
      <point x="-10" y="700" type="line"/>
      <point x="-10" y="690" type="line"/>
      <point x="-10" y="690"/>
      <point x="-2" y="690"/>
      <point x="-2" y="690" type="curve" smooth="yes"/>
      <point x="28.994" y="690"/>
      <point x="70.004" y="672.059"/>
      <point x="86.216" y="627.51" type="curve"/>
    </contour>
    <contour>
      <point x="62.662" y="693.96" type="line"/>
      <point x="298.828" y="26.888" type="line"/>
      <point x="329.644" y="96.962" type="line"/>
      <point x="144.099" y="693.934" type="line"/>
    </contour>
    <contour>
      <point x="333.691" y="55.236" type="curve" smooth="yes"/>
      <point x="519.16" y="634.818" type="line"/>
      <point x="510.991" y="715.642" type="line"/>
      <point x="501.869" y="715.642" type="line"/>
      <point x="294.518" y="76.784" type="line" smooth="yes"/>
      <point x="253.453" y="-50"/>
      <point x="154.735" y="-175"/>
      <point x="37.209" y="-152" type="curve"/>
      <point x="35.209" y="-162" type="line"/>
      <point x="180.233" y="-194"/>
      <point x="288.599" y="-86"/>
    </contour>
    <contour>
      <point x="511.182" y="715.321" type="line"/>
      <point x="477.49" y="607.38" type="line"/>
      <point x="698.988" y="-12" type="line"/>
      <point x="721.446" y="125.554" type="line"/>
    </contour>
    <contour>
      <point x="857.364" y="656.45" type="curve" smooth="yes"/>
      <point x="686.885" y="86.933" type="line"/>
      <point x="698.988" y="-12" type="line"/>
      <point x="708.424" y="-12" type="line"/>
      <point x="709.955" y="35.624"/>
      <point x="730.285" y="99.156"/>
      <point x="730.285" y="99.156" type="curve"/>
      <point x="922.407" y="656.45" type="line" smooth="yes"/>
      <point x="959.038" y="762.707"/>
      <point x="1038.22" y="927.247"/>
      <point x="1204.22" y="934.023" type="curve"/>
      <point x="1204.22" y="944.023" type="line"/>
      <point x="999.221" y="951.802"/>
      <point x="894.378" y="780.102"/>
    </contour>
  </outline>
</glyph>
<glyph name="X" format="2">
  <advance width="662"/>
  <unicode hex="0058"/>
  <outline>
    <contour>
      <point x="249.426" y="700" type="line"/>
      <point x="6.808" y="700" type="line"/>
      <point x="6.808" y="690.034" type="line"/>
      <point x="20.808" y="690.034" type="line" smooth="yes"/>
      <point x="62.805" y="690.034"/>
      <point x="100.325" y="662.076"/>
      <point x="121.602" y="631.204" type="curve"/>
      <point x="201.829" y="627.952" type="line"/>
      <point x="185.098" y="656.338"/>
      <point x="209.554" y="690.034"/>
      <point x="236.828" y="690.034" type="curve" smooth="yes"/>
      <point x="236.828" y="690.034"/>
      <point x="249.426" y="690.034"/>
      <point x="249.426" y="690.034" type="curve"/>
    </contour>
    <contour>
      <point x="156.053" y="699.976" type="line"/>
      <point x="78.058" y="699.976" type="line"/>
      <point x="521.034" y="1" type="line"/>
      <point x="601.029" y="1" type="line"/>
    </contour>
    <contour>
      <point x="335.369" y="333.002" type="line"/>
      <point x="303.599" y="377.411" type="line"/>
      <point x="79.53" y="61.795" type="line" smooth="yes"/>
      <point x="19.786" y="-22"/>
      <point x="-58" y="-134"/>
      <point x="-172" y="-139" type="curve"/>
      <point x="-172" y="-149" type="line"/>
      <point x="-48" y="-165"/>
      <point x="40.831" y="-99"/>
      <point x="129.538" y="30.847" type="curve" smooth="yes"/>
    </contour>
    <contour>
      <point x="476.341" y="71.578" type="line"/>
      <point x="493.073" y="43.192"/>
      <point x="468.616" y="10"/>
      <point x="441.343" y="10" type="curve" smooth="yes"/>
      <point x="441.343" y="10"/>
      <point x="428.744" y="10"/>
      <point x="428.744" y="10" type="curve"/>
      <point x="428.744" y="0" type="line"/>
      <point x="672.581" y="0" type="line"/>
      <point x="672.581" y="10" type="line"/>
      <point x="658.949" y="10" type="line" smooth="yes"/>
      <point x="616.951" y="10"/>
      <point x="579.432" y="37.454"/>
      <point x="558.154" y="68.326" type="curve"/>
    </contour>
    <contour>
      <point x="320.073" y="393.884" type="line"/>
      <point x="349.061" y="348.676" type="line"/>
      <point x="581.408" y="666.723" type="line" smooth="yes"/>
      <point x="633.14" y="735.745"/>
      <point x="698.857" y="844.075"/>
      <point x="806.896" y="845.6" type="curve"/>
      <point x="806.896" y="855.6" type="line"/>
      <point x="689.406" y="865.6"/>
      <point x="612.085" y="809.218"/>
      <point x="528.247" y="690.147" type="curve" smooth="yes"/>
    </contour>
  </outline>
</glyph>
<glyph name="Y" format="2">
  <advance width="618"/>
  <unicode hex="0059"/>
  <anchor x="331.112" y="764" name="top"/>
  <outline>
    <contour>
      <point x="287.496" y="72.864" type="line"/>
      <point x="284.586" y="72.864" type="line"/>
      <point x="284" y="38"/>
      <point x="255" y="10"/>
      <point x="221" y="10" type="curve" smooth="yes"/>
      <point x="219" y="10"/>
      <point x="210" y="10"/>
      <point x="207.882" y="10" type="curve"/>
      <point x="207.721" y="0" type="line"/>
      <point x="287.496" y="0" type="line"/>
    </contour>
    <contour>
      <point x="346.693" y="72.864" type="line"/>
      <point x="346.693" y="0" type="line"/>
      <point x="426.468" y="0" type="line"/>
      <point x="426.307" y="10" type="line"/>
      <point x="424" y="10"/>
      <point x="416" y="10"/>
      <point x="414" y="10" type="curve" smooth="yes"/>
      <point x="377" y="10"/>
      <point x="350" y="40"/>
      <point x="349.603" y="72.864" type="curve"/>
    </contour>
    <contour>
      <point x="-40" y="757.139" type="curve"/>
      <point x="-40" y="747.139" type="line"/>
      <point x="125.856" y="747.139"/>
      <point x="284.572" y="397.808"/>
      <point x="284.572" y="221.296" type="curve"/>
      <point x="284.572" y="0" type="line"/>
      <point x="349.59" y="0" type="line"/>
      <point x="349.59" y="220.367" type="line"/>
      <point x="349.59" y="385.23"/>
      <point x="500.423" y="747.139"/>
      <point x="658.831" y="747.139" type="curve"/>
      <point x="658.831" y="757.139" type="line"/>
      <point x="461.831" y="757.139"/>
      <point x="387.058" y="532.384"/>
      <point x="328.037" y="375.779" type="curve"/>
      <point x="278.265" y="511.504"/>
      <point x="204.888" y="767.139"/>
    </contour>
  </outline>
</glyph>
<glyph name="Z" format="2">
  <advance width="636"/>
  <unicode hex="005A"/>
  <anchor x="324" y="764" name="top"/>
  <outline>
    <contour>
      <point x="142.876" y="673.565" type="line"/>
      <point x="74.301" y="673.565" type="line"/>
      <point x="74.301" y="593.264" type="line"/>
      <point x="84.366" y="593.414" type="line"/>
      <point x="84.347" y="611.238" type="line" smooth="yes"/>
      <point x="84.347" y="643.815"/>
      <point x="110.452" y="670.247"/>
      <point x="142.876" y="670.857" type="curve"/>
    </contour>
    <contour>
      <point x="74.301" y="719.196" type="curve"/>
      <point x="74.301" y="689.918" type="line"/>
      <point x="196.232" y="700.996" type="line"/>
      <point x="152.872" y="700.996"/>
      <point x="93.25" y="711.21"/>
    </contour>
    <contour>
      <point x="579.594" y="714" type="curve"/>
      <point x="567.791" y="707.817"/>
      <point x="513.843" y="701.098"/>
      <point x="473.627" y="701.098" type="curve"/>
      <point x="74.348" y="700.737" type="line"/>
      <point x="74.348" y="670.856" type="line"/>
      <point x="480.247" y="670.855" type="line"/>
      <point x="60.184" y="9.322" type="line"/>
      <point x="60" y="0" type="line"/>
      <point x="133.584" y="0" type="line"/>
      <point x="579.594" y="705.328" type="line"/>
      <point x="579.594" y="705.33"/>
      <point x="579.594" y="714"/>
    </contour>
    <contour>
      <point x="87.498" y="27.373" type="curve"/>
      <point x="60.015" y="0" type="line"/>
      <point x="197.025" y="11"/>
      <point x="745.156" y="-381"/>
      <point x="996.212" y="-89" type="curve"/>
      <point x="991.213" y="-81" type="line"/>
      <point x="811" y="-158"/>
      <point x="660.776" y="-154"/>
      <point x="250" y="-19" type="curve" smooth="yes"/>
      <point x="190.059" y="0.667"/>
      <point x="147.44" y="17.706"/>
    </contour>
  </outline>
</glyph>
<glyph name="bracketleft" format="2">
  <advance width="332"/>
  <unicode hex="005B"/>
  <outline>
    <contour>
      <point x="120" y="722" type="line"/>
      <point x="120" y="-90" type="line"/>
      <point x="292.49" y="-90" type="line"/>
      <point x="292.49" y="-80" type="line"/>
      <point x="185" y="-60" type="line"/>
      <point x="185" y="692" type="line"/>
      <point x="289.183" y="712" type="line"/>
      <point x="289.183" y="722" type="line"/>
    </contour>
  </outline>
</glyph>
<glyph name="bracketright" format="2">
  <advance width="332"/>
  <unicode hex="005D"/>
  <outline>
    <contour>
      <point x="212.49" y="722" type="line"/>
      <point x="43.307" y="722" type="line"/>
      <point x="43.307" y="712" type="line"/>
      <point x="147.49" y="692" type="line"/>
      <point x="147.49" y="-60" type="line"/>
      <point x="40" y="-80" type="line"/>
      <point x="40" y="-90" type="line"/>
      <point x="212.49" y="-90" type="line"/>
    </contour>
  </outline>
</glyph>
<glyph name="asciicircum" format="2">
  <advance width="523"/>
  <unicode hex="005E"/>
  <outline>
    <contour>
      <point x="35" y="181.882" type="line"/>
      <point x="232.425" y="370.636" type="line"/>
      <point x="292.425" y="370.636" type="line"/>
      <point x="488" y="181.882" type="line"/>
      <point x="425" y="181.882" type="line"/>
      <point x="262.426" y="335.867" type="line"/>
      <point x="98" y="181.882" type="line"/>
    </contour>
  </outline>
</glyph>
<glyph name="c" format="2">
  <advance width="760"/>
  <unicode hex="0063"/>
  <anchor x="418.128" y="-13" name="bottom"/>
  <anchor x="424.128" y="764" name="top"/>
  <outline>
    <contour>
      <point x="710.328" y="291.886" type="line"/>
      <point x="702.006" y="291.85" type="line"/>
      <point x="679.263" y="87.058"/>
      <point x="559.123" y="16.354"/>
      <point x="417.129" y="15.929" type="curve"/>
      <point x="249" y="20"/>
      <point x="135" y="151"/>
      <point x="135" y="352" type="curve" smooth="yes"/>
      <point x="135" y="551"/>
      <point x="247" y="684"/>
      <point x="422.814" y="684.074" type="curve" smooth="yes"/>
      <point x="543" y="684"/>
      <point x="641" y="622"/>
      <point x="671.378" y="505.264" type="curve"/>
      <point x="679.701" y="505.232" type="line"/>
      <point x="659.525" y="646.468" type="line"/>
      <point x="601" y="685"/>
      <point x="521" y="714"/>
      <point x="423" y="714" type="curve" smooth="yes"/>
      <point x="203" y="714"/>
      <point x="60" y="568"/>
      <point x="60" y="351" type="curve" smooth="yes"/>
      <point x="60" y="130"/>
      <point x="208" y="-13"/>
      <point x="417.128" y="-14" type="curve"/>
      <point x="555.992" y="-14"/>
      <point x="645.441" y="48.8"/>
      <point x="698.139" y="134.938" type="curve"/>
    </contour>
  </outline>
</glyph>
<glyph name="d" format="2">
  <advance width="807"/>
  <unicode hex="0064"/>
  <anchor x="405.388" y="250" name="center"/>
  <anchor x="401.536" y="764" name="top"/>
  <outline>
    <contour>
      <point x="398.536" y="699.975" type="curve"/>
      <point x="174.125" y="699.975" type="line"/>
      <point x="174.125" y="669.931" type="line"/>
      <point x="174.531" y="669.931"/>
      <point x="398.536" y="669.944"/>
      <point x="398.536" y="669.944" type="curve" smooth="yes"/>
      <point x="568.94" y="669.944"/>
      <point x="682.678" y="541.85"/>
      <point x="682.678" y="349.709" type="curve" smooth="yes"/>
      <point x="682.678" y="158.148"/>
      <point x="569.94" y="30.44"/>
      <point x="398.536" y="30.44" type="curve" smooth="yes"/>
      <point x="398.536" y="30.44"/>
      <point x="184.369" y="30.452"/>
      <point x="183.963" y="30.452" type="curve"/>
      <point x="185.499" y="0.057" type="line"/>
      <point x="398.536" y="0.057" type="line"/>
      <point x="612.129" y="0.057"/>
      <point x="757.678" y="139.952"/>
      <point x="757.678" y="349.709" type="curve" smooth="yes"/>
      <point x="757.678" y="559.884"/>
      <point x="612.129" y="699.975"/>
    </contour>
    <contour>
      <point x="201.983" y="699.975" type="line"/>
      <point x="136.862" y="699.975" type="line"/>
      <point x="136.862" y="0.057" type="line"/>
      <point x="201.983" y="0.057" type="line"/>
    </contour>
    <contour>
      <point x="139.775" y="72.864" type="line"/>
      <point x="136.865" y="72.864" type="line"/>
      <point x="136.21" y="38.029"/>
      <point x="107.813" y="9.979"/>
      <point x="72.811" y="9.979" type="curve" smooth="yes"/>
      <point x="72.659" y="9.979"/>
      <point x="60.318" y="10"/>
      <point x="60.161" y="10" type="curve"/>
      <point x="60" y="0" type="line"/>
      <point x="139.775" y="0" type="line"/>
    </contour>
    <contour>
      <point x="140.126" y="627.196" type="line"/>
      <point x="140.126" y="700.06" type="line"/>
      <point x="60.351" y="700.06" type="line"/>
      <point x="60.513" y="690.06" type="line"/>
      <point x="60.67" y="690.06"/>
      <point x="73.011" y="690.08"/>
      <point x="73.163" y="690.08" type="curve" smooth="yes"/>
      <point x="108.164" y="690.08"/>
      <point x="136.561" y="662.03"/>
      <point x="137.217" y="627.196" type="curve"/>
    </contour>
  </outline>
</glyph>
<glyph name="k" format="2">
  <advance width="657"/>
  <unicode hex="006B"/>
  <anchor x="394.115" y="-64" name="bottom"/>
  <anchor x="355.198" y="700.357" name="top"/>
  <outline>
    <contour>
      <point x="288.648" y="385.286" type="line"/>
      <point x="234.077" y="348.182" type="line"/>
      <point x="234.077" y="348.18"/>
      <point x="474.771" y="56.779"/>
      <point x="474.77" y="56.779" type="curve"/>
      <point x="520.7" y="3.193"/>
      <point x="597.306" y="0.219"/>
      <point x="625.449" y="0.131" type="curve" smooth="yes"/>
      <point x="667.725" y="0" type="line"/>
      <point x="667.725" y="10.075" type="line"/>
      <point x="627.078" y="11.11"/>
      <point x="600.63" y="23.542"/>
      <point x="573.266" y="50.906" type="curve"/>
    </contour>
    <contour>
      <point x="577.581" y="692.968" type="line"/>
      <point x="509.047" y="692.968" type="line"/>
      <point x="234.077" y="348.182" type="line"/>
      <point x="278.81" y="348.182" type="line"/>
    </contour>
    <contour>
      <point x="647.413" y="700" type="line"/>
      <point x="643.033" y="700" type="line"/>
      <point x="436.186" y="700" type="line"/>
      <point x="436.186" y="691.157" type="line"/>
      <point x="445.85" y="691.164" type="line"/>
      <point x="473.477" y="691.164"/>
      <point x="487.087" y="665.949"/>
      <point x="469.644" y="643.547" type="curve"/>
      <point x="533.086" y="641.63" type="line"/>
      <point x="558.857" y="672.062"/>
      <point x="598.886" y="690.881"/>
      <point x="643.033" y="690.98" type="curve" smooth="yes"/>
      <point x="647.413" y="690.98" type="line"/>
    </contour>
    <contour>
      <point x="201.92" y="700" type="line"/>
      <point x="136.873" y="700" type="line"/>
      <point x="136.873" y="0" type="line"/>
      <point x="201.92" y="0" type="line"/>
    </contour>
    <contour>
      <point x="139.775" y="72.864" type="line"/>
      <point x="136.865" y="72.864" type="line"/>
      <point x="136.21" y="38.029"/>
      <point x="107.813" y="9.979"/>
      <point x="72.811" y="9.979" type="curve" smooth="yes"/>
      <point x="72.659" y="9.979"/>
      <point x="60.318" y="10"/>
      <point x="60.161" y="10" type="curve"/>
      <point x="60" y="0" type="line"/>
      <point x="139.775" y="0" type="line"/>
    </contour>
    <contour>
      <point x="139.791" y="627.196" type="line"/>
      <point x="139.791" y="700.06" type="line"/>
      <point x="60.016" y="700.06" type="line"/>
      <point x="60.178" y="690.06" type="line"/>
      <point x="60.335" y="690.06"/>
      <point x="72.676" y="690.08"/>
      <point x="72.828" y="690.08" type="curve" smooth="yes"/>
      <point x="107.829" y="690.08"/>
      <point x="136.226" y="662.03"/>
      <point x="136.882" y="627.196" type="curve"/>
    </contour>
    <contour>
      <point x="199.012" y="72.864" type="line"/>
      <point x="199.012" y="0" type="line"/>
      <point x="278.787" y="0" type="line"/>
      <point x="278.626" y="10" type="line"/>
      <point x="278.469" y="10"/>
      <point x="266.128" y="9.979"/>
      <point x="265.976" y="9.979" type="curve" smooth="yes"/>
      <point x="230.974" y="9.979"/>
      <point x="202.577" y="38.029"/>
      <point x="201.922" y="72.864" type="curve"/>
    </contour>
    <contour>
      <point x="198.996" y="627.196" type="line"/>
      <point x="201.905" y="627.196" type="line"/>
      <point x="202.561" y="662.03"/>
      <point x="230.958" y="690.08"/>
      <point x="265.959" y="690.08" type="curve" smooth="yes"/>
      <point x="266.111" y="690.08"/>
      <point x="278.452" y="690.06"/>
      <point x="278.609" y="690.06" type="curve"/>
      <point x="278.771" y="700.06" type="line"/>
      <point x="198.996" y="700.06" type="line"/>
    </contour>
  </outline>
</glyph>
<glyph name="m" format="2">
  <advance width="931"/>
  <unicode hex="006D"/>
  <outline>
    <contour>
      <point x="740.602" y="713.697" type="line"/>
      <point x="439.898" y="48.95" type="line"/>
      <point x="454.15" y="-14" type="line"/>
      <point x="463.569" y="-14" type="line"/>
      <point x="470.023" y="27.387"/>
      <point x="497.886" y="88.11"/>
      <point x="497.886" y="88.11" type="curve"/>
      <point x="749.227" y="646.912" type="line"/>
    </contour>
    <contour>
      <point x="125.623" y="72.645" type="line"/>
      <point x="104.211" y="72.645" type="line"/>
      <point x="99.082" y="33.113"/>
      <point x="67.078" y="9.991"/>
      <point x="31.328" y="9.991" type="curve" smooth="yes"/>
      <point x="31.216" y="9.991"/>
      <point x="15.526" y="10"/>
      <point x="15.414" y="10" type="curve"/>
      <point x="15.414" y="0" type="line"/>
      <point x="125.623" y="0" type="line"/>
    </contour>
    <contour>
      <point x="154.771" y="56.525" type="curve"/>
      <point x="147.697" y="56.525" type="line"/>
      <point x="147.697" y="0" type="line"/>
      <point x="209.081" y="0" type="line"/>
      <point x="209.081" y="9.445" type="line"/>
      <point x="193.5" y="9.445" type="line" smooth="yes"/>
      <point x="171.956" y="9.49"/>
      <point x="154.511" y="30.59"/>
      <point x="154.511" y="52.145" type="curve" smooth="yes"/>
      <point x="154.511" y="53.626"/>
      <point x="154.609" y="55.086"/>
    </contour>
    <contour>
      <point x="179.433" y="714" type="line"/>
      <point x="95.698" y="0" type="line"/>
      <point x="149.672" y="0" type="line"/>
      <point x="208.663" y="654.713" type="line"/>
      <point x="188.71" y="714" type="line"/>
    </contour>
    <contour>
      <point x="188.71" y="714" type="line"/>
      <point x="170.355" y="601.692" type="line"/>
      <point x="454.153" y="-14" type="line"/>
      <point x="477.016" y="90.642" type="line"/>
    </contour>
    <contour>
      <point x="749.744" y="713.697" type="line"/>
      <point x="740.602" y="713.697" type="line"/>
      <point x="703.487" y="605.769" type="line"/>
      <point x="758.232" y="0" type="line"/>
      <point x="836.177" y="0" type="line"/>
    </contour>
    <contour>
      <point x="805.971" y="72.645" type="line"/>
      <point x="805.971" y="0" type="line"/>
      <point x="916.18" y="0" type="line"/>
      <point x="916.18" y="10" type="line"/>
      <point x="916.068" y="10"/>
      <point x="900.378" y="9.991"/>
      <point x="900.266" y="9.991" type="curve" smooth="yes"/>
      <point x="864.516" y="9.991"/>
      <point x="832.512" y="33.113"/>
      <point x="827.383" y="72.645" type="curve"/>
    </contour>
    <contour>
      <point x="753.112" y="56.525" type="line"/>
      <point x="753.275" y="55.085"/>
      <point x="753.372" y="53.626"/>
      <point x="753.372" y="52.145" type="curve" smooth="yes"/>
      <point x="753.372" y="30.59"/>
      <point x="735.927" y="9.49"/>
      <point x="714.384" y="9.445" type="curve" smooth="yes"/>
      <point x="698.802" y="9.445" type="line"/>
      <point x="698.802" y="0" type="line"/>
      <point x="760.187" y="0" type="line"/>
      <point x="760.187" y="56.525" type="line"/>
    </contour>
  </outline>
</glyph>
<glyph name="n" format="2">
  <advance width="841"/>
  <unicode hex="006E"/>
  <anchor x="425.897" y="-64" name="bottom"/>
  <anchor x="425.897" y="764" name="top"/>
  <outline>
    <contour>
      <point x="125.9" y="714.952" type="line"/>
      <point x="135.288" y="604.837" type="line"/>
      <point x="716.022" y="-14" type="line"/>
      <point x="706.873" y="94.808" type="line"/>
    </contour>
    <contour>
      <point x="128.152" y="70.59" type="line"/>
      <point x="125.346" y="70.59" type="line"/>
      <point x="124.715" y="37.017"/>
      <point x="97.347" y="9.981"/>
      <point x="63.613" y="9.981" type="curve" smooth="yes"/>
      <point x="63.46" y="9.981"/>
      <point x="45.305" y="9.994"/>
      <point x="45.155" y="10" type="curve"/>
      <point x="45" y="0" type="line"/>
      <point x="128.152" y="0" type="line"/>
    </contour>
    <contour>
      <point x="170.637" y="70.59" type="curve"/>
      <point x="167.835" y="70.59" type="line"/>
      <point x="167.835" y="0" type="line"/>
      <point x="250.987" y="0" type="line"/>
      <point x="250.833" y="10" type="line"/>
      <point x="250.68" y="9.994"/>
      <point x="232.523" y="9.981"/>
      <point x="232.372" y="9.981" type="curve" smooth="yes"/>
      <point x="198.64" y="9.981"/>
      <point x="171.273" y="37.017"/>
    </contour>
    <contour>
      <point x="125.997" y="715" type="line"/>
      <point x="116.136" y="714.991" type="line"/>
      <point x="116.136" y="714.991"/>
      <point x="125.345" y="658.335"/>
      <point x="125.345" y="590.069" type="curve" smooth="yes"/>
      <point x="125.345" y="0" type="line"/>
      <point x="170.732" y="0" type="line"/>
      <point x="170.02" y="658.772" type="line"/>
    </contour>
    <contour>
      <point x="715.983" y="700.019" type="line"/>
      <point x="670.596" y="700.019" type="line"/>
      <point x="670.641" y="39.152" type="line"/>
      <point x="716.022" y="-14" type="line"/>
      <point x="725.104" y="-14" type="line" smooth="yes"/>
      <point x="725.104" y="-14"/>
      <point x="715.983" y="49.151"/>
      <point x="715.983" y="113.582" type="curve" smooth="yes"/>
    </contour>
    <contour>
      <point x="796.306" y="700.019" type="line"/>
      <point x="713.158" y="700.019" type="line"/>
      <point x="713.154" y="629.432" type="line"/>
      <point x="715.962" y="629.432" type="line"/>
      <point x="716.593" y="663.007"/>
      <point x="743.96" y="690.043"/>
      <point x="777.696" y="690.039" type="curve" smooth="yes"/>
      <point x="777.846" y="690.042"/>
      <point x="796.002" y="690.027"/>
      <point x="796.152" y="690.02" type="curve"/>
    </contour>
    <contour>
      <point x="590.233" y="700.019" type="line"/>
      <point x="590.387" y="690.019" type="line"/>
      <point x="590.536" y="690.025"/>
      <point x="608.693" y="690.041"/>
      <point x="608.841" y="690.038" type="curve" smooth="yes"/>
      <point x="642.579" y="690.042"/>
      <point x="669.944" y="663.005"/>
      <point x="670.575" y="629.431" type="curve"/>
      <point x="673.385" y="629.431" type="line"/>
      <point x="673.379" y="700.019" type="line"/>
    </contour>
  </outline>
</glyph>
<glyph name="o" format="2">
  <advance width="848"/>
  <unicode hex="006F"/>
  <anchor x="425" y="764" name="top"/>
  <outline>
    <contour>
      <point x="424" y="714" type="curve" smooth="yes"/>
      <point x="197" y="714"/>
      <point x="40" y="568"/>
      <point x="40" y="349.992" type="curve" smooth="yes"/>
      <point x="40" y="132"/>
      <point x="197" y="-14"/>
      <point x="424" y="-14" type="curve" smooth="yes"/>
      <point x="651" y="-14"/>
      <point x="809" y="132"/>
      <point x="809" y="350" type="curve" smooth="yes"/>
      <point x="809" y="568"/>
      <point x="651" y="714"/>
    </contour>
    <contour>
      <point x="424" y="16" type="curve" smooth="yes"/>
      <point x="240" y="16"/>
      <point x="117" y="150"/>
      <point x="117" y="350" type="curve" smooth="yes"/>
      <point x="117" y="550"/>
      <point x="240" y="684"/>
      <point x="424" y="684" type="curve" smooth="yes"/>
      <point x="608" y="684"/>
      <point x="731" y="550"/>
      <point x="731" y="350" type="curve" smooth="yes"/>
      <point x="731" y="150"/>
      <point x="608" y="16"/>
    </contour>
  </outline>
</glyph>
<glyph name="q" format="2">
  <advance width="867"/>
  <unicode hex="0071"/>
  <outline>
    <contour>
      <point x="408.017" y="-14" type="line"/>
      <point x="542.506" y="-38"/>
      <point x="706.004" y="-141"/>
      <point x="828.204" y="-194" type="curve" smooth="yes"/>
      <point x="1113.89" y="-318"/>
      <point x="1304.35" y="-152"/>
      <point x="1327.75" y="-89" type="curve"/>
      <point x="1323.93" y="-84" type="line"/>
      <point x="1200.51" y="-200"/>
      <point x="986.206" y="-196"/>
      <point x="836.029" y="-133" type="curve" smooth="yes"/>
      <point x="636.66" y="-48"/>
      <point x="479.059" y="11.861"/>
      <point x="417.682" y="11.861" type="curve"/>
    </contour>
    <contour>
      <point x="434.432" y="714" type="curve" smooth="yes"/>
      <point x="207.406" y="714"/>
      <point x="50" y="568.397"/>
      <point x="50" y="349.992" type="curve" smooth="yes"/>
      <point x="50" y="131.597"/>
      <point x="207.406" y="-14"/>
      <point x="434.432" y="-14" type="curve" smooth="yes"/>
      <point x="661.459" y="-14"/>
      <point x="818.865" y="131.597"/>
      <point x="818.865" y="349.992" type="curve" smooth="yes"/>
      <point x="818.865" y="568.397"/>
      <point x="661.459" y="714"/>
    </contour>
    <contour>
      <point x="434.432" y="15.925" type="curve" smooth="yes"/>
      <point x="250.408" y="15.925"/>
      <point x="127.403" y="149.552"/>
      <point x="127.403" y="349.992" type="curve" smooth="yes"/>
      <point x="127.403" y="550.442"/>
      <point x="250.408" y="684.075"/>
      <point x="434.432" y="684.075" type="curve" smooth="yes"/>
      <point x="618.457" y="684.075"/>
      <point x="741.462" y="550.442"/>
      <point x="741.462" y="349.992" type="curve" smooth="yes"/>
      <point x="741.462" y="149.552"/>
      <point x="618.457" y="15.925"/>
    </contour>
  </outline>
</glyph>
<glyph name="s" format="2">
  <advance width="476"/>
  <unicode hex="0073"/>
  <anchor x="242.058" y="-64" name="bottom"/>
  <anchor x="247.269" y="764" name="top"/>
  <outline>
    <contour>
      <point x="250.752" y="714" type="curve" smooth="yes"/>
      <point x="136.752" y="714"/>
      <point x="75" y="629.288"/>
      <point x="75" y="545" type="curve" smooth="yes"/>
      <point x="75" y="506.288"/>
      <point x="88.752" y="458"/>
      <point x="129.205" y="421.085" type="curve" smooth="yes"/>
      <point x="320.759" y="243.189" type="line" smooth="yes"/>
      <point x="345.752" y="220"/>
      <point x="360" y="189.083"/>
      <point x="360" y="150" type="curve" smooth="yes"/>
      <point x="360" y="70.083"/>
      <point x="298.997" y="20.055"/>
      <point x="226" y="16" type="curve" smooth="yes"/>
      <point x="136.997" y="11.055"/>
      <point x="71.752" y="77"/>
      <point x="81.805" y="180.047" type="curve"/>
      <point x="73.013" y="180.047" type="line"/>
      <point x="57.78" y="135.21"/>
      <point x="54" y="71.51"/>
      <point x="61.453" y="40.639" type="curve"/>
      <point x="100.752" y="0"/>
      <point x="181.752" y="-14"/>
      <point x="230.752" y="-14" type="curve" smooth="yes"/>
      <point x="345.752" y="-14"/>
      <point x="418" y="62.393"/>
      <point x="418" y="173" type="curve" smooth="yes"/>
      <point x="418" y="213.393"/>
      <point x="407.752" y="258"/>
      <point x="367.773" y="294.906" type="curve" smooth="yes"/>
      <point x="171.266" y="476.809" type="line" smooth="yes"/>
      <point x="139.752" y="506"/>
      <point x="131" y="542.935"/>
      <point x="131" y="569" type="curve" smooth="yes"/>
      <point x="131" y="629.935"/>
      <point x="180.315" y="684"/>
      <point x="254" y="684" type="curve" smooth="yes"/>
      <point x="316.315" y="684"/>
      <point x="366.752" y="645"/>
      <point x="366.512" y="581.034" type="curve"/>
      <point x="376.141" y="581.034" type="line"/>
      <point x="376.141" y="691.869" type="line"/>
      <point x="354.752" y="702"/>
      <point x="293.752" y="714"/>
    </contour>
    <contour>
      <point x="376.13" y="703.741" type="line"/>
      <point x="299.636" y="703.741" type="line"/>
      <point x="299.636" y="683.478" type="line"/>
      <point x="376.13" y="683.478" type="line"/>
    </contour>
  </outline>
</glyph>
<glyph name="t" format="2">
  <advance width="618"/>
  <unicode hex="0074"/>
  <anchor x="310.381" y="0" name="bottom"/>
  <anchor x="290" y="321.67" name="center"/>
  <anchor x="308.976" y="764" name="top"/>
  <outline>
    <contour>
      <point x="341.99" y="696.716" type="line"/>
      <point x="276.731" y="696.716" type="line"/>
      <point x="276.731" y="0" type="line"/>
      <point x="341.99" y="0" type="line"/>
    </contour>
    <contour>
      <point x="598.605" y="701" type="line"/>
      <point x="20" y="701" type="line"/>
      <point x="20" y="671.02" type="line"/>
      <point x="598.605" y="671.02" type="line"/>
    </contour>
    <contour>
      <point x="598.605" y="673.775" type="line"/>
      <point x="530.03" y="673.775" type="line"/>
      <point x="530.03" y="671.067" type="line"/>
      <point x="562.454" y="670.457"/>
      <point x="588.559" y="644.025"/>
      <point x="588.559" y="611.448" type="curve" smooth="yes"/>
      <point x="588.54" y="593.624" type="line"/>
      <point x="598.605" y="593.474" type="line"/>
    </contour>
    <contour>
      <point x="598.605" y="719.196" type="line"/>
      <point x="579.656" y="711.21"/>
      <point x="520.034" y="700.996"/>
      <point x="476.674" y="700.996" type="curve"/>
      <point x="598.605" y="689.918" type="line"/>
    </contour>
    <contour>
      <point x="279.692" y="72.864" type="line"/>
      <point x="276.782" y="72.864" type="line"/>
      <point x="276.127" y="38.029"/>
      <point x="247.73" y="9.979"/>
      <point x="212.728" y="9.979" type="curve" smooth="yes"/>
      <point x="212.576" y="9.979"/>
      <point x="200.235" y="10"/>
      <point x="200.078" y="10" type="curve"/>
      <point x="199.917" y="0" type="line"/>
      <point x="279.692" y="0" type="line"/>
    </contour>
    <contour>
      <point x="339.06" y="72.864" type="line"/>
      <point x="339.06" y="0" type="line"/>
      <point x="418.835" y="0" type="line"/>
      <point x="418.674" y="10" type="line"/>
      <point x="418.517" y="10"/>
      <point x="406.176" y="9.979"/>
      <point x="406.024" y="9.979" type="curve" smooth="yes"/>
      <point x="371.022" y="9.979"/>
      <point x="342.625" y="38.029"/>
      <point x="341.97" y="72.864" type="curve"/>
    </contour>
    <contour>
      <point x="88.575" y="673.775" type="line"/>
      <point x="20" y="673.775" type="line"/>
      <point x="20" y="593.474" type="line"/>
      <point x="30.065" y="593.624" type="line"/>
      <point x="30.046" y="611.448" type="line" smooth="yes"/>
      <point x="30.046" y="644.025"/>
      <point x="56.151" y="670.457"/>
      <point x="88.575" y="671.067" type="curve"/>
    </contour>
    <contour>
      <point x="20" y="719.196" type="curve"/>
      <point x="20" y="689.918" type="line"/>
      <point x="141.931" y="700.996" type="line"/>
      <point x="98.571" y="700.996"/>
      <point x="38.949" y="711.21"/>
    </contour>
  </outline>
</glyph>
<glyph name="u" format="2">
  <advance width="785"/>
  <unicode hex="0075"/>
  <anchor x="396" y="-7" name="ogonek"/>
  <anchor x="402" y="764" name="top"/>
  <outline>
    <contour>
      <point x="184" y="700" type="line" smooth="yes"/>
      <point x="119" y="700" type="line"/>
      <point x="119" y="246" type="line" smooth="yes"/>
      <point x="119" y="90"/>
      <point x="230" y="-14"/>
      <point x="396" y="-14" type="curve" smooth="yes"/>
      <point x="558" y="-14"/>
      <point x="666" y="91"/>
      <point x="666" y="247" type="curve" smooth="yes"/>
      <point x="666" y="700" type="line"/>
      <point x="619" y="700" type="line"/>
      <point x="619" y="247" type="line" smooth="yes"/>
      <point x="619" y="109"/>
      <point x="530" y="17"/>
      <point x="396" y="17" type="curve" smooth="yes"/>
      <point x="269" y="17"/>
      <point x="184" y="115"/>
      <point x="184" y="260" type="curve"/>
    </contour>
    <contour>
      <point x="122" y="700" type="line"/>
      <point x="50" y="700" type="line"/>
      <point x="50" y="690" type="line"/>
      <point x="50" y="690"/>
      <point x="66" y="690"/>
      <point x="66" y="690" type="curve" smooth="yes"/>
      <point x="95" y="690"/>
      <point x="119" y="669"/>
      <point x="119" y="640" type="curve"/>
      <point x="122" y="640" type="line"/>
    </contour>
    <contour>
      <point x="253" y="700" type="line"/>
      <point x="182" y="700" type="line"/>
      <point x="182" y="640" type="line"/>
      <point x="184" y="640" type="line"/>
      <point x="184" y="669"/>
      <point x="208" y="690"/>
      <point x="237" y="690" type="curve" smooth="yes"/>
      <point x="237" y="690"/>
      <point x="253" y="690"/>
      <point x="253" y="690" type="curve"/>
    </contour>
    <contour>
      <point x="622" y="700" type="line"/>
      <point x="550" y="700" type="line"/>
      <point x="550" y="690" type="line"/>
      <point x="550" y="690"/>
      <point x="566" y="690"/>
      <point x="566" y="690" type="curve" smooth="yes"/>
      <point x="595" y="690"/>
      <point x="619" y="669"/>
      <point x="619" y="640" type="curve"/>
      <point x="622" y="640" type="line"/>
    </contour>
    <contour>
      <point x="735" y="700" type="line"/>
      <point x="664" y="700" type="line"/>
      <point x="664" y="640" type="line"/>
      <point x="666" y="640" type="line"/>
      <point x="666" y="669"/>
      <point x="690" y="690"/>
      <point x="719" y="690" type="curve" smooth="yes"/>
      <point x="719" y="690"/>
      <point x="735" y="690"/>
      <point x="735" y="690" type="curve"/>
    </contour>
  </outline>
</glyph>
<glyph name="v" format="2">
  <advance width="740"/>
  <unicode hex="0076"/>
  <outline>
    <contour>
      <point x="367.266" y="-14" type="line"/>
      <point x="387.28" y="81" type="line"/>
      <point x="142.107" y="694" type="line"/>
      <point x="57.047" y="694" type="line"/>
    </contour>
    <contour>
      <point x="367.266" y="-14" type="line"/>
      <point x="376.272" y="-14" type="line"/>
      <point x="376.272" y="7.987"/>
      <point x="413.298" y="89"/>
      <point x="413.298" y="89" type="curve"/>
      <point x="684.49" y="697" type="line"/>
      <point x="624.447" y="697" type="line"/>
      <point x="358.26" y="56" type="line"/>
    </contour>
    <contour>
      <point x="595.656" y="627.682" type="curve"/>
      <point x="653.415" y="627.351" type="line"/>
      <point x="673.626" y="671.9"/>
      <point x="710.704" y="690.059"/>
      <point x="741.351" y="690.059" type="curve" smooth="yes"/>
      <point x="741.351" y="690.059"/>
      <point x="750.142" y="690.059"/>
      <point x="750.142" y="690.059" type="curve"/>
      <point x="750.142" y="700.059" type="line"/>
      <point x="548.864" y="700.154" type="line"/>
      <point x="548.864" y="690.154" type="line"/>
      <point x="557.656" y="690.154" type="line" smooth="yes"/>
      <point x="583.473" y="690.154"/>
      <point x="610.258" y="667.7"/>
    </contour>
    <contour>
      <point x="168.628" y="627.683" type="line"/>
      <point x="154.026" y="667.7"/>
      <point x="180.572" y="690.154"/>
      <point x="206.388" y="690.154" type="curve" smooth="yes"/>
      <point x="215.18" y="690.154" type="line"/>
      <point x="215.18" y="700.154" type="line"/>
      <point x="-10" y="700.059" type="line"/>
      <point x="-10" y="690.059" type="line"/>
      <point x="-10" y="690.059"/>
      <point x="-2" y="690.059"/>
      <point x="-2" y="690.059" type="curve" smooth="yes"/>
      <point x="29.01" y="690.059"/>
      <point x="66.02" y="671.9"/>
      <point x="86.232" y="627.351" type="curve"/>
    </contour>
  </outline>
</glyph>
<glyph name="w" format="2">
  <advance width="982"/>
  <unicode hex="0077"/>
  <anchor x="507.149" y="774" name="top"/>
  <outline>
    <contour>
      <point x="62.662" y="693.96" type="line"/>
      <point x="312.596" y="-12" type="line"/>
      <point x="329.644" y="96.962" type="line"/>
      <point x="144.099" y="693.934" type="line"/>
    </contour>
    <contour>
      <point x="510.991" y="715.642" type="line"/>
      <point x="501.869" y="715.642" type="line"/>
      <point x="294.518" y="76.784" type="line"/>
      <point x="312.596" y="-12" type="line"/>
      <point x="322.032" y="-12" type="line"/>
      <point x="323.678" y="37.149"/>
      <point x="342.993" y="99.156"/>
      <point x="342.993" y="99.156" type="curve"/>
      <point x="519.16" y="634.818" type="line"/>
    </contour>
    <contour>
      <point x="511.182" y="715.321" type="line"/>
      <point x="477.49" y="607.38" type="line"/>
      <point x="698.988" y="-12" type="line"/>
      <point x="721.446" y="125.554" type="line"/>
    </contour>
    <contour>
      <point x="916.59" y="694.217" type="line"/>
      <point x="860.549" y="694.217" type="line"/>
      <point x="686.885" y="86.933" type="line"/>
      <point x="698.988" y="-12" type="line"/>
      <point x="708.424" y="-12" type="line"/>
      <point x="709.955" y="35.624"/>
      <point x="730.285" y="99.156"/>
      <point x="730.285" y="99.156" type="curve"/>
    </contour>
    <contour>
      <point x="841.595" y="627.831" type="curve"/>
      <point x="895.685" y="627.5" type="line"/>
      <point x="910.896" y="672.049"/>
      <point x="952.974" y="690"/>
      <point x="983.621" y="690" type="curve" smooth="yes"/>
      <point x="983.621" y="690"/>
      <point x="992.412" y="690"/>
      <point x="992.412" y="690" type="curve"/>
      <point x="992.412" y="700" type="line"/>
      <point x="794.803" y="700" type="line"/>
      <point x="794.803" y="690.093" type="line"/>
      <point x="803.595" y="690.093" type="line" smooth="yes"/>
      <point x="831.412" y="690.093"/>
      <point x="853.197" y="667.849"/>
    </contour>
    <contour>
      <point x="164.74" y="627.51" type="line"/>
      <point x="152.138" y="667.528"/>
      <point x="177.626" y="690.086"/>
      <point x="203.442" y="690.086" type="curve" smooth="yes"/>
      <point x="212.234" y="690.086" type="line"/>
      <point x="212.234" y="700" type="line"/>
      <point x="-10" y="700" type="line"/>
      <point x="-10" y="690" type="line"/>
      <point x="-10" y="690"/>
      <point x="-2" y="690"/>
      <point x="-2" y="690" type="curve" smooth="yes"/>
      <point x="28.994" y="690"/>
      <point x="70.004" y="672.059"/>
      <point x="86.216" y="627.51" type="curve"/>
    </contour>
  </outline>
</glyph>
<glyph name="x" format="2">
  <advance width="662"/>
  <unicode hex="0078"/>
  <outline>
    <contour>
      <point x="156.053" y="699.976" type="line"/>
      <point x="78.058" y="699.976" type="line"/>
      <point x="521.034" y="1" type="line"/>
      <point x="601.029" y="1" type="line"/>
    </contour>
    <contour>
      <point x="169.205" y="72.224" type="curve"/>
      <point x="105.648" y="68.943" type="line"/>
      <point x="84.371" y="38.071"/>
      <point x="45.851" y="10"/>
      <point x="3.854" y="10" type="curve" smooth="yes"/>
      <point x="-10" y="10" type="line"/>
      <point x="-10" y="0.145" type="line"/>
      <point x="216.802" y="0.145" type="line"/>
      <point x="216.802" y="10" type="line"/>
      <point x="216.802" y="10"/>
      <point x="204.202" y="10"/>
      <point x="204.202" y="10" type="curve" smooth="yes"/>
      <point x="176.928" y="10"/>
      <point x="151.472" y="43.838"/>
    </contour>
    <contour>
      <point x="309.045" y="371.999" type="line"/>
      <point x="60.059" y="1" type="line"/>
      <point x="124.055" y="1" type="line"/>
      <point x="332.044" y="329" type="line"/>
    </contour>
    <contour>
      <point x="476.341" y="71.578" type="line"/>
      <point x="493.073" y="43.192"/>
      <point x="468.616" y="10"/>
      <point x="441.343" y="10" type="curve" smooth="yes"/>
      <point x="441.343" y="10"/>
      <point x="428.744" y="10"/>
      <point x="428.744" y="10" type="curve"/>
      <point x="428.744" y="0" type="line"/>
      <point x="672.581" y="0" type="line"/>
      <point x="672.581" y="10" type="line"/>
      <point x="658.949" y="10" type="line" smooth="yes"/>
      <point x="616.951" y="10"/>
      <point x="579.432" y="37.454"/>
      <point x="558.154" y="68.326" type="curve"/>
    </contour>
    <contour>
      <point x="249.426" y="700" type="line"/>
      <point x="6.808" y="700" type="line"/>
      <point x="6.808" y="690.034" type="line"/>
      <point x="20.808" y="690.034" type="line" smooth="yes"/>
      <point x="62.805" y="690.034"/>
      <point x="100.325" y="662.076"/>
      <point x="121.602" y="631.204" type="curve"/>
      <point x="201.829" y="627.952" type="line"/>
      <point x="185.098" y="656.338"/>
      <point x="209.554" y="690.034"/>
      <point x="236.828" y="690.034" type="curve" smooth="yes"/>
      <point x="236.828" y="690.034"/>
      <point x="249.426" y="690.034"/>
      <point x="249.426" y="690.034" type="curve"/>
    </contour>
    <contour>
      <point x="586.03" y="699.981" type="line"/>
      <point x="521.034" y="699.981" type="line"/>
      <point x="317.045" y="377.999" type="line"/>
      <point x="351.043" y="354" type="line"/>
    </contour>
    <contour>
      <point x="654.124" y="700.017" type="line"/>
      <point x="428.642" y="700.017" type="line"/>
      <point x="428.642" y="689.993" type="line"/>
      <point x="428.642" y="689.993"/>
      <point x="441.242" y="689.993"/>
      <point x="441.242" y="689.993" type="curve" smooth="yes"/>
      <point x="468.515" y="689.993"/>
      <point x="492.035" y="656.326"/>
      <point x="475.302" y="627.94" type="curve"/>
      <point x="539.33" y="631.221" type="line"/>
      <point x="560.607" y="662.093"/>
      <point x="598.127" y="689.993"/>
      <point x="640.124" y="689.993" type="curve" smooth="yes"/>
      <point x="654.124" y="689.993" type="line"/>
    </contour>
  </outline>
</glyph>
<glyph name="y" format="2">
  <advance width="661"/>
  <unicode hex="0079"/>
  <anchor x="343" y="764" name="top"/>
  <outline>
    <contour>
      <point x="150" y="699" type="line"/>
      <point x="64" y="699" type="line"/>
      <point x="303" y="299" type="line"/>
      <point x="346" y="334" type="line"/>
    </contour>
    <contour>
      <point x="360" y="322" type="line"/>
      <point x="295" y="322" type="line"/>
      <point x="295" y="0" type="line"/>
      <point x="360" y="0" type="line"/>
    </contour>
    <contour>
      <point x="538" y="699" type="line"/>
      <point x="317" y="312" type="line"/>
      <point x="353" y="301" type="line"/>
      <point x="599" y="699" type="line"/>
    </contour>
    <contour>
      <point x="497" y="628" type="curve"/>
      <point x="557" y="631" type="line"/>
      <point x="578" y="662"/>
      <point x="616" y="690"/>
      <point x="658" y="690" type="curve" smooth="yes"/>
      <point x="672" y="690" type="line"/>
      <point x="672" y="700" type="line"/>
      <point x="450" y="700" type="line"/>
      <point x="450" y="690" type="line"/>
      <point x="450" y="690"/>
      <point x="462" y="690"/>
      <point x="462" y="690" type="curve" smooth="yes"/>
      <point x="490" y="690"/>
      <point x="514" y="656"/>
    </contour>
    <contour>
      <point x="188" y="628" type="line"/>
      <point x="174" y="656"/>
      <point x="194" y="690"/>
      <point x="223" y="690" type="curve" smooth="yes"/>
      <point x="223" y="690"/>
      <point x="236" y="690"/>
      <point x="236" y="690" type="curve"/>
      <point x="236" y="700" type="line"/>
      <point x="-10" y="700" type="line"/>
      <point x="-10" y="690" type="line"/>
      <point x="4" y="690" type="line" smooth="yes"/>
      <point x="46" y="690"/>
      <point x="85" y="662"/>
      <point x="104" y="631" type="curve"/>
    </contour>
    <contour>
      <point x="297" y="73" type="line"/>
      <point x="295" y="73" type="line"/>
      <point x="294" y="38"/>
      <point x="266" y="10"/>
      <point x="231" y="10" type="curve" smooth="yes"/>
      <point x="230" y="10"/>
      <point x="218" y="10"/>
      <point x="218" y="10" type="curve"/>
      <point x="218" y="0" type="line"/>
      <point x="297" y="0" type="line"/>
    </contour>
    <contour>
      <point x="357" y="73" type="line"/>
      <point x="357" y="0" type="line"/>
      <point x="436" y="0" type="line"/>
      <point x="436" y="10" type="line"/>
      <point x="436" y="10"/>
      <point x="424" y="10"/>
      <point x="424" y="10" type="curve" smooth="yes"/>
      <point x="389" y="10"/>
      <point x="360" y="38"/>
      <point x="360" y="73" type="curve"/>
    </contour>
  </outline>
</glyph>
<glyph name="bar" format="2">
  <advance width="245"/>
  <unicode hex="007C"/>
  <outline>
    <contour>
      <point x="100" y="700" type="line"/>
      <point x="100" y="-180" type="line"/>
      <point x="145" y="-180" type="line"/>
      <point x="145" y="700" type="line"/>
    </contour>
  </outline>
</glyph>
<glyph name="braceright" format="2">
  <advance width="432"/>
  <unicode hex="007D"/>
  <outline>
    <contour>
      <point x="281.37" y="298" type="curve" smooth="yes"/>
      <point x="337.37" y="323"/>
      <point x="412.37" y="313"/>
      <point x="432.37" y="221.787" type="curve"/>
      <point x="425.37" y="218.801" type="line"/>
      <point x="413.37" y="262"/>
      <point x="368.37" y="302"/>
      <point x="316.37" y="281" type="curve" smooth="yes"/>
      <point x="246.37" y="253"/>
      <point x="260.37" y="152"/>
      <point x="263.37" y="76" type="curve" smooth="yes"/>
      <point x="271.37" y="-154"/>
      <point x="151.37" y="-191"/>
      <point x="35.02" y="-128" type="curve"/>
      <point x="39.975" y="-121" type="line"/>
      <point x="175.37" y="-157"/>
      <point x="207.37" y="-67"/>
      <point x="202.37" y="69" type="curve" smooth="yes"/>
      <point x="199.37" y="146"/>
      <point x="187.37" y="256"/>
    </contour>
    <contour>
      <point x="281.37" y="342" type="curve" smooth="yes"/>
      <point x="195.37" y="380"/>
      <point x="197.37" y="483"/>
      <point x="201.37" y="571" type="curve" smooth="yes"/>
      <point x="206.37" y="695"/>
      <point x="186.37" y="799"/>
      <point x="39.974" y="760.688" type="curve"/>
      <point x="35" y="768.15" type="line"/>
      <point x="142.37" y="827"/>
      <point x="271.37" y="804"/>
      <point x="263.37" y="564" type="curve" smooth="yes"/>
      <point x="260.37" y="487"/>
      <point x="246.37" y="387"/>
      <point x="316.37" y="359" type="curve" smooth="yes"/>
      <point x="369.37" y="338"/>
      <point x="413.37" y="379"/>
      <point x="424.37" y="421.416" type="curve"/>
      <point x="432.37" y="418.402" type="line"/>
      <point x="412.37" y="326"/>
      <point x="335.37" y="318"/>
    </contour>
  </outline>
</glyph>
<glyph name="exclamdown" format="2">
  <advance width="230"/>
  <unicode hex="00A1"/>
  <outline>
    <contour>
      <point x="115" y="705.602" type="curve" smooth="yes"/>
      <point x="90.147" y="705.602"/>
      <point x="70" y="685.455"/>
      <point x="70" y="660.602" type="curve" smooth="yes"/>
      <point x="70" y="635.749"/>
      <point x="90.147" y="615.602"/>
      <point x="115" y="615.602" type="curve" smooth="yes"/>
      <point x="139.853" y="615.602"/>
      <point x="160" y="635.749"/>
      <point x="160" y="660.602" type="curve" smooth="yes"/>
      <point x="160" y="685.455"/>
      <point x="139.853" y="705.602"/>
    </contour>
    <contour>
      <point x="111.098" y="528.783" type="line"/>
      <point x="90.131" y="298.645" type="line"/>
      <point x="78.225" y="0" type="line"/>
      <point x="153.225" y="0" type="line"/>
      <point x="141.351" y="298.645" type="line"/>
      <point x="121.098" y="528.783" type="line"/>
    </contour>
  </outline>
</glyph>
<glyph name="cent" format="2">
  <advance width="602"/>
  <unicode hex="00A2"/>
  <outline>
    <contour>
      <point x="562.628" y="304.437" type="line"/>
      <point x="555.44" y="304.406" type="line"/>
      <point x="546.121" y="162.868"/>
      <point x="451.52" y="105.121"/>
      <point x="329.22" y="104.755" type="curve" smooth="yes"/>
      <point x="199.541" y="107.525"/>
      <point x="125" y="196.629"/>
      <point x="125" y="346.002" type="curve" smooth="yes"/>
      <point x="125" y="498.145"/>
      <point x="199.541" y="587.245"/>
      <point x="329.22" y="587.245" type="curve" smooth="yes"/>
      <point x="430.252" y="587.245"/>
      <point x="506.282" y="548.817"/>
      <point x="531.573" y="442.978" type="curve"/>
      <point x="538.763" y="442.95" type="line"/>
      <point x="521.334" y="564.955" type="line"/>
      <point x="470.971" y="597.375"/>
      <point x="397.967" y="617.245"/>
      <point x="329.219" y="617.245" type="curve" smooth="yes"/>
      <point x="162.05" y="617.245"/>
      <point x="50" y="514.173"/>
      <point x="50" y="346.002" type="curve" smooth="yes"/>
      <point x="50" y="178.62"/>
      <point x="162.05" y="75.619"/>
      <point x="329.219" y="74.755" type="curve"/>
      <point x="426.764" y="74.755"/>
      <point x="512.443" y="117.08"/>
      <point x="554.691" y="186.136" type="curve"/>
    </contour>
    <contour>
      <point x="342.947" y="700.726" type="line"/>
      <point x="286.184" y="-6" type="line"/>
      <point x="315.202" y="-9" type="line"/>
      <point x="373.47" y="699.677" type="line"/>
    </contour>
  </outline>
</glyph>
<glyph name="copyright" format="2">
  <advance width="848"/>
  <unicode hex="00A9"/>
  <outline>
    <contour>
      <point x="424" y="714" type="curve" smooth="yes"/>
      <point x="222.966" y="714"/>
      <point x="60" y="551.034"/>
      <point x="60" y="350" type="curve" smooth="yes"/>
      <point x="60" y="148.966"/>
      <point x="222.966" y="-14"/>
      <point x="424" y="-14" type="curve" smooth="yes"/>
      <point x="625.034" y="-14"/>
      <point x="788" y="148.966"/>
      <point x="788" y="350" type="curve" smooth="yes"/>
      <point x="788" y="551.034"/>
      <point x="625.034" y="714"/>
    </contour>
    <contour>
      <point x="424" y="677.419" type="curve" smooth="yes"/>
      <point x="604.83" y="677.419"/>
      <point x="751.419" y="530.83"/>
      <point x="751.419" y="350" type="curve" smooth="yes"/>
      <point x="751.419" y="169.17"/>
      <point x="604.83" y="22.581"/>
      <point x="424" y="22.581" type="curve" smooth="yes"/>
      <point x="243.17" y="22.581"/>
      <point x="96.581" y="169.17"/>
      <point x="96.581" y="350" type="curve" smooth="yes"/>
      <point x="96.581" y="530.83"/>
      <point x="243.17" y="677.419"/>
    </contour>
    <contour>
      <point x="621.991" y="315.806" type="line"/>
      <point x="616.077" y="315.781" type="line"/>
      <point x="608.411" y="199.337"/>
      <point x="530.582" y="153.417"/>
      <point x="429.965" y="153.116" type="curve" smooth="yes"/>
      <point x="336.944" y="155.103"/>
      <point x="267.178" y="239.482"/>
      <point x="267.178" y="350" type="curve" smooth="yes"/>
      <point x="267.178" y="462.507"/>
      <point x="336.944" y="546.886"/>
      <point x="429.965" y="546.886" type="curve" smooth="yes"/>
      <point x="515.831" y="546.886"/>
      <point x="579.092" y="502.387"/>
      <point x="596.442" y="429.784" type="curve"/>
      <point x="602.357" y="429.761" type="line"/>
      <point x="588.018" y="530.135" type="line"/>
      <point x="546.584" y="556.807"/>
      <point x="486.524" y="573.154"/>
      <point x="429.965" y="573.154" type="curve" smooth="yes"/>
      <point x="299.133" y="573.154"/>
      <point x="201.009" y="477.517"/>
      <point x="201.009" y="350" type="curve" smooth="yes"/>
      <point x="201.009" y="223.16"/>
      <point x="299.133" y="127.522"/>
      <point x="429.965" y="126.846" type="curve"/>
      <point x="510.215" y="126.846"/>
      <point x="580.703" y="161.667"/>
      <point x="615.461" y="218.48" type="curve"/>
    </contour>
  </outline>
</glyph>
<glyph name="ordfeminine" format="2">
  <advance width="368"/>
  <unicode hex="00AA"/>
  <outline>
    <contour>
      <point x="186.484" y="714" type="line"/>
      <point x="176.11" y="658.746" type="line"/>
      <point x="283.492" y="381.189" type="line"/>
      <point x="338.069" y="381.189" type="line"/>
    </contour>
    <contour>
      <point x="91.406" y="419.536" type="curve"/>
      <point x="48.776" y="419.726" type="line"/>
      <point x="36.727" y="394.071"/>
      <point x="19.579" y="383.438"/>
      <point x="4.364" y="383.438" type="curve" smooth="yes"/>
      <point x="4.364" y="383.438"/>
      <point x="0" y="383.438"/>
      <point x="0" y="383.438" type="curve"/>
      <point x="0" y="377.679" type="line"/>
      <point x="114.463" y="377.679" type="line"/>
      <point x="114.463" y="383.385" type="line"/>
      <point x="110.098" y="383.385" type="line" smooth="yes"/>
      <point x="97.281" y="383.385"/>
      <point x="82.005" y="396.49"/>
    </contour>
    <contour>
      <point x="186.484" y="714" type="line"/>
      <point x="181.297" y="714" type="line"/>
      <point x="180.145" y="698.935"/>
      <point x="159.974" y="654.683"/>
      <point x="159.974" y="654.683" type="curve"/>
      <point x="29.712" y="379.461" type="line"/>
      <point x="74.337" y="379.461" type="line"/>
      <point x="190.942" y="653.034" type="line"/>
    </contour>
    <contour>
      <point x="250.465" y="510.087" type="line"/>
      <point x="105.213" y="510.087" type="line"/>
      <point x="105.213" y="485.947" type="line"/>
      <point x="250.465" y="485.947" type="line"/>
    </contour>
    <contour>
      <point x="268.651" y="419.535" type="line"/>
      <point x="277.476" y="396.49"/>
      <point x="262.528" y="383.386"/>
      <point x="249.711" y="383.386" type="curve" smooth="yes"/>
      <point x="245.346" y="383.386" type="line"/>
      <point x="245.346" y="377.679" type="line"/>
      <point x="368.302" y="377.679" type="line"/>
      <point x="368.302" y="383.438" type="line"/>
      <point x="368.302" y="383.438"/>
      <point x="364.151" y="383.438"/>
      <point x="364.151" y="383.438" type="curve" smooth="yes"/>
      <point x="348.936" y="383.438"/>
      <point x="333.441" y="394.071"/>
      <point x="320.527" y="419.727" type="curve"/>
    </contour>
  </outline>
</glyph>
<glyph name="guillemotleft" format="2">
  <advance width="425"/>
  <unicode hex="00AB"/>
  <outline>
    <contour>
      <point x="40" y="292" type="curve"/>
      <point x="108" y="348"/>
      <point x="161" y="400"/>
      <point x="215" y="490" type="curve"/>
      <point x="223" y="485" type="line"/>
      <point x="194" y="410"/>
      <point x="154" y="346"/>
      <point x="105" y="292" type="curve"/>
      <point x="155" y="236"/>
      <point x="194" y="170"/>
      <point x="224" y="95" type="curve"/>
      <point x="215" y="90" type="line"/>
      <point x="162" y="173"/>
      <point x="108" y="234"/>
    </contour>
    <contour>
      <point x="202" y="292" type="curve"/>
      <point x="270" y="348"/>
      <point x="323" y="400"/>
      <point x="377" y="490" type="curve"/>
      <point x="385" y="485" type="line"/>
      <point x="356" y="410"/>
      <point x="316" y="346"/>
      <point x="267" y="292" type="curve"/>
      <point x="317" y="236"/>
      <point x="356" y="170"/>
      <point x="386" y="95" type="curve"/>
      <point x="377" y="90" type="line"/>
      <point x="324" y="173"/>
      <point x="270" y="234"/>
    </contour>
  </outline>
</glyph>
<glyph name="plusminus" format="2">
  <advance width="481"/>
  <unicode hex="00B1"/>
  <outline>
    <contour>
      <point x="40" y="105" type="line"/>
      <point x="40" y="60" type="line"/>
      <point x="441.723" y="60" type="line"/>
      <point x="441.723" y="105" type="line"/>
    </contour>
    <contour>
      <point x="218.362" y="178.891" type="line"/>
      <point x="263.362" y="178.891" type="line"/>
      <point x="263.362" y="580.614" type="line"/>
      <point x="218.362" y="580.614" type="line"/>
    </contour>
    <contour>
      <point x="40" y="402.253" type="line"/>
      <point x="40" y="357.253" type="line"/>
      <point x="441.723" y="357.253" type="line"/>
      <point x="441.723" y="402.253" type="line"/>
    </contour>
  </outline>
</glyph>
<glyph name="threesuperior" format="2">
  <advance width="310"/>
  <unicode hex="00B3"/>
  <outline>
    <contour>
      <point x="134.791" y="712.276" type="curve" smooth="yes"/>
      <point x="87.965" y="711.621"/>
      <point x="57.834" y="696.812"/>
      <point x="39.726" y="674.744" type="curve"/>
      <point x="51.292" y="612.611" type="line"/>
      <point x="57.959" y="612.611" type="line"/>
      <point x="56.023" y="668.79"/>
      <point x="84.226" y="688.276"/>
      <point x="134.791" y="688.276" type="curve" smooth="yes"/>
      <point x="176.283" y="688.276"/>
      <point x="204.711" y="662.976"/>
      <point x="205.573" y="623.019" type="curve" smooth="yes"/>
      <point x="206.847" y="563.91"/>
      <point x="153.367" y="529.344"/>
      <point x="90.188" y="529.344" type="curve"/>
      <point x="88.973" y="522.677" type="line"/>
      <point x="168.621" y="522.677"/>
      <point x="218.906" y="499.795"/>
      <point x="218.906" y="437.38" type="curve" smooth="yes"/>
      <point x="218.906" y="339.942"/>
      <point x="137.148" y="290.276"/>
      <point x="31.333" y="292.943" type="curve"/>
      <point x="30" y="286.276" type="line"/>
      <point x="164.749" y="259.609"/>
      <point x="271.573" y="320.609"/>
      <point x="271.573" y="439.38" type="curve" smooth="yes"/>
      <point x="271.573" y="500.765"/>
      <point x="198.785" y="539.805"/>
      <point x="140.321" y="532.592" type="curve"/>
      <point x="189.279" y="520.711"/>
      <point x="258.239" y="568.571"/>
      <point x="258.239" y="621.331" type="curve" smooth="yes"/>
      <point x="258.239" y="675.284"/>
      <point x="205.26" y="713.261"/>
    </contour>
  </outline>
</glyph>
<glyph name="acute" format="2">
  <advance width="439"/>
  <unicode hex="00B4"/>
  <anchor x="207.739" y="746" name="_top"/>
  <outline>
    <contour>
      <point x="200.671" y="752.971" type="curve"/>
      <point x="207.671" y="745.971" type="line"/>
      <point x="261.294" y="772.399"/>
      <point x="314.918" y="799.828"/>
      <point x="368.541" y="831.256" type="curve"/>
      <point x="357.907" y="850.792"/>
      <point x="343.272" y="868.329"/>
      <point x="327.638" y="883.865" type="curve"/>
      <point x="285.316" y="843.234"/>
      <point x="242.993" y="798.602"/>
    </contour>
  </outline>
</glyph>
<glyph name="periodcentered" format="2">
  <advance width="170"/>
  <unicode hex="00B7"/>
  <outline>
    <contour>
      <point x="85" y="366" type="curve" smooth="yes"/>
      <point x="52" y="366"/>
      <point x="20" y="347"/>
      <point x="10" y="321" type="curve"/>
      <point x="20" y="295"/>
      <point x="52" y="276"/>
      <point x="85" y="276" type="curve" smooth="yes"/>
      <point x="118" y="276"/>
      <point x="150" y="295"/>
      <point x="160" y="321" type="curve"/>
      <point x="150" y="347"/>
      <point x="118" y="366"/>
    </contour>
    <contour>
      <point x="85" y="346" type="curve" smooth="yes"/>
      <point x="103" y="346"/>
      <point x="126" y="335"/>
      <point x="132" y="321" type="curve"/>
      <point x="126" y="307"/>
      <point x="103" y="296"/>
      <point x="85" y="296" type="curve" smooth="yes"/>
      <point x="67" y="296"/>
      <point x="44" y="307"/>
      <point x="38" y="321" type="curve"/>
      <point x="44" y="335"/>
      <point x="67" y="346"/>
    </contour>
  </outline>
</glyph>
<glyph name="cedilla" format="2">
  <advance width="600"/>
  <unicode hex="00B8"/>
  <anchor x="305.633" y="0" name="_bottom"/>
  <outline>
    <contour>
      <point x="295.707" y="0.777" type="line"/>
      <point x="247.777" y="-62" type="line"/>
      <point x="247.777" y="-62"/>
      <point x="252.777" y="-72"/>
      <point x="252.777" y="-72" type="curve"/>
      <point x="288.407" y="-57"/>
      <point x="335.044" y="-63"/>
      <point x="336.543" y="-105" type="curve" smooth="yes"/>
      <point x="338.278" y="-153"/>
      <point x="287.524" y="-169"/>
      <point x="246.502" y="-169" type="curve"/>
      <point x="245.777" y="-179" type="line"/>
      <point x="312.801" y="-200"/>
      <point x="388.543" y="-169"/>
      <point x="386.543" y="-106" type="curve" smooth="yes"/>
      <point x="384.371" y="-37"/>
      <point x="316.685" y="-36"/>
      <point x="281.699" y="-48" type="curve"/>
      <point x="323.358" y="0.777" type="line"/>
    </contour>
  </outline>
</glyph>
<glyph name="onesuperior" format="2">
  <advance width="211"/>
  <unicode hex="00B9"/>
  <outline>
    <contour>
      <point x="191.361" y="308" type="line"/>
      <point x="44.993" y="308" type="line"/>
      <point x="45.085" y="314.667" type="line"/>
      <point x="59.022" y="314.653" type="line" smooth="yes"/>
      <point x="79.118" y="314.632"/>
      <point x="95.833" y="330.739"/>
      <point x="95.833" y="350.735" type="curve" smooth="yes"/>
      <point x="95.833" y="632" type="line"/>
      <point x="95.833" y="653.467"/>
      <point x="85.243" y="664.667"/>
      <point x="65.155" y="664.667" type="curve"/>
      <point x="40" y="664.667" type="line"/>
      <point x="40" y="671.333" type="line"/>
      <point x="74.672" y="676.015"/>
      <point x="107.877" y="683.099"/>
      <point x="133.865" y="714" type="curve"/>
      <point x="140.531" y="714" type="line"/>
      <point x="140.531" y="350.3" type="line" smooth="yes"/>
      <point x="140.531" y="330.5"/>
      <point x="157.381" y="314.633"/>
      <point x="177.331" y="314.653" type="curve" smooth="yes"/>
      <point x="191.268" y="314.667" type="line"/>
    </contour>
  </outline>
</glyph>
<glyph name="guillemotright" format="2">
  <advance width="425"/>
  <unicode hex="00BB"/>
  <outline>
    <contour>
      <point x="385.802" y="291.757" type="curve"/>
      <point x="317.535" y="234.41"/>
      <point x="264.267" y="173.062"/>
      <point x="211" y="89.715" type="curve"/>
      <point x="202" y="94.715" type="line"/>
      <point x="231.601" y="170.396"/>
      <point x="271.201" y="236.076"/>
      <point x="320.802" y="291.757" type="curve"/>
      <point x="271.535" y="346.076"/>
      <point x="232.267" y="410.396"/>
      <point x="203" y="484.715" type="curve"/>
      <point x="211" y="489.715" type="line"/>
      <point x="265.267" y="399.729"/>
      <point x="317.535" y="347.743"/>
    </contour>
    <contour>
      <point x="223.802" y="291.757" type="curve"/>
      <point x="155.535" y="234.41"/>
      <point x="102.267" y="173.062"/>
      <point x="49" y="89.715" type="curve"/>
      <point x="40" y="94.715" type="line"/>
      <point x="69.601" y="170.396"/>
      <point x="109.201" y="236.076"/>
      <point x="158.802" y="291.757" type="curve"/>
      <point x="109.535" y="346.076"/>
      <point x="70.267" y="410.396"/>
      <point x="41" y="484.715" type="curve"/>
      <point x="49" y="489.715" type="line"/>
      <point x="103.267" y="399.729"/>
      <point x="155.535" y="347.743"/>
    </contour>
  </outline>
</glyph>
<glyph name="threequarters" format="2">
  <advance width="713"/>
  <unicode hex="00BE"/>
  <outline>
    <contour>
      <point x="134.791" y="712.276" type="curve" smooth="yes"/>
      <point x="87.965" y="711.621"/>
      <point x="57.834" y="696.812"/>
      <point x="39.726" y="674.744" type="curve"/>
      <point x="51.292" y="612.611" type="line"/>
      <point x="57.959" y="612.611" type="line"/>
      <point x="56.023" y="668.79"/>
      <point x="84.226" y="688.276"/>
      <point x="134.791" y="688.276" type="curve" smooth="yes"/>
      <point x="176.283" y="688.276"/>
      <point x="204.711" y="662.976"/>
      <point x="205.573" y="623.019" type="curve" smooth="yes"/>
      <point x="206.847" y="563.91"/>
      <point x="153.367" y="529.344"/>
      <point x="90.188" y="529.344" type="curve"/>
      <point x="88.973" y="522.677" type="line"/>
      <point x="168.621" y="522.677"/>
      <point x="218.906" y="499.795"/>
      <point x="218.906" y="437.38" type="curve" smooth="yes"/>
      <point x="218.906" y="339.942"/>
      <point x="137.148" y="290.276"/>
      <point x="31.333" y="292.943" type="curve"/>
      <point x="30" y="286.276" type="line"/>
      <point x="164.749" y="259.609"/>
      <point x="271.573" y="320.609"/>
      <point x="271.573" y="439.38" type="curve" smooth="yes"/>
      <point x="271.573" y="500.765"/>
      <point x="198.785" y="539.805"/>
      <point x="140.321" y="532.592" type="curve"/>
      <point x="189.279" y="520.711"/>
      <point x="258.239" y="568.571"/>
      <point x="258.239" y="621.331" type="curve" smooth="yes"/>
      <point x="258.239" y="675.284"/>
      <point x="205.26" y="713.261"/>
    </contour>
    <contour>
      <point x="577.73" y="338.333" type="line"/>
      <point x="577.73" y="0" type="line"/>
      <point x="622.063" y="0" type="line"/>
      <point x="622.063" y="405" type="line"/>
      <point x="615.82" y="405" type="line"/>
    </contour>
    <contour>
      <point x="615.404" y="405" type="line"/>
      <point x="395.633" y="136.509" type="line"/>
      <point x="395.633" y="129.842" type="line"/>
      <point x="680.164" y="129.842" type="line"/>
      <point x="694.164" y="176.842" type="line"/>
      <point x="687.497" y="176.842" type="line"/>
      <point x="679.497" y="167.578"/>
      <point x="675.628" y="163.509"/>
      <point x="651.069" y="163.509" type="curve"/>
      <point x="449.595" y="163.509" type="line"/>
      <point x="622.071" y="378.333" type="line"/>
    </contour>
    <contour>
      <point x="622.061" y="41.667" type="curve"/>
      <point x="577.757" y="41.667" type="line"/>
      <point x="577.757" y="21"/>
      <point x="561.042" y="5.667"/>
      <point x="540.945" y="5.667" type="curve" smooth="yes"/>
      <point x="533.675" y="5.667" type="line"/>
      <point x="533.583" y="-1" type="line"/>
      <point x="666.224" y="-1" type="line"/>
      <point x="666.131" y="5.667" type="line"/>
      <point x="658.861" y="5.667" type="line" smooth="yes"/>
      <point x="638.911" y="5.667"/>
      <point x="622.061" y="21.667"/>
    </contour>
    <component base="fraction" xOffset="123"/>
  </outline>
</glyph>
<glyph name="AE" format="2">
  <advance width="872"/>
  <unicode hex="00C6"/>
  <anchor x="552" y="700" name="top"/>
  <outline>
    <contour>
      <point x="650.498" y="700" type="line"/>
      <point x="377.553" y="700" type="line"/>
      <point x="377.553" y="690" type="line"/>
      <point x="381.553" y="690" type="line"/>
      <point x="400.307" y="690"/>
      <point x="411.17" y="672.717"/>
      <point x="403.278" y="655.434" type="curve"/>
      <point x="36.51" y="78.594" type="line" smooth="yes"/>
      <point x="-33" y="-31"/>
      <point x="-104" y="-77"/>
      <point x="-199" y="-81" type="curve"/>
      <point x="-200" y="-91" type="line"/>
      <point x="-117" y="-111"/>
      <point x="12.211" y="-80"/>
      <point x="90.216" y="54.501" type="curve" smooth="yes"/>
      <point x="427.757" y="635.308" type="line" smooth="yes"/>
      <point x="460.757" y="669.409" type="line"/>
      <point x="650.498" y="669.409" type="line"/>
    </contour>
    <contour>
      <point x="470.588" y="700" type="line"/>
      <point x="405.555" y="653.94" type="line"/>
      <point x="405.555" y="0" type="line"/>
      <point x="470.588" y="0" type="line"/>
    </contour>
    <contour>
      <point x="722.946" y="350.218" type="line"/>
      <point x="237.949" y="350.218" type="line"/>
      <point x="232.949" y="320.218" type="line"/>
      <point x="722.946" y="320.218" type="line"/>
    </contour>
    <contour>
      <point x="407.788" y="58.357" type="line"/>
      <point x="405.55" y="58.357" type="line"/>
      <point x="405.046" y="31.561"/>
      <point x="383.202" y="9.984"/>
      <point x="356.278" y="9.984" type="curve" smooth="yes"/>
      <point x="356.161" y="9.984"/>
      <point x="346.668" y="10"/>
      <point x="346.547" y="10" type="curve"/>
      <point x="346.423" y="0" type="line"/>
      <point x="407.788" y="0" type="line"/>
    </contour>
    <contour>
      <point x="810.544" y="30.59" type="line"/>
      <point x="467.769" y="30.59" type="line"/>
      <point x="467.769" y="0" type="line"/>
      <point x="810.544" y="0" type="line"/>
    </contour>
    <contour>
      <point x="867.685" y="138.8" type="line"/>
      <point x="857.685" y="138.8" type="line"/>
      <point x="831.347" y="75.876"/>
      <point x="782.841" y="30.576"/>
      <point x="702.706" y="30.576" type="curve"/>
      <point x="672.703" y="0" type="line"/>
      <point x="811.993" y="0" type="line"/>
    </contour>
    <contour>
      <point x="722.946" y="322.487" type="line"/>
      <point x="664.59" y="322.487" type="line"/>
      <point x="664.59" y="320.249" type="line"/>
      <point x="691.385" y="319.745"/>
      <point x="712.961" y="297.901"/>
      <point x="712.961" y="270.977" type="curve" smooth="yes"/>
      <point x="712.946" y="256.243" type="line"/>
      <point x="722.946" y="256.119" type="line"/>
    </contour>
    <contour>
      <point x="722.946" y="414.375" type="line"/>
      <point x="712.946" y="414.25" type="line"/>
      <point x="712.963" y="399.516" type="line" smooth="yes"/>
      <point x="712.963" y="372.593"/>
      <point x="691.385" y="350.753"/>
      <point x="664.59" y="350.248" type="curve"/>
      <point x="664.59" y="348.012" type="line"/>
      <point x="722.946" y="348.012" type="line"/>
    </contour>
    <contour>
      <point x="650.498" y="671.625" type="line"/>
      <point x="592.143" y="671.625" type="line"/>
      <point x="592.143" y="669.387" type="line"/>
      <point x="618.94" y="668.883"/>
      <point x="640.514" y="647.038"/>
      <point x="640.514" y="620.115" type="curve" smooth="yes"/>
      <point x="640.498" y="605.384" type="line"/>
      <point x="650.498" y="605.26" type="line"/>
    </contour>
    <contour>
      <point x="650.498" y="718.187" type="line"/>
      <point x="631.549" y="710.201"/>
      <point x="571.926" y="699.987"/>
      <point x="528.567" y="699.987" type="curve"/>
      <point x="650.498" y="688.909" type="line"/>
    </contour>
  </outline>
</glyph>
<glyph name="Eth" format="2">
  <advance width="817"/>
  <unicode hex="00D0"/>
  <outline>
    <contour>
      <point x="60" y="365" type="line"/>
      <point x="60" y="335" type="line"/>
      <point x="370" y="335" type="line"/>
      <point x="370" y="365" type="line"/>
    </contour>
    <contour>
      <point x="202" y="700" type="line"/>
      <point x="137" y="700" type="line"/>
      <point x="137" y="0" type="line"/>
      <point x="202" y="0" type="line"/>
    </contour>
    <contour>
      <point x="140" y="0" type="line"/>
      <point x="140" y="73" type="line"/>
      <point x="137" y="73" type="line"/>
      <point x="137" y="38"/>
      <point x="108" y="10"/>
      <point x="73" y="10" type="curve" smooth="yes"/>
      <point x="73" y="10"/>
      <point x="61" y="10"/>
      <point x="61" y="10" type="curve"/>
      <point x="60" y="0" type="line"/>
    </contour>
    <contour>
      <point x="399" y="0" type="line" smooth="yes"/>
      <point x="612" y="0"/>
      <point x="758" y="140"/>
      <point x="758" y="350" type="curve" smooth="yes"/>
      <point x="758" y="560"/>
      <point x="612" y="695"/>
      <point x="399" y="700" type="curve" smooth="yes"/>
      <point x="306" y="702"/>
      <point x="229" y="704"/>
      <point x="165" y="703" type="curve" smooth="yes"/>
      <point x="1" y="699"/>
      <point x="-82" y="671"/>
      <point x="-121" y="554" type="curve"/>
      <point x="-110" y="550" type="line"/>
      <point x="-74" y="617"/>
      <point x="-30" y="671"/>
      <point x="184" y="670" type="curve" smooth="yes"/>
      <point x="209" y="670"/>
      <point x="399" y="669"/>
      <point x="399" y="669" type="curve" smooth="yes"/>
      <point x="570" y="669"/>
      <point x="683" y="542"/>
      <point x="683" y="350" type="curve" smooth="yes"/>
      <point x="683" y="158"/>
      <point x="569" y="30"/>
      <point x="399" y="30" type="curve"/>
      <point x="399" y="30"/>
      <point x="175" y="30"/>
      <point x="174" y="30" type="curve"/>
      <point x="174" y="0" type="line"/>
    </contour>
  </outline>
</glyph>
<glyph name="multiply" format="2">
  <advance width="415"/>
  <unicode hex="00D7"/>
  <outline>
    <contour>
      <point x="366" y="436" type="line"/>
      <point x="334" y="468" type="line"/>
      <point x="50" y="184" type="line"/>
      <point x="82" y="152" type="line"/>
    </contour>
    <contour>
      <point x="82" y="468" type="line"/>
      <point x="50" y="436" type="line"/>
      <point x="334" y="152" type="line"/>
      <point x="366" y="184" type="line"/>
    </contour>
  </outline>
</glyph>
<glyph name="Oslash" format="2">
  <advance width="929"/>
  <unicode hex="00D8"/>
  <anchor x="469" y="764" name="top"/>
  <outline>
    <contour>
      <point x="759.389" y="722.336" type="line"/>
      <point x="157.844" y="-1" type="line"/>
      <point x="182.854" y="-23" type="line"/>
      <point x="784.701" y="699.577" type="line"/>
    </contour>
    <contour>
      <point x="276.834" y="467.041" type="curve"/>
      <point x="286.834" y="469.041" type="line"/>
      <point x="272" y="560"/>
      <point x="349" y="684"/>
      <point x="515" y="684" type="curve" smooth="yes"/>
      <point x="700" y="684"/>
      <point x="792" y="531"/>
      <point x="792" y="363" type="curve" smooth="yes"/>
      <point x="792" y="154"/>
      <point x="651" y="16"/>
      <point x="459" y="16" type="curve" smooth="yes"/>
      <point x="275" y="16"/>
      <point x="137" y="143"/>
      <point x="137" y="375" type="curve" smooth="yes"/>
      <point x="137" y="479"/>
      <point x="165" y="609"/>
      <point x="258.903" y="670.769" type="curve"/>
      <point x="252.903" y="679.769" type="line"/>
      <point x="129" y="617"/>
      <point x="60" y="502"/>
      <point x="60" y="360" type="curve" smooth="yes"/>
      <point x="60" y="136"/>
      <point x="231" y="-14"/>
      <point x="461" y="-14" type="curve" smooth="yes"/>
      <point x="693" y="-14"/>
      <point x="869" y="138"/>
      <point x="869" y="361" type="curve" smooth="yes"/>
      <point x="869" y="558"/>
      <point x="731" y="714"/>
      <point x="523" y="714" type="curve" smooth="yes"/>
      <point x="314" y="714"/>
      <point x="259" y="558"/>
    </contour>
  </outline>
</glyph>
<glyph name="ae" format="2">
  <advance width="901"/>
  <unicode hex="00E6"/>
  <guideline x="330.93" y="600" angle="0"/>
  <anchor x="625" y="500" name="top"/>
  <outline>
    <contour>
      <point x="153" y="67" type="curve"/>
      <point x="89" y="71" type="line"/>
      <point x="69" y="40"/>
      <point x="30" y="10"/>
      <point x="-3" y="10" type="curve" smooth="yes"/>
      <point x="-3" y="10"/>
      <point x="-10" y="10"/>
      <point x="-10" y="10" type="curve"/>
      <point x="-10" y="0" type="line"/>
      <point x="189" y="0" type="line"/>
      <point x="189" y="10" type="line"/>
      <point x="179" y="10" type="line" smooth="yes"/>
      <point x="149" y="8"/>
      <point x="136" y="39"/>
    </contour>
    <contour>
      <point x="531" y="700" type="line"/>
      <point x="466" y="654" type="line"/>
      <point x="466" y="0" type="line"/>
      <point x="531" y="0" type="line"/>
    </contour>
    <contour>
      <point x="468" y="58" type="line"/>
      <point x="466" y="58" type="line"/>
      <point x="465" y="32"/>
      <point x="443" y="10"/>
      <point x="416" y="10" type="curve" smooth="yes"/>
      <point x="416" y="10"/>
      <point x="407" y="10"/>
      <point x="407" y="10" type="curve"/>
      <point x="406" y="0" type="line"/>
      <point x="468" y="0" type="line"/>
    </contour>
    <contour>
      <point x="801" y="31" type="line"/>
      <point x="528" y="31" type="line"/>
      <point x="528" y="0" type="line"/>
      <point x="801" y="0" type="line"/>
    </contour>
    <contour>
      <point x="758" y="350" type="line"/>
      <point x="298" y="350" type="line"/>
      <point x="293" y="320" type="line"/>
      <point x="758" y="320" type="line"/>
    </contour>
    <contour>
      <point x="800" y="700" type="line"/>
      <point x="438" y="700" type="line"/>
      <point x="438" y="690" type="line"/>
      <point x="442" y="690" type="line"/>
      <point x="460" y="690"/>
      <point x="471" y="673"/>
      <point x="463" y="655" type="curve"/>
      <point x="46" y="3" type="line"/>
      <point x="115" y="3" type="line"/>
      <point x="488" y="635" type="line" smooth="yes"/>
      <point x="491" y="669" type="line"/>
      <point x="800" y="669" type="line"/>
    </contour>
    <contour>
      <point x="858" y="139" type="line"/>
      <point x="848" y="139" type="line"/>
      <point x="821" y="76"/>
      <point x="773" y="31"/>
      <point x="693" y="31" type="curve"/>
      <point x="663" y="0" type="line"/>
      <point x="801.993" y="0" type="line"/>
    </contour>
    <contour>
      <point x="758" y="322" type="line"/>
      <point x="700" y="322" type="line"/>
      <point x="700" y="320" type="line"/>
      <point x="726" y="320"/>
      <point x="748" y="298"/>
      <point x="748" y="271" type="curve" smooth="yes"/>
      <point x="748" y="256" type="line"/>
      <point x="758" y="256" type="line"/>
    </contour>
    <contour>
      <point x="758" y="414" type="line"/>
      <point x="748" y="414" type="line"/>
      <point x="748" y="400" type="line" smooth="yes"/>
      <point x="748" y="373"/>
      <point x="726" y="351"/>
      <point x="700" y="350" type="curve"/>
      <point x="700" y="348" type="line"/>
      <point x="758" y="348" type="line"/>
    </contour>
    <contour>
      <point x="800" y="672" type="line"/>
      <point x="742" y="672" type="line"/>
      <point x="742" y="669" type="line"/>
      <point x="769" y="669"/>
      <point x="791" y="647"/>
      <point x="791" y="620" type="curve" smooth="yes"/>
      <point x="790" y="605" type="line"/>
      <point x="800" y="605" type="line"/>
    </contour>
    <contour>
      <point x="800" y="718" type="line"/>
      <point x="782" y="710"/>
      <point x="722" y="700"/>
      <point x="679" y="700" type="curve"/>
      <point x="800" y="689" type="line"/>
    </contour>
  </outline>
</glyph>
<glyph name="eth" format="2">
  <advance width="817"/>
  <unicode hex="00F0"/>
  <outline>
    <contour>
      <point x="60" y="365.016" type="line"/>
      <point x="60" y="335.016" type="line"/>
      <point x="370" y="335.016" type="line"/>
      <point x="370" y="365.016" type="line"/>
    </contour>
    <contour>
      <point x="403.442" y="699.975" type="curve"/>
      <point x="179.031" y="699.975" type="line"/>
      <point x="179.031" y="669.931" type="line"/>
      <point x="179.437" y="669.931"/>
      <point x="403.442" y="669.944"/>
      <point x="403.442" y="669.944" type="curve" smooth="yes"/>
      <point x="573.846" y="669.944"/>
      <point x="687.584" y="541.85"/>
      <point x="687.584" y="349.709" type="curve" smooth="yes"/>
      <point x="687.584" y="158.148"/>
      <point x="573.846" y="30.44"/>
      <point x="403.442" y="30.44" type="curve" smooth="yes"/>
      <point x="403.442" y="30.44"/>
      <point x="189.275" y="30.452"/>
      <point x="188.869" y="30.452" type="curve"/>
      <point x="190.405" y="0.057" type="line"/>
      <point x="403.442" y="0.057" type="line"/>
      <point x="617.035" y="0.057"/>
      <point x="757.584" y="139.952"/>
      <point x="757.584" y="349.709" type="curve" smooth="yes"/>
      <point x="757.584" y="559.884"/>
      <point x="617.035" y="699.975"/>
    </contour>
    <contour>
      <point x="206.889" y="699.975" type="line"/>
      <point x="141.768" y="699.975" type="line"/>
      <point x="141.768" y="0.057" type="line"/>
      <point x="206.889" y="0.057" type="line"/>
    </contour>
    <contour>
      <point x="144.681" y="72.864" type="line"/>
      <point x="141.771" y="72.864" type="line"/>
      <point x="141.116" y="38.029"/>
      <point x="112.719" y="9.979"/>
      <point x="77.717" y="9.979" type="curve" smooth="yes"/>
      <point x="77.565" y="9.979"/>
      <point x="65.224" y="10"/>
      <point x="65.067" y="10" type="curve"/>
      <point x="64.906" y="0" type="line"/>
      <point x="144.681" y="0" type="line"/>
    </contour>
    <contour>
      <point x="145.032" y="627.196" type="line"/>
      <point x="145.032" y="700.06" type="line"/>
      <point x="65.257" y="700.06" type="line"/>
      <point x="65.419" y="690.06" type="line"/>
      <point x="65.576" y="690.06"/>
      <point x="77.917" y="690.08"/>
      <point x="78.069" y="690.08" type="curve" smooth="yes"/>
      <point x="113.07" y="690.08"/>
      <point x="141.467" y="662.03"/>
      <point x="142.123" y="627.196" type="curve"/>
    </contour>
  </outline>
</glyph>
<glyph name="oslash" format="2">
  <advance width="848"/>
  <unicode hex="00F8"/>
  <anchor x="290" y="500" name="top"/>
  <outline>
    <contour>
      <point x="699" y="722" type="line"/>
      <point x="98" y="-1" type="line"/>
      <point x="123" y="-23" type="line"/>
      <point x="725" y="700" type="line"/>
    </contour>
    <contour>
      <point x="424" y="714" type="curve" smooth="yes"/>
      <point x="197" y="714"/>
      <point x="40" y="568"/>
      <point x="40" y="349.992" type="curve" smooth="yes"/>
      <point x="40" y="132"/>
      <point x="197" y="-14"/>
      <point x="424" y="-14" type="curve" smooth="yes"/>
      <point x="651" y="-14"/>
      <point x="809" y="132"/>
      <point x="809" y="350" type="curve" smooth="yes"/>
      <point x="809" y="568"/>
      <point x="651" y="714"/>
    </contour>
    <contour>
      <point x="424" y="16" type="curve" smooth="yes"/>
      <point x="240" y="16"/>
      <point x="117" y="150"/>
      <point x="117" y="350" type="curve" smooth="yes"/>
      <point x="117" y="550"/>
      <point x="240" y="684"/>
      <point x="424" y="684" type="curve" smooth="yes"/>
      <point x="608" y="684"/>
      <point x="731" y="550"/>
      <point x="731" y="350" type="curve" smooth="yes"/>
      <point x="731" y="150"/>
      <point x="608" y="16"/>
    </contour>
  </outline>
</glyph>
<glyph name="Aogonek" format="2">
  <advance width="727"/>
  <unicode hex="0104"/>
  <outline>
    <contour>
      <point x="144" y="73" type="curve"/>
      <point x="87" y="73" type="line"/>
      <point x="66" y="28"/>
      <point x="29" y="10"/>
      <point x="-1" y="10" type="curve" smooth="yes"/>
      <point x="-1" y="10"/>
      <point x="-10" y="10"/>
      <point x="-10" y="10" type="curve"/>
      <point x="-10" y="0" type="line"/>
      <point x="191" y="0" type="line"/>
      <point x="191" y="10" type="line"/>
      <point x="182" y="10" type="line" smooth="yes"/>
      <point x="157" y="10"/>
      <point x="130" y="33"/>
    </contour>
    <contour>
      <point x="371" y="655" type="line"/>
      <point x="340" y="682" type="line"/>
      <point x="57" y="3" type="line"/>
      <point x="117" y="3" type="line"/>
    </contour>
    <contour>
      <point x="520" y="281" type="line"/>
      <point x="187" y="281" type="line"/>
      <point x="187" y="251" type="line"/>
      <point x="520" y="251" type="line"/>
    </contour>
    <contour>
      <point x="103" y="720" type="curve"/>
      <point x="106" y="710" type="line"/>
      <point x="280" y="739"/>
      <point x="348" y="623"/>
      <point x="391" y="510" type="curve" smooth="yes"/>
      <point x="532" y="137" type="line" smooth="yes"/>
      <point x="644" y="-159"/>
      <point x="774" y="-180"/>
      <point x="931" y="-157" type="curve"/>
      <point x="930" y="-147" type="line"/>
      <point x="748" y="-152"/>
      <point x="663" y="1"/>
      <point x="599" y="158" type="curve" smooth="yes"/>
      <point x="461" y="499" type="line" smooth="yes"/>
      <point x="409" y="629"/>
      <point x="335" y="787"/>
    </contour>
    <contour>
      <point x="632" y="-5" type="line"/>
      <point x="575" y="16"/>
      <point x="514" y="-4"/>
      <point x="496" y="-54" type="curve" smooth="yes"/>
      <point x="458" y="-163"/>
      <point x="590" y="-215"/>
      <point x="647" y="-148" type="curve"/>
      <point x="643" y="-140" type="line"/>
      <point x="580" y="-172"/>
      <point x="525" y="-114"/>
      <point x="543" y="-59" type="curve" smooth="yes"/>
      <point x="555" y="-23"/>
      <point x="583" y="-5"/>
      <point x="640" y="-11" type="curve"/>
    </contour>
  </outline>
</glyph>
<glyph name="aogonek" format="2">
  <advance width="737"/>
  <unicode hex="0105"/>
  <outline>
    <contour>
      <point x="372.75" y="714" type="line"/>
      <point x="352.736" y="619" type="line"/>
      <point x="597.909" y="2" type="line"/>
      <point x="682.969" y="6" type="line"/>
    </contour>
    <contour>
      <point x="372.75" y="714" type="line"/>
      <point x="363.744" y="714" type="line"/>
      <point x="363.744" y="692.013"/>
      <point x="326.718" y="611"/>
      <point x="326.718" y="611" type="curve"/>
      <point x="55.526" y="3" type="line"/>
      <point x="115.569" y="3" type="line"/>
      <point x="381.756" y="644" type="line"/>
    </contour>
    <contour>
      <point x="512.849" y="273" type="line"/>
      <point x="200.629" y="273" type="line"/>
      <point x="200.629" y="243" type="line"/>
      <point x="512.849" y="243" type="line"/>
    </contour>
    <contour>
      <point x="144.453" y="72.586" type="curve"/>
      <point x="86.627" y="72.918" type="line"/>
      <point x="66.415" y="28.369"/>
      <point x="29.405" y="10.21"/>
      <point x="-1" y="10.21" type="curve" smooth="yes"/>
      <point x="-1" y="10.21"/>
      <point x="-10" y="10.21"/>
      <point x="-10" y="10.21" type="curve"/>
      <point x="-10" y="0.21" type="line"/>
      <point x="191.245" y="0.115" type="line"/>
      <point x="191.245" y="10.115" type="line"/>
      <point x="182.453" y="10.115" type="line" smooth="yes"/>
      <point x="156.636" y="10.115"/>
      <point x="129.851" y="32.569"/>
    </contour>
    <contour>
      <point x="612.321" y="0" type="curve" smooth="yes"/>
      <point x="655.046" y="7.331"/>
      <point x="664.685" y="0.1"/>
      <point x="748.035" y="0.1" type="curve"/>
      <point x="748.035" y="9.191" type="line"/>
      <point x="748.035" y="9.191"/>
      <point x="739.235" y="9.191"/>
      <point x="739.235" y="9.191" type="curve" smooth="yes"/>
      <point x="709.453" y="9.191"/>
      <point x="674.184" y="27.199"/>
      <point x="655.81" y="68.016" type="curve"/>
      <point x="570.184" y="71.824" type="line"/>
      <point x="586.095" y="29.734"/>
      <point x="580.601" y="7.709"/>
      <point x="551.821" y="-8" type="curve" smooth="yes"/>
      <point x="527.053" y="-22"/>
      <point x="502.106" y="-49"/>
      <point x="502.508" y="-84" type="curve" smooth="yes"/>
      <point x="503.832" y="-200"/>
      <point x="649.298" y="-201"/>
      <point x="679.521" y="-119" type="curve"/>
      <point x="673.521" y="-113" type="line"/>
      <point x="624.393" y="-164"/>
      <point x="549.55" y="-128"/>
      <point x="549.55" y="-71" type="curve" smooth="yes"/>
      <point x="549.55" y="-40"/>
      <point x="569.969" y="-7"/>
    </contour>
  </outline>
</glyph>
<glyph name="Hbar" format="2">
  <advance width="816"/>
  <unicode hex="0126"/>
  <outline>
    <contour>
      <point x="728.744" y="528.11" type="line"/>
      <point x="60" y="528.11" type="line"/>
      <point x="60" y="498.11" type="line"/>
      <point x="728.744" y="498.11" type="line"/>
    </contour>
    <contour>
      <point x="151.28" y="627.196" type="line"/>
      <point x="151.28" y="700.06" type="line"/>
      <point x="71.504" y="700.06" type="line"/>
      <point x="71.666" y="690.06" type="line"/>
      <point x="71.823" y="690.06"/>
      <point x="84.165" y="690.08"/>
      <point x="84.317" y="690.08" type="curve" smooth="yes"/>
      <point x="119.318" y="690.08"/>
      <point x="147.715" y="662.03"/>
      <point x="148.371" y="627.196" type="curve"/>
    </contour>
    <contour>
      <point x="213.409" y="700" type="line"/>
      <point x="148.362" y="700" type="line"/>
      <point x="148.362" y="70" type="line" smooth="yes"/>
      <point x="148.362" y="-50"/>
      <point x="119.168" y="-111"/>
      <point x="60" y="-142" type="curve"/>
      <point x="65" y="-151" type="line"/>
      <point x="156.408" y="-130"/>
      <point x="213.409" y="-82"/>
      <point x="213.409" y="70" type="curve" smooth="yes"/>
    </contour>
    <contour>
      <point x="210.485" y="627.196" type="line"/>
      <point x="213.394" y="627.196" type="line"/>
      <point x="214.05" y="662.03"/>
      <point x="242.447" y="690.08"/>
      <point x="277.448" y="690.08" type="curve" smooth="yes"/>
      <point x="277.6" y="690.08"/>
      <point x="289.941" y="690.06"/>
      <point x="290.098" y="690.06" type="curve"/>
      <point x="290.26" y="700.06" type="line"/>
      <point x="210.485" y="700.06" type="line"/>
    </contour>
    <contour>
      <point x="631.807" y="361.058" type="line"/>
      <point x="203.063" y="361.058" type="line"/>
      <point x="203.063" y="331.058" type="line"/>
      <point x="631.807" y="331.058" type="line"/>
    </contour>
    <contour>
      <point x="602.499" y="72.864" type="line"/>
      <point x="599.59" y="72.864" type="line"/>
      <point x="598.934" y="38.03"/>
      <point x="570.537" y="9.98"/>
      <point x="535.536" y="9.98" type="curve" smooth="yes"/>
      <point x="535.384" y="9.98"/>
      <point x="523.043" y="10"/>
      <point x="522.886" y="10" type="curve"/>
      <point x="522.724" y="0" type="line"/>
      <point x="602.499" y="0" type="line"/>
    </contour>
    <contour>
      <point x="599.396" y="0" type="line"/>
      <point x="664.443" y="0" type="line"/>
      <point x="665.443" y="610" type="line" smooth="yes"/>
      <point x="665.639" y="730"/>
      <point x="694.636" y="791"/>
      <point x="753.805" y="822" type="curve"/>
      <point x="748.805" y="831" type="line"/>
      <point x="657.396" y="810"/>
      <point x="600.645" y="762"/>
      <point x="600.396" y="610" type="curve" smooth="yes"/>
    </contour>
    <contour>
      <point x="661.704" y="72.864" type="line"/>
      <point x="661.704" y="0" type="line"/>
      <point x="741.479" y="0" type="line"/>
      <point x="741.317" y="10" type="line"/>
      <point x="741.16" y="10"/>
      <point x="728.819" y="9.98"/>
      <point x="728.667" y="9.98" type="curve" smooth="yes"/>
      <point x="693.666" y="9.98"/>
      <point x="665.269" y="38.03"/>
      <point x="664.613" y="72.864" type="curve"/>
    </contour>
  </outline>
</glyph>
<glyph name="hbar" format="2">
  <advance width="813"/>
  <unicode hex="0127"/>
  <outline>
    <contour>
      <point x="742" y="528" type="line"/>
      <point x="74" y="528" type="line"/>
      <point x="74" y="498" type="line"/>
      <point x="742" y="498" type="line"/>
    </contour>
    <contour>
      <point x="676" y="700" type="line"/>
      <point x="611" y="700" type="line"/>
      <point x="611" y="0" type="line"/>
      <point x="676" y="0" type="line"/>
    </contour>
    <contour>
      <point x="202" y="700" type="line"/>
      <point x="137" y="700" type="line"/>
      <point x="137" y="0" type="line"/>
      <point x="202" y="0" type="line"/>
    </contour>
    <contour>
      <point x="620" y="361" type="line"/>
      <point x="192" y="361" type="line"/>
      <point x="192" y="331" type="line"/>
      <point x="620" y="331" type="line"/>
    </contour>
    <contour>
      <point x="140" y="73" type="line"/>
      <point x="137" y="73" type="line"/>
      <point x="136" y="38"/>
      <point x="108" y="10"/>
      <point x="73" y="10" type="curve" smooth="yes"/>
      <point x="73" y="10"/>
      <point x="60" y="10"/>
      <point x="60" y="10" type="curve"/>
      <point x="60" y="0" type="line"/>
      <point x="140" y="0" type="line"/>
    </contour>
    <contour>
      <point x="140" y="627" type="line"/>
      <point x="140" y="700" type="line"/>
      <point x="60" y="700" type="line"/>
      <point x="60" y="690" type="line"/>
      <point x="60" y="690"/>
      <point x="73" y="690"/>
      <point x="73" y="690" type="curve" smooth="yes"/>
      <point x="108" y="690"/>
      <point x="136" y="662"/>
      <point x="137" y="627" type="curve"/>
    </contour>
    <contour>
      <point x="199" y="73" type="line"/>
      <point x="199" y="0" type="line"/>
      <point x="279" y="0" type="line"/>
      <point x="279" y="10" type="line"/>
      <point x="278" y="10"/>
      <point x="266" y="10"/>
      <point x="266" y="10" type="curve" smooth="yes"/>
      <point x="231" y="10"/>
      <point x="203" y="38"/>
      <point x="202" y="73" type="curve"/>
    </contour>
    <contour>
      <point x="199" y="627" type="line"/>
      <point x="202" y="627" type="line"/>
      <point x="203" y="662"/>
      <point x="231" y="690"/>
      <point x="266" y="690" type="curve" smooth="yes"/>
      <point x="266" y="690"/>
      <point x="278" y="690"/>
      <point x="279" y="690" type="curve"/>
      <point x="279" y="700" type="line"/>
      <point x="199" y="700" type="line"/>
    </contour>
    <contour>
      <point x="614" y="73" type="line"/>
      <point x="611" y="73" type="line"/>
      <point x="611" y="38"/>
      <point x="582" y="10"/>
      <point x="547" y="10" type="curve" smooth="yes"/>
      <point x="547" y="10"/>
      <point x="535" y="10"/>
      <point x="534" y="10" type="curve"/>
      <point x="534" y="0" type="line"/>
      <point x="614" y="0" type="line"/>
    </contour>
    <contour>
      <point x="614" y="627" type="line"/>
      <point x="614" y="700" type="line"/>
      <point x="534" y="700" type="line"/>
      <point x="534" y="690" type="line"/>
      <point x="535" y="690"/>
      <point x="547" y="690"/>
      <point x="547" y="690" type="curve" smooth="yes"/>
      <point x="582" y="690"/>
      <point x="611" y="662"/>
      <point x="611" y="627" type="curve"/>
    </contour>
    <contour>
      <point x="673" y="73" type="line"/>
      <point x="673" y="0" type="line"/>
      <point x="753" y="0" type="line"/>
      <point x="753" y="10" type="line"/>
      <point x="753" y="10"/>
      <point x="740" y="10"/>
      <point x="740" y="10" type="curve" smooth="yes"/>
      <point x="705" y="10"/>
      <point x="677" y="38"/>
      <point x="676" y="73" type="curve"/>
    </contour>
    <contour>
      <point x="673" y="627" type="line"/>
      <point x="676" y="627" type="line"/>
      <point x="677" y="662"/>
      <point x="705" y="690"/>
      <point x="740" y="690" type="curve" smooth="yes"/>
      <point x="740" y="690"/>
      <point x="753" y="690"/>
      <point x="753" y="690" type="curve"/>
      <point x="753" y="700" type="line"/>
      <point x="673" y="700" type="line"/>
    </contour>
  </outline>
</glyph>
<glyph name="iogonek" format="2">
  <advance width="338"/>
  <unicode hex="012F"/>
  <outline>
    <contour>
      <point x="202" y="700" type="line"/>
      <point x="137" y="700" type="line"/>
      <point x="137" y="0" type="line"/>
      <point x="202" y="0" type="line"/>
    </contour>
    <contour>
      <point x="140" y="73" type="line"/>
      <point x="137" y="73" type="line"/>
      <point x="136" y="38"/>
      <point x="108" y="10"/>
      <point x="73" y="10" type="curve" smooth="yes"/>
      <point x="73" y="10"/>
      <point x="60" y="10"/>
      <point x="60" y="10" type="curve"/>
      <point x="60" y="0" type="line"/>
      <point x="140" y="0" type="line"/>
    </contour>
    <contour>
      <point x="140" y="627" type="line"/>
      <point x="140" y="700" type="line"/>
      <point x="60" y="700" type="line"/>
      <point x="60" y="690" type="line"/>
      <point x="60" y="690"/>
      <point x="73" y="690"/>
      <point x="73" y="690" type="curve" smooth="yes"/>
      <point x="108" y="690"/>
      <point x="136" y="662"/>
      <point x="137" y="627" type="curve"/>
    </contour>
    <contour>
      <point x="199" y="73" type="line"/>
      <point x="199" y="0" type="line"/>
      <point x="279" y="0" type="line"/>
      <point x="279" y="10" type="line"/>
      <point x="278" y="10"/>
      <point x="266" y="10"/>
      <point x="266" y="10" type="curve" smooth="yes"/>
      <point x="231" y="10"/>
      <point x="203" y="38"/>
      <point x="202" y="73" type="curve"/>
    </contour>
    <contour>
      <point x="199" y="627" type="line"/>
      <point x="202" y="627" type="line"/>
      <point x="203" y="662"/>
      <point x="231" y="690"/>
      <point x="266" y="690" type="curve" smooth="yes"/>
      <point x="266" y="690"/>
      <point x="278" y="690"/>
      <point x="279" y="690" type="curve"/>
      <point x="279" y="700" type="line"/>
      <point x="199" y="700" type="line"/>
    </contour>
    <contour>
      <point x="179" y="3" type="line"/>
      <point x="118" y="3"/>
      <point x="67" y="-36"/>
      <point x="68" y="-89" type="curve" smooth="yes"/>
      <point x="69" y="-205"/>
      <point x="212" y="-208"/>
      <point x="242" y="-126" type="curve"/>
      <point x="236" y="-120" type="line"/>
      <point x="187" y="-171"/>
      <point x="116" y="-135"/>
      <point x="114" y="-78" type="curve" smooth="yes"/>
      <point x="113" y="-40"/>
      <point x="133" y="-13"/>
      <point x="189" y="0" type="curve"/>
    </contour>
  </outline>
</glyph>
<glyph name="Lcaron" format="2">
  <advance width="401"/>
  <unicode hex="013D"/>
  <anchor x="237.331" y="-110" name="bottom"/>
  <outline>
    <contour>
      <point x="370.399" y="688.442" type="curve" smooth="yes"/>
      <point x="361.437" y="668.085"/>
      <point x="378.347" y="654.081"/>
      <point x="388.77" y="641.607" type="curve" smooth="yes"/>
      <point x="402.451" y="625.177"/>
      <point x="410.413" y="583.855"/>
      <point x="361.772" y="568.152" type="curve"/>
      <point x="363.723" y="561.541" type="line"/>
      <point x="416.004" y="563.194"/>
      <point x="459.066" y="618.566"/>
      <point x="433.072" y="680.9" type="curve" smooth="yes"/>
      <point x="419.542" y="713.247"/>
      <point x="380.593" y="711.6"/>
    </contour>
    <contour>
      <point x="139.775" y="627.077" type="line"/>
      <point x="139.775" y="699.941" type="line"/>
      <point x="60" y="699.941" type="line"/>
      <point x="60.162" y="689.941" type="line"/>
      <point x="60.319" y="689.941"/>
      <point x="72.66" y="689.961"/>
      <point x="72.812" y="689.961" type="curve" smooth="yes"/>
      <point x="107.813" y="689.961"/>
      <point x="136.21" y="661.911"/>
      <point x="136.866" y="627.077" type="curve"/>
    </contour>
    <contour>
      <point x="199.006" y="627.077" type="line"/>
      <point x="201.915" y="627.077" type="line"/>
      <point x="202.571" y="661.911"/>
      <point x="230.968" y="689.961"/>
      <point x="265.969" y="689.961" type="curve" smooth="yes"/>
      <point x="266.121" y="689.961"/>
      <point x="278.462" y="689.941"/>
      <point x="278.619" y="689.941" type="curve"/>
      <point x="278.781" y="699.941" type="line"/>
      <point x="199.006" y="699.941" type="line"/>
    </contour>
    <contour>
      <point x="926.212" y="-119" type="curve"/>
      <point x="921.213" y="-111" type="line"/>
      <point x="756" y="-174"/>
      <point x="658.335" y="-161"/>
      <point x="250" y="-19" type="curve" smooth="yes"/>
      <point x="202.807" y="-3"/>
      <point x="202" y="22"/>
      <point x="201.915" y="49.664" type="curve" smooth="yes"/>
      <point x="201.915" y="700" type="line"/>
      <point x="136.885" y="700" type="line"/>
      <point x="136.885" y="72.864" type="line" smooth="yes"/>
      <point x="136" y="37"/>
      <point x="107" y="10"/>
      <point x="73" y="10" type="curve" smooth="yes"/>
      <point x="71" y="10"/>
      <point x="62" y="10"/>
      <point x="60.176" y="10" type="curve"/>
      <point x="60.015" y="0" type="line"/>
      <point x="117.318" y="-1"/>
      <point x="175.847" y="-22"/>
      <point x="236.311" y="-49" type="curve" smooth="yes"/>
      <point x="436.484" y="-138"/>
      <point x="657.871" y="-304"/>
    </contour>
  </outline>
</glyph>
<glyph name="Ldot" format="2">
  <advance width="476"/>
  <unicode hex="013F"/>
  <anchor x="237.331" y="-110" name="bottom"/>
  <outline>
    <contour>
      <point x="334.423" y="403" type="curve" smooth="yes"/>
      <point x="359.276" y="403"/>
      <point x="379.423" y="423.147"/>
      <point x="379.423" y="448" type="curve" smooth="yes"/>
      <point x="379.423" y="472.853"/>
      <point x="359.276" y="493"/>
      <point x="334.423" y="493" type="curve" smooth="yes"/>
      <point x="309.57" y="493"/>
      <point x="289.423" y="472.853"/>
      <point x="289.423" y="448" type="curve" smooth="yes"/>
      <point x="289.423" y="423.147"/>
      <point x="309.57" y="403"/>
    </contour>
    <contour>
      <point x="139.775" y="627.077" type="line"/>
      <point x="139.775" y="699.941" type="line"/>
      <point x="60" y="699.941" type="line"/>
      <point x="60.162" y="689.941" type="line"/>
      <point x="60.319" y="689.941"/>
      <point x="72.66" y="689.961"/>
      <point x="72.812" y="689.961" type="curve" smooth="yes"/>
      <point x="107.813" y="689.961"/>
      <point x="136.21" y="661.911"/>
      <point x="136.866" y="627.077" type="curve"/>
    </contour>
    <contour>
      <point x="199.006" y="627.077" type="line"/>
      <point x="201.915" y="627.077" type="line"/>
      <point x="202.571" y="661.911"/>
      <point x="230.968" y="689.961"/>
      <point x="265.969" y="689.961" type="curve" smooth="yes"/>
      <point x="266.121" y="689.961"/>
      <point x="278.462" y="689.941"/>
      <point x="278.619" y="689.941" type="curve"/>
      <point x="278.781" y="699.941" type="line"/>
      <point x="199.006" y="699.941" type="line"/>
    </contour>
    <contour>
      <point x="926.212" y="-119" type="curve"/>
      <point x="921.213" y="-111" type="line"/>
      <point x="756" y="-174"/>
      <point x="658.335" y="-161"/>
      <point x="250" y="-19" type="curve" smooth="yes"/>
      <point x="202.807" y="-3"/>
      <point x="202" y="22"/>
      <point x="201.915" y="49.664" type="curve" smooth="yes"/>
      <point x="201.915" y="700" type="line"/>
      <point x="136.885" y="700" type="line"/>
      <point x="136.885" y="72.864" type="line" smooth="yes"/>
      <point x="136" y="37"/>
      <point x="107" y="10"/>
      <point x="73" y="10" type="curve" smooth="yes"/>
      <point x="71" y="10"/>
      <point x="62" y="10"/>
      <point x="60.176" y="10" type="curve"/>
      <point x="60.015" y="0" type="line"/>
      <point x="117.318" y="-1"/>
      <point x="175.847" y="-22"/>
      <point x="236.311" y="-49" type="curve" smooth="yes"/>
      <point x="436.484" y="-138"/>
      <point x="657.871" y="-304"/>
    </contour>
  </outline>
</glyph>
<glyph name="ldot" format="2">
  <advance width="562"/>
  <unicode hex="0140"/>
  <outline>
    <contour>
      <point x="202" y="700" type="line"/>
      <point x="137" y="700" type="line"/>
      <point x="137" y="0" type="line"/>
      <point x="202" y="0" type="line"/>
    </contour>
    <contour>
      <point x="140" y="73" type="line"/>
      <point x="137" y="73" type="line"/>
      <point x="136" y="38"/>
      <point x="108" y="10"/>
      <point x="73" y="10" type="curve" smooth="yes"/>
      <point x="73" y="10"/>
      <point x="60" y="10"/>
      <point x="60" y="10" type="curve"/>
      <point x="60" y="0" type="line"/>
      <point x="140" y="0" type="line"/>
    </contour>
    <contour>
      <point x="472" y="31" type="line"/>
      <point x="199" y="31" type="line"/>
      <point x="199" y="0" type="line"/>
      <point x="472" y="0" type="line"/>
    </contour>
    <contour>
      <point x="533" y="162" type="line"/>
      <point x="523" y="162" type="line"/>
      <point x="492" y="85"/>
      <point x="451" y="31"/>
      <point x="345" y="31" type="curve"/>
      <point x="309" y="0" type="line"/>
      <point x="475" y="0" type="line"/>
    </contour>
    <contour>
      <point x="140" y="700" type="line"/>
      <point x="60" y="700" type="line"/>
      <point x="60" y="690" type="line"/>
      <point x="60" y="690"/>
      <point x="73" y="690"/>
      <point x="73" y="690" type="curve" smooth="yes"/>
      <point x="108" y="690"/>
      <point x="136" y="662"/>
      <point x="137" y="627" type="curve"/>
      <point x="140" y="627" type="line"/>
    </contour>
    <contour>
      <point x="279" y="700" type="line"/>
      <point x="199" y="700" type="line"/>
      <point x="199" y="627" type="line"/>
      <point x="202" y="627" type="line"/>
      <point x="203" y="662"/>
      <point x="231" y="690"/>
      <point x="266" y="690" type="curve" smooth="yes"/>
      <point x="266" y="690"/>
      <point x="278" y="690"/>
      <point x="279" y="690" type="curve"/>
    </contour>
    <contour>
      <point x="334" y="403" type="curve" smooth="yes"/>
      <point x="359" y="403"/>
      <point x="379" y="423"/>
      <point x="379" y="448" type="curve" smooth="yes"/>
      <point x="379" y="473"/>
      <point x="359" y="493"/>
      <point x="334" y="493" type="curve" smooth="yes"/>
      <point x="310" y="493"/>
      <point x="289" y="473"/>
      <point x="289" y="448" type="curve" smooth="yes"/>
      <point x="289" y="423"/>
      <point x="310" y="403"/>
    </contour>
  </outline>
</glyph>
<glyph name="Eng" format="2">
  <advance width="819"/>
  <unicode hex="014A"/>
  <outline>
    <contour>
      <point x="117" y="65" type="line"/>
      <point x="114" y="65" type="line"/>
      <point x="114" y="36"/>
      <point x="90" y="13"/>
      <point x="61" y="13" type="curve" smooth="yes"/>
      <point x="61" y="13"/>
      <point x="45" y="13"/>
      <point x="45" y="13" type="curve"/>
      <point x="45" y="0" type="line"/>
      <point x="117" y="0" type="line"/>
    </contour>
    <contour>
      <point x="113" y="675" type="line"/>
      <point x="114" y="0" type="line"/>
      <point x="160" y="0" type="line"/>
      <point x="159" y="659" type="line"/>
    </contour>
    <contour>
      <point x="160" y="65" type="curve"/>
      <point x="157" y="65" type="line"/>
      <point x="157" y="0" type="line"/>
      <point x="229" y="0" type="line"/>
      <point x="229" y="13" type="line"/>
      <point x="229" y="13"/>
      <point x="213" y="13"/>
      <point x="213" y="13" type="curve" smooth="yes"/>
      <point x="184" y="13"/>
      <point x="160" y="36"/>
    </contour>
    <contour>
      <point x="168" y="558" type="curve"/>
      <point x="703" y="-13" type="line"/>
      <point x="696" y="96" type="line"/>
      <point x="197" y="628" type="line"/>
      <point x="107" y="727"/>
      <point x="2" y="833"/>
      <point x="-158" y="766" type="curve"/>
      <point x="-154" y="756" type="line"/>
      <point x="7" y="803"/>
      <point x="112" y="620"/>
    </contour>
    <contour>
      <point x="705" y="-32" type="curve"/>
      <point x="705" y="700" type="line"/>
      <point x="660" y="700" type="line"/>
      <point x="660" y="-30" type="line"/>
      <point x="660" y="-127"/>
      <point x="614" y="-174"/>
      <point x="572" y="-193" type="curve"/>
      <point x="577" y="-201" type="line"/>
      <point x="644.008" y="-187"/>
      <point x="705" y="-140"/>
    </contour>
    <contour>
      <point x="590" y="700" type="line"/>
      <point x="590" y="687" type="line"/>
      <point x="590" y="687"/>
      <point x="606" y="687"/>
      <point x="606" y="687" type="curve" smooth="yes"/>
      <point x="635" y="687"/>
      <point x="659" y="664"/>
      <point x="659" y="635" type="curve"/>
      <point x="662" y="635" type="line"/>
      <point x="662" y="700" type="line"/>
    </contour>
    <contour>
      <point x="774" y="700" type="line"/>
      <point x="702" y="700" type="line"/>
      <point x="702" y="635" type="line"/>
      <point x="705" y="635" type="line"/>
      <point x="705" y="664"/>
      <point x="729" y="687"/>
      <point x="758" y="687" type="curve" smooth="yes"/>
      <point x="758" y="687"/>
      <point x="774" y="687"/>
      <point x="774" y="687" type="curve"/>
    </contour>
  </outline>
</glyph>
<glyph name="eng" format="2">
  <advance width="839"/>
  <unicode hex="014B"/>
  <outline>
    <contour>
      <point x="100" y="715" type="line"/>
      <point x="90" y="715" type="line"/>
      <point x="90" y="715"/>
      <point x="99" y="658"/>
      <point x="99" y="590" type="curve" smooth="yes"/>
      <point x="99" y="0" type="line"/>
      <point x="145" y="0" type="line"/>
      <point x="144" y="659" type="line"/>
    </contour>
    <contour>
      <point x="102" y="65" type="line"/>
      <point x="99" y="65" type="line"/>
      <point x="99" y="36"/>
      <point x="75" y="13"/>
      <point x="46" y="13" type="curve" smooth="yes"/>
      <point x="46" y="13"/>
      <point x="30" y="13"/>
      <point x="30" y="13" type="curve"/>
      <point x="30" y="0" type="line"/>
      <point x="102" y="0" type="line"/>
    </contour>
    <contour>
      <point x="145" y="65" type="curve"/>
      <point x="142" y="65" type="line"/>
      <point x="142" y="0" type="line"/>
      <point x="214" y="0" type="line"/>
      <point x="214" y="13" type="line"/>
      <point x="214" y="13"/>
      <point x="198" y="13"/>
      <point x="198" y="13" type="curve" smooth="yes"/>
      <point x="169" y="13"/>
      <point x="145" y="36"/>
    </contour>
    <contour>
      <point x="688" y="-13" type="line"/>
      <point x="681" y="96" type="line"/>
      <point x="100" y="715" type="line"/>
      <point x="109" y="605" type="line"/>
    </contour>
    <contour>
      <point x="690" y="-32" type="curve"/>
      <point x="690" y="700" type="line"/>
      <point x="645" y="700" type="line"/>
      <point x="645" y="-30" type="line"/>
      <point x="645" y="-127"/>
      <point x="599" y="-174"/>
      <point x="557" y="-193" type="curve"/>
      <point x="562" y="-201" type="line"/>
      <point x="629" y="-187"/>
      <point x="690" y="-140"/>
    </contour>
    <contour>
      <point x="575" y="700" type="line"/>
      <point x="576" y="687" type="line"/>
      <point x="576" y="687"/>
      <point x="591" y="687"/>
      <point x="591" y="687" type="curve" smooth="yes"/>
      <point x="621" y="687"/>
      <point x="644" y="664"/>
      <point x="645" y="635" type="curve"/>
      <point x="647" y="635" type="line"/>
      <point x="647" y="700" type="line"/>
    </contour>
    <contour>
      <point x="759" y="700" type="line"/>
      <point x="688" y="700" type="line"/>
      <point x="688" y="635" type="line"/>
      <point x="690" y="635" type="line"/>
      <point x="691" y="664"/>
      <point x="714" y="687"/>
      <point x="743" y="687" type="curve" smooth="yes"/>
      <point x="743" y="687"/>
      <point x="759" y="687"/>
      <point x="759" y="687" type="curve"/>
    </contour>
  </outline>
</glyph>
<glyph name="OE" format="2">
  <advance width="997"/>
  <unicode hex="0152"/>
  <anchor x="570" y="700" name="top"/>
  <outline>
    <contour>
      <point x="414.432" y="714" type="curve" smooth="yes"/>
      <point x="201.773" y="714"/>
      <point x="60" y="568.397"/>
      <point x="60" y="349.992" type="curve" smooth="yes"/>
      <point x="60" y="131.597"/>
      <point x="201.773" y="-14"/>
      <point x="414.432" y="-14" type="curve" smooth="yes"/>
      <point x="450.675" y="-14"/>
      <point x="520.846" y="-3"/>
      <point x="542.005" y="-2" type="curve" smooth="yes"/>
      <point x="570.295" y="0"/>
      <point x="582.541" y="0"/>
      <point x="595.634" y="0" type="curve"/>
      <point x="595.005" y="700" type="line"/>
      <point x="563.903" y="700"/>
      <point x="546.584" y="702.473"/>
      <point x="526.586" y="705.341" type="curve" smooth="yes"/>
      <point x="492.25" y="710.264"/>
      <point x="443.758" y="714"/>
    </contour>
    <contour>
      <point x="414.432" y="15.925" type="curve" smooth="yes"/>
      <point x="244.773" y="15.925"/>
      <point x="131.667" y="149.552"/>
      <point x="131.667" y="349.992" type="curve" smooth="yes"/>
      <point x="131.667" y="550.442"/>
      <point x="244.773" y="684.075"/>
      <point x="414.432" y="684.075" type="curve" smooth="yes"/>
      <point x="467.021" y="684.075"/>
      <point x="536.402" y="672.707"/>
      <point x="536.402" y="635.545" type="curve"/>
      <point x="536.402" y="64.203" type="line"/>
      <point x="536.402" y="31.499"/>
      <point x="467.214" y="15.925"/>
    </contour>
    <contour>
      <point x="597.423" y="699.656" type="line" smooth="yes"/>
      <point x="536.421" y="699.656" type="line"/>
      <point x="536.421" y="4.998" type="line"/>
      <point x="597.423" y="0" type="line"/>
    </contour>
    <contour>
      <point x="931.409" y="30.59" type="line"/>
      <point x="588.634" y="30.59" type="line"/>
      <point x="595.634" y="0" type="line"/>
      <point x="931.409" y="0" type="line"/>
    </contour>
    <contour>
      <point x="844.577" y="360.218" type="line"/>
      <point x="593.634" y="360.218" type="line"/>
      <point x="593.634" y="330.218" type="line"/>
      <point x="844.577" y="330.218" type="line"/>
    </contour>
    <contour>
      <point x="775.409" y="700" type="line"/>
      <point x="592.634" y="700" type="line"/>
      <point x="592.634" y="669.409" type="line" smooth="yes"/>
      <point x="775.409" y="669.409" type="line"/>
    </contour>
    <contour>
      <point x="992.39" y="161.543" type="line"/>
      <point x="982.39" y="161.543" type="line"/>
      <point x="951.521" y="85.405"/>
      <point x="910.828" y="30.592"/>
      <point x="804.865" y="30.592" type="curve"/>
      <point x="768.561" y="0" type="line"/>
      <point x="934.102" y="0" type="line"/>
    </contour>
    <contour>
      <point x="844.577" y="332.487" type="line"/>
      <point x="786.449" y="332.487" type="line"/>
      <point x="786.449" y="330.249" type="line"/>
      <point x="813.243" y="329.745"/>
      <point x="834.82" y="307.901"/>
      <point x="834.82" y="280.977" type="curve" smooth="yes"/>
      <point x="834.804" y="266.243" type="line"/>
      <point x="844.577" y="266.119" type="line"/>
    </contour>
    <contour>
      <point x="844.577" y="424.375" type="line"/>
      <point x="834.804" y="424.25" type="line"/>
      <point x="834.821" y="409.516" type="line" smooth="yes"/>
      <point x="834.821" y="382.593"/>
      <point x="813.243" y="360.753"/>
      <point x="786.449" y="360.248" type="curve"/>
      <point x="786.449" y="358.012" type="line"/>
      <point x="844.577" y="358.012" type="line"/>
    </contour>
    <contour>
      <point x="775.391" y="672.218" type="line"/>
      <point x="704.781" y="672.218" type="line"/>
      <point x="704.781" y="669.51" type="line"/>
      <point x="737.205" y="668.9"/>
      <point x="763.31" y="642.468"/>
      <point x="763.31" y="609.891" type="curve" smooth="yes"/>
      <point x="763.291" y="592.067" type="line"/>
      <point x="775.391" y="591.917" type="line"/>
    </contour>
    <contour>
      <point x="775.356" y="718.187" type="line"/>
      <point x="756.407" y="710.201"/>
      <point x="696.785" y="699.987"/>
      <point x="653.425" y="699.987" type="curve"/>
      <point x="775.356" y="688.909" type="line"/>
    </contour>
  </outline>
</glyph>
